<ttFont>
<head>
    <!-- Most of this table will be recalculated by the compiler -->
    <tableVersion value="1.0"/>
    <fontRevision value="2.201"/>
    <checkSumAdjustment value="0xc3c4d507"/>
    <magicNumber value="0x5f0f3cf5"/>
    <flags value="00000000 00011011"/>
    <unitsPerEm value="1000"/>
    <created value="Sat Jan 23 04:19:48 2016"/>
    <modified value="Thu Mar 10 20:56:56 2016"/>
    <xMin value="-121"/>
    <yMin value="-256"/>
    <xMax value="941"/>
    <yMax value="1045"/>
    <macStyle value="00000000 00000010"/>
    <lowestRecPPEM value="5"/>
    <fontDirectionHint value="2"/>
    <indexToLocFormat value="0"/>
    <glyphDataFormat value="0"/>
  </head>
    <TTGlyph name=".notdef" xMin="0" yMin="-200" xMax="500" yMax="800">
      <contour>
        <pt x="0" y="800" on="1"/>
        <pt x="500" y="800" on="1"/>
        <pt x="500" y="-200" on="1"/>
        <pt x="0" y="-200" on="1"/>
      </contour>
      <contour>
        <pt x="250" y="360" on="1"/>
        <pt x="429" y="750" on="1"/>
        <pt x="71" y="750" on="1"/>
      </contour>
      <contour>
        <pt x="222" y="300" on="1"/>
        <pt x="50" y="676" on="1"/>
        <pt x="50" y="-76" on="1"/>
      </contour>
      <contour>
        <pt x="278" y="300" on="1"/>
        <pt x="450" y="-76" on="1"/>
        <pt x="450" y="676" on="1"/>
      </contour>
      <contour>
        <pt x="71" y="-150" on="1"/>
        <pt x="429" y="-150" on="1"/>
        <pt x="250" y="240" on="1"/>
      </contour>
    </TTGlyph>
    <TTGlyph name="A" xMin="2" yMin="-7" xMax="534" yMax="728">
      <contour>
        <pt x="426" y="231" on="1"/>
        <pt x="185" y="231" on="1"/>
        <pt x="81" y="0" on="1"/>
        <pt x="2" y="0" on="1"/>
        <pt x="340" y="728" on="1"/>
        <pt x="415" y="728" on="1"/>
        <pt x="534" y="9" on="1"/>
        <pt x="462" y="-7" on="1"/>
      </contour>
      <contour>
        <pt x="215" y="298" on="1"/>
        <pt x="416" y="298" on="1"/>
        <pt x="365" y="632" on="1"/>
      </contour>
    </TTGlyph>
    <TTGlyph name="A.flat" xMin="2" yMin="0" xMax="535" yMax="728">
      <contour>
        <pt x="426" y="231" on="1"/>
        <pt x="185" y="231" on="1"/>
        <pt x="81" y="0" on="1"/>
        <pt x="2" y="0" on="1"/>
        <pt x="340" y="728" on="1"/>
        <pt x="415" y="728" on="1"/>
        <pt x="535" y="0" on="1"/>
        <pt x="461" y="0" on="1"/>
      </contour>
      <contour>
        <pt x="215" y="298" on="1"/>
        <pt x="416" y="298" on="1"/>
        <pt x="365" y="632" on="1"/>
      </contour>
    </TTGlyph>
    <TTGlyph name="AE" xMin="-20" yMin="0" xMax="831" yMax="725">
      <contour>
        <pt x="-20" y="0" on="1"/>
        <pt x="456" y="725" on="1"/>
        <pt x="831" y="725" on="1"/>
        <pt x="820" y="657" on="1"/>
        <pt x="567" y="657" on="1"/>
        <pt x="531" y="413" on="1"/>
        <pt x="729" y="413" on="1"/>
        <pt x="729" y="345" on="1"/>
        <pt x="520" y="345" on="1"/>
        <pt x="478" y="68" on="1"/>
        <pt x="743" y="68" on="1"/>
        <pt x="732" y="0" on="1"/>
        <pt x="394" y="0" on="1"/>
        <pt x="429" y="232" on="1"/>
        <pt x="211" y="232" on="1"/>
        <pt x="59" y="0" on="1"/>
      </contour>
      <contour>
        <pt x="439" y="298" on="1"/>
        <pt x="495" y="669" on="1"/>
        <pt x="253" y="298" on="1"/>
      </contour>
    </TTGlyph>
    <TTGlyph name="AE.flat" xMin="-20" yMin="0" xMax="831" yMax="725">
      <contour>
        <pt x="-20" y="0" on="1"/>
        <pt x="456" y="725" on="1"/>
        <pt x="831" y="725" on="1"/>
        <pt x="820" y="657" on="1"/>
        <pt x="567" y="657" on="1"/>
        <pt x="531" y="413" on="1"/>
        <pt x="733" y="413" on="1"/>
        <pt x="724" y="345" on="1"/>
        <pt x="520" y="345" on="1"/>
        <pt x="478" y="68" on="1"/>
        <pt x="743" y="68" on="1"/>
        <pt x="732" y="0" on="1"/>
        <pt x="394" y="0" on="1"/>
        <pt x="429" y="232" on="1"/>
        <pt x="211" y="232" on="1"/>
        <pt x="59" y="0" on="1"/>
      </contour>
      <contour>
        <pt x="439" y="298" on="1"/>
        <pt x="495" y="669" on="1"/>
        <pt x="253" y="298" on="1"/>
      </contour>
    </TTGlyph>
    <TTGlyph name="AEacute" xMin="-20" yMin="0" xMax="831" yMax="931">
      <component glyphName="acute.cap" x="363" y="214" flags="0x4"/>
      <component glyphName="AE" x="0" y="0" flags="0x4"/>
    </TTGlyph>
    <TTGlyph name="AEacute.flat" xMin="-20" yMin="0" xMax="831" yMax="931">
      <component glyphName="acute.cap" x="363" y="214" flags="0x4"/>
      <component glyphName="AE.flat" x="0" y="0" flags="0x4"/>
    </TTGlyph>
    <TTGlyph name="Aacute" xMin="2" yMin="-7" xMax="551" yMax="942">
      <component glyphName="A" x="0" y="0" flags="0x204"/>
      <component glyphName="acute.cap" x="169" y="225" flags="0x4"/>
    </TTGlyph>
    <TTGlyph name="Aacute.flat" xMin="2" yMin="0" xMax="551" yMax="942">
      <component glyphName="acute.cap" x="169" y="225" flags="0x4"/>
      <component glyphName="A.flat" x="0" y="0" flags="0x4"/>
    </TTGlyph>
    <TTGlyph name="Abreve" xMin="2" yMin="-7" xMax="534" yMax="920">
      <component glyphName="A" x="0" y="0" flags="0x204"/>
      <component glyphName="breve.cap" x="112" y="225" flags="0x4"/>
    </TTGlyph>
    <TTGlyph name="Abreve.flat" xMin="2" yMin="0" xMax="535" yMax="920">
      <component glyphName="breve.cap" x="113" y="225" flags="0x4"/>
      <component glyphName="A.flat" x="0" y="0" flags="0x4"/>
    </TTGlyph>
    <TTGlyph name="Acircumflex" xMin="2" yMin="-7" xMax="534" yMax="929">
      <component glyphName="A" x="0" y="0" flags="0x204"/>
      <component glyphName="circumflex.cap" x="115" y="216" flags="0x4"/>
    </TTGlyph>
    <TTGlyph name="Acircumflex.flat" xMin="2" yMin="0" xMax="535" yMax="929">
      <component glyphName="A.flat" x="0" y="0" flags="0x204"/>
      <component glyphName="circumflex.cap" x="115" y="216" flags="0x4"/>
    </TTGlyph>
    <TTGlyph name="Adieresis" xMin="2" yMin="-7" xMax="534" yMax="892">
      <component glyphName="A" x="0" y="0" flags="0x204"/>
      <component glyphName="dieresis.cap" x="116" y="225" flags="0x4"/>
    </TTGlyph>
    <TTGlyph name="Adieresis.flat" xMin="2" yMin="0" xMax="535" yMax="892">
      <component glyphName="dieresis.cap" x="116" y="225" flags="0x4"/>
      <component glyphName="A.flat" x="0" y="0" flags="0x4"/>
    </TTGlyph>
    <TTGlyph name="Agrave" xMin="2" yMin="-7" xMax="534" yMax="943">
      <component glyphName="A" x="0" y="0" flags="0x204"/>
      <component glyphName="grave.cap" x="59" y="225" flags="0x4"/>
    </TTGlyph>
    <TTGlyph name="Agrave.flat" xMin="2" yMin="0" xMax="535" yMax="943">
      <component glyphName="grave.cap" x="59" y="225" flags="0x4"/>
      <component glyphName="A.flat" x="0" y="0" flags="0x4"/>
    </TTGlyph>
    <TTGlyph name="Amacron" xMin="2" yMin="-7" xMax="534" yMax="879">
      <component glyphName="A" x="0" y="0" flags="0x204"/>
      <component glyphName="macron.cap" x="116" y="225" flags="0x4"/>
    </TTGlyph>
    <TTGlyph name="Amacron.flat" xMin="2" yMin="0" xMax="535" yMax="879">
      <component glyphName="macron.cap" x="116" y="225" flags="0x4"/>
      <component glyphName="A.flat" x="0" y="0" flags="0x4"/>
    </TTGlyph>
    <TTGlyph name="Aogonek" xMin="2" yMin="-181" xMax="534" yMax="728">
      <contour>
        <pt x="523" y="6" on="1"/>
        <pt x="495" y="-23" on="1"/>
        <pt x="469" y="-52" on="0"/>
        <pt x="449" y="-86" on="0"/>
        <pt x="449" y="-101" on="1"/>
        <pt x="449" y="-129" on="0"/>
        <pt x="486" y="-129" on="1"/>
        <pt x="505" y="-129" on="0"/>
        <pt x="526" y="-123" on="1"/>
        <pt x="521" y="-168" on="1"/>
        <pt x="506" y="-174" on="0"/>
        <pt x="474" y="-181" on="0"/>
        <pt x="457" y="-181" on="1"/>
        <pt x="423" y="-181" on="0"/>
        <pt x="386" y="-150" on="0"/>
        <pt x="386" y="-120" on="1"/>
        <pt x="386" y="-95" on="0"/>
        <pt x="420" y="-40" on="0"/>
        <pt x="458" y="-2" on="1"/>
        <pt x="461" y="1" on="1"/>
        <pt x="426" y="231" on="1"/>
        <pt x="185" y="231" on="1"/>
        <pt x="81" y="0" on="1"/>
        <pt x="2" y="0" on="1"/>
        <pt x="340" y="728" on="1"/>
        <pt x="415" y="728" on="1"/>
        <pt x="534" y="9" on="1"/>
      </contour>
      <contour>
        <pt x="215" y="298" on="1"/>
        <pt x="416" y="298" on="1"/>
        <pt x="365" y="632" on="1"/>
      </contour>
    </TTGlyph>
    <TTGlyph name="Aogonek.flat" xMin="2" yMin="-181" xMax="535" yMax="728">
      <contour>
        <pt x="384" y="-120" on="1"/>
        <pt x="384" y="-95" on="0"/>
        <pt x="418" y="-40" on="0"/>
        <pt x="456" y="-2" on="1"/>
        <pt x="458" y="0" on="1"/>
        <pt x="461" y="3" on="1"/>
        <pt x="426" y="231" on="1"/>
        <pt x="185" y="231" on="1"/>
        <pt x="81" y="0" on="1"/>
        <pt x="2" y="0" on="1"/>
        <pt x="340" y="728" on="1"/>
        <pt x="415" y="728" on="1"/>
        <pt x="535" y="0" on="1"/>
        <pt x="515" y="0" on="1"/>
        <pt x="493" y="-23" on="1"/>
        <pt x="467" y="-52" on="0"/>
        <pt x="447" y="-86" on="0"/>
        <pt x="447" y="-101" on="1"/>
        <pt x="447" y="-129" on="0"/>
        <pt x="484" y="-129" on="1"/>
        <pt x="503" y="-129" on="0"/>
        <pt x="524" y="-123" on="1"/>
        <pt x="519" y="-168" on="1"/>
        <pt x="504" y="-174" on="0"/>
        <pt x="472" y="-181" on="0"/>
        <pt x="455" y="-181" on="1"/>
        <pt x="421" y="-181" on="0"/>
        <pt x="384" y="-150" on="0"/>
      </contour>
      <contour>
        <pt x="215" y="298" on="1"/>
        <pt x="416" y="298" on="1"/>
        <pt x="365" y="632" on="1"/>
      </contour>
    </TTGlyph>
    <TTGlyph name="Aring" xMin="2" yMin="-7" xMax="534" yMax="869">
      <contour>
        <pt x="426" y="231" on="1"/>
        <pt x="185" y="231" on="1"/>
        <pt x="81" y="0" on="1"/>
        <pt x="2" y="0" on="1"/>
        <pt x="322" y="691" on="1"/>
        <pt x="303" y="704" on="0"/>
        <pt x="282" y="745" on="0"/>
        <pt x="282" y="771" on="1"/>
        <pt x="282" y="813" on="0"/>
        <pt x="339" y="869" on="0"/>
        <pt x="381" y="869" on="1"/>
        <pt x="424" y="869" on="0"/>
        <pt x="480" y="813" on="0"/>
        <pt x="480" y="771" on="1"/>
        <pt x="480" y="739" on="0"/>
        <pt x="449" y="692" on="0"/>
        <pt x="423" y="681" on="1"/>
        <pt x="534" y="9" on="1"/>
        <pt x="462" y="-7" on="1"/>
      </contour>
      <contour>
        <pt x="215" y="298" on="1"/>
        <pt x="416" y="298" on="1"/>
        <pt x="365" y="632" on="1"/>
      </contour>
      <contour>
        <pt x="381" y="712" on="1"/>
        <pt x="406" y="712" on="0"/>
        <pt x="437" y="745" on="0"/>
        <pt x="437" y="771" on="1"/>
        <pt x="437" y="797" on="0"/>
        <pt x="406" y="830" on="0"/>
        <pt x="381" y="830" on="1"/>
        <pt x="357" y="830" on="0"/>
        <pt x="326" y="797" on="0"/>
        <pt x="326" y="771" on="1"/>
        <pt x="326" y="745" on="0"/>
        <pt x="357" y="712" on="0"/>
      </contour>
    </TTGlyph>
    <TTGlyph name="Aring.flat" xMin="2" yMin="0" xMax="535" yMax="869">
      <contour>
        <pt x="426" y="231" on="1"/>
        <pt x="185" y="231" on="1"/>
        <pt x="81" y="0" on="1"/>
        <pt x="2" y="0" on="1"/>
        <pt x="322" y="691" on="1"/>
        <pt x="303" y="704" on="0"/>
        <pt x="282" y="745" on="0"/>
        <pt x="282" y="771" on="1"/>
        <pt x="282" y="813" on="0"/>
        <pt x="339" y="869" on="0"/>
        <pt x="381" y="869" on="1"/>
        <pt x="424" y="869" on="0"/>
        <pt x="480" y="813" on="0"/>
        <pt x="480" y="771" on="1"/>
        <pt x="480" y="739" on="0"/>
        <pt x="449" y="692" on="0"/>
        <pt x="423" y="681" on="1"/>
        <pt x="535" y="0" on="1"/>
        <pt x="461" y="0" on="1"/>
      </contour>
      <contour>
        <pt x="215" y="298" on="1"/>
        <pt x="416" y="298" on="1"/>
        <pt x="365" y="632" on="1"/>
      </contour>
      <contour>
        <pt x="381" y="712" on="1"/>
        <pt x="406" y="712" on="0"/>
        <pt x="437" y="745" on="0"/>
        <pt x="437" y="771" on="1"/>
        <pt x="437" y="797" on="0"/>
        <pt x="406" y="830" on="0"/>
        <pt x="381" y="830" on="1"/>
        <pt x="357" y="830" on="0"/>
        <pt x="326" y="797" on="0"/>
        <pt x="326" y="771" on="1"/>
        <pt x="326" y="745" on="0"/>
        <pt x="357" y="712" on="0"/>
      </contour>
    </TTGlyph>
    <TTGlyph name="Aringacute" xMin="2" yMin="-7" xMax="563" yMax="1045">
      <contour>
        <pt x="426" y="231" on="1"/>
        <pt x="185" y="231" on="1"/>
        <pt x="81" y="0" on="1"/>
        <pt x="2" y="0" on="1"/>
        <pt x="322" y="691" on="1"/>
        <pt x="303" y="704" on="0"/>
        <pt x="282" y="745" on="0"/>
        <pt x="282" y="771" on="1"/>
        <pt x="282" y="813" on="0"/>
        <pt x="339" y="869" on="0"/>
        <pt x="381" y="869" on="1"/>
        <pt x="424" y="869" on="0"/>
        <pt x="480" y="813" on="0"/>
        <pt x="480" y="771" on="1"/>
        <pt x="480" y="739" on="0"/>
        <pt x="449" y="692" on="0"/>
        <pt x="423" y="681" on="1"/>
        <pt x="534" y="9" on="1"/>
        <pt x="462" y="-7" on="1"/>
      </contour>
      <contour>
        <pt x="215" y="298" on="1"/>
        <pt x="416" y="298" on="1"/>
        <pt x="365" y="632" on="1"/>
      </contour>
      <contour>
        <pt x="381" y="712" on="1"/>
        <pt x="406" y="712" on="0"/>
        <pt x="437" y="745" on="0"/>
        <pt x="437" y="771" on="1"/>
        <pt x="437" y="797" on="0"/>
        <pt x="406" y="830" on="0"/>
        <pt x="381" y="830" on="1"/>
        <pt x="357" y="830" on="0"/>
        <pt x="326" y="797" on="0"/>
        <pt x="326" y="771" on="1"/>
        <pt x="326" y="745" on="0"/>
        <pt x="357" y="712" on="0"/>
      </contour>
      <contour>
        <pt x="421" y="895" on="1"/>
        <pt x="366" y="895" on="1"/>
        <pt x="474" y="1045" on="1"/>
        <pt x="563" y="1024" on="1"/>
      </contour>
    </TTGlyph>
    <TTGlyph name="Aringacute.flat" xMin="2" yMin="0" xMax="563" yMax="1045">
      <contour>
        <pt x="426" y="231" on="1"/>
        <pt x="185" y="231" on="1"/>
        <pt x="81" y="0" on="1"/>
        <pt x="2" y="0" on="1"/>
        <pt x="322" y="691" on="1"/>
        <pt x="303" y="704" on="0"/>
        <pt x="282" y="745" on="0"/>
        <pt x="282" y="771" on="1"/>
        <pt x="282" y="813" on="0"/>
        <pt x="339" y="869" on="0"/>
        <pt x="381" y="869" on="1"/>
        <pt x="424" y="869" on="0"/>
        <pt x="480" y="813" on="0"/>
        <pt x="480" y="771" on="1"/>
        <pt x="480" y="739" on="0"/>
        <pt x="449" y="692" on="0"/>
        <pt x="423" y="681" on="1"/>
        <pt x="535" y="0" on="1"/>
        <pt x="461" y="0" on="1"/>
      </contour>
      <contour>
        <pt x="215" y="298" on="1"/>
        <pt x="416" y="298" on="1"/>
        <pt x="365" y="632" on="1"/>
      </contour>
      <contour>
        <pt x="381" y="712" on="1"/>
        <pt x="406" y="712" on="0"/>
        <pt x="437" y="745" on="0"/>
        <pt x="437" y="771" on="1"/>
        <pt x="437" y="797" on="0"/>
        <pt x="406" y="830" on="0"/>
        <pt x="381" y="830" on="1"/>
        <pt x="357" y="830" on="0"/>
        <pt x="326" y="797" on="0"/>
        <pt x="326" y="771" on="1"/>
        <pt x="326" y="745" on="0"/>
        <pt x="357" y="712" on="0"/>
      </contour>
      <contour>
        <pt x="421" y="895" on="1"/>
        <pt x="366" y="895" on="1"/>
        <pt x="474" y="1045" on="1"/>
        <pt x="563" y="1024" on="1"/>
      </contour>
    </TTGlyph>
    <TTGlyph name="Atilde" xMin="2" yMin="-7" xMax="551" yMax="915">
      <component glyphName="A" x="0" y="0" flags="0x204"/>
      <component glyphName="tilde.cap" x="118" y="225" flags="0x4"/>
    </TTGlyph>
    <TTGlyph name="Atilde.flat" xMin="2" yMin="0" xMax="551" yMax="915">
      <component glyphName="tilde.cap" x="118" y="225" flags="0x4"/>
      <component glyphName="A.flat" x="0" y="0" flags="0x4"/>
    </TTGlyph>
    <TTGlyph name="B" xMin="49" yMin="0" xMax="492" yMax="725">
      <contour>
        <pt x="492" y="560" on="1"/>
        <pt x="492" y="525" on="0"/>
        <pt x="470" y="468" on="0"/>
        <pt x="432" y="422" on="0"/>
        <pt x="382" y="390" on="0"/>
        <pt x="355" y="381" on="1"/>
        <pt x="406" y="362" on="0"/>
        <pt x="470" y="282" on="0"/>
        <pt x="470" y="219" on="1"/>
        <pt x="470" y="168" on="0"/>
        <pt x="431" y="87" on="0"/>
        <pt x="360" y="30" on="0"/>
        <pt x="260" y="0" on="0"/>
        <pt x="198" y="0" on="1"/>
        <pt x="49" y="0" on="1"/>
        <pt x="156" y="725" on="1"/>
        <pt x="285" y="725" on="1"/>
        <pt x="389" y="725" on="0"/>
        <pt x="492" y="632" on="0"/>
      </contour>
      <contour>
        <pt x="417" y="554" on="1"/>
        <pt x="417" y="600" on="0"/>
        <pt x="353" y="661" on="0"/>
        <pt x="282" y="661" on="1"/>
        <pt x="221" y="661" on="1"/>
        <pt x="184" y="412" on="1"/>
        <pt x="248" y="412" on="1"/>
        <pt x="283" y="412" on="0"/>
        <pt x="345" y="432" on="0"/>
        <pt x="391" y="470" on="0"/>
        <pt x="417" y="522" on="0"/>
      </contour>
      <contour>
        <pt x="396" y="219" on="1"/>
        <pt x="396" y="279" on="0"/>
        <pt x="312" y="349" on="0"/>
        <pt x="237" y="349" on="1"/>
        <pt x="174" y="349" on="1"/>
        <pt x="131" y="65" on="1"/>
        <pt x="208" y="65" on="1"/>
        <pt x="294" y="65" on="0"/>
        <pt x="396" y="145" on="0"/>
      </contour>
    </TTGlyph>
    <TTGlyph name="C" xMin="65" yMin="-12" xMax="558" yMax="737">
      <contour>
        <pt x="538" y="604" on="1"/>
        <pt x="509" y="632" on="0"/>
        <pt x="438" y="669" on="0"/>
        <pt x="396" y="669" on="1"/>
        <pt x="341" y="669" on="0"/>
        <pt x="248" y="608" on="0"/>
        <pt x="180" y="505" on="0"/>
        <pt x="142" y="367" on="0"/>
        <pt x="142" y="290" on="1"/>
        <pt x="142" y="233" on="0"/>
        <pt x="167" y="146" on="0"/>
        <pt x="212" y="87" on="0"/>
        <pt x="273" y="56" on="0"/>
        <pt x="310" y="56" on="1"/>
        <pt x="389" y="56" on="0"/>
        <pt x="471" y="118" on="1"/>
        <pt x="471" y="42" on="1"/>
        <pt x="438" y="20" on="0"/>
        <pt x="354" y="-12" on="0"/>
        <pt x="303" y="-12" on="1"/>
        <pt x="251" y="-12" on="0"/>
        <pt x="163" y="28" on="0"/>
        <pt x="100" y="104" on="0"/>
        <pt x="65" y="214" on="0"/>
        <pt x="65" y="285" on="1"/>
        <pt x="65" y="377" on="0"/>
        <pt x="116" y="542" on="0"/>
        <pt x="205" y="665" on="0"/>
        <pt x="326" y="737" on="0"/>
        <pt x="397" y="737" on="1"/>
        <pt x="448" y="737" on="0"/>
        <pt x="529" y="704" on="0"/>
        <pt x="558" y="680" on="1"/>
      </contour>
    </TTGlyph>
    <TTGlyph name="Cacute" xMin="65" yMin="-12" xMax="568" yMax="942">
      <component glyphName="C" x="0" y="0" flags="0x204"/>
      <component glyphName="acute.cap" x="186" y="225" flags="0x4"/>
    </TTGlyph>
    <TTGlyph name="Ccaron" xMin="65" yMin="-12" xMax="558" yMax="937">
      <component glyphName="C" x="0" y="0" flags="0x204"/>
      <component glyphName="caron.cap" x="134" y="225" flags="0x4"/>
    </TTGlyph>
    <TTGlyph name="Ccedilla" xMin="65" yMin="-199" xMax="558" yMax="737">
      <component glyphName="C" x="0" y="0" flags="0x204"/>
      <component glyphName="cedilla.cap" x="81" y="-2" flags="0x4"/>
    </TTGlyph>
    <TTGlyph name="Cdotaccent" xMin="65" yMin="-12" xMax="558" yMax="892">
      <component glyphName="dotaccent.cap" x="134" y="225" flags="0x4"/>
      <component glyphName="C" x="0" y="0" flags="0x4"/>
    </TTGlyph>
    <TTGlyph name="D" xMin="49" yMin="0" xMax="580" yMax="725">
      <contour>
        <pt x="580" y="430" on="1"/>
        <pt x="580" y="332" on="0"/>
        <pt x="518" y="165" on="0"/>
        <pt x="460" y="107" on="1"/>
        <pt x="410" y="57" on="0"/>
        <pt x="275" y="0" on="0"/>
        <pt x="181" y="0" on="1"/>
        <pt x="49" y="0" on="1"/>
        <pt x="157" y="725" on="1"/>
        <pt x="293" y="725" on="1"/>
        <pt x="362" y="725" on="0"/>
        <pt x="468" y="684" on="0"/>
        <pt x="542" y="607" on="0"/>
        <pt x="580" y="498" on="0"/>
      </contour>
      <contour>
        <pt x="503" y="428" on="1"/>
        <pt x="503" y="540" on="0"/>
        <pt x="393" y="659" on="0"/>
        <pt x="287" y="659" on="1"/>
        <pt x="222" y="659" on="1"/>
        <pt x="133" y="65" on="1"/>
        <pt x="188" y="67" on="1"/>
        <pt x="262" y="67" on="0"/>
        <pt x="364" y="111" on="0"/>
        <pt x="403" y="149" on="1"/>
        <pt x="451" y="197" on="0"/>
        <pt x="503" y="340" on="0"/>
      </contour>
    </TTGlyph>
    <TTGlyph name="Dcaron" xMin="49" yMin="0" xMax="580" yMax="926">
      <component glyphName="caron.cap" x="87" y="214" flags="0x4"/>
      <component glyphName="D" x="0" y="0" flags="0x4"/>
    </TTGlyph>
    <TTGlyph name="Dcroat" xMin="38" yMin="0" xMax="589" yMax="725">
      <component glyphName="Eth" x="0" y="0" flags="0x204"/>
    </TTGlyph>
    <TTGlyph name="Dcroat.flat" xMin="32" yMin="0" xMax="589" yMax="725">
      <component glyphName="Eth.flat" x="0" y="0" flags="0x204"/>
    </TTGlyph>
    <TTGlyph name="E" xMin="49" yMin="0" xMax="486" yMax="725">
      <contour>
        <pt x="477" y="657" on="1"/>
        <pt x="221" y="657" on="1"/>
        <pt x="185" y="414" on="1"/>
        <pt x="385" y="414" on="1"/>
        <pt x="385" y="345" on="1"/>
        <pt x="175" y="345" on="1"/>
        <pt x="133" y="68" on="1"/>
        <pt x="399" y="68" on="1"/>
        <pt x="389" y="0" on="1"/>
        <pt x="49" y="0" on="1"/>
        <pt x="156" y="725" on="1"/>
        <pt x="486" y="725" on="1"/>
      </contour>
    </TTGlyph>
    <TTGlyph name="E.flat" xMin="49" yMin="0" xMax="486" yMax="725">
      <contour>
        <pt x="477" y="657" on="1"/>
        <pt x="221" y="657" on="1"/>
        <pt x="185" y="414" on="1"/>
        <pt x="390" y="414" on="1"/>
        <pt x="380" y="345" on="1"/>
        <pt x="175" y="345" on="1"/>
        <pt x="133" y="68" on="1"/>
        <pt x="399" y="68" on="1"/>
        <pt x="389" y="0" on="1"/>
        <pt x="49" y="0" on="1"/>
        <pt x="156" y="725" on="1"/>
        <pt x="486" y="725" on="1"/>
      </contour>
    </TTGlyph>
    <TTGlyph name="Eacute" xMin="49" yMin="0" xMax="492" yMax="931">
      <component glyphName="acute.cap" x="110" y="214" flags="0x4"/>
      <component glyphName="E" x="0" y="0" flags="0x4"/>
    </TTGlyph>
    <TTGlyph name="Eacute.flat" xMin="49" yMin="0" xMax="492" yMax="931">
      <component glyphName="E.flat" x="0" y="0" flags="0x204"/>
      <component glyphName="acute.cap" x="110" y="214" flags="0x4"/>
    </TTGlyph>
    <TTGlyph name="Ebreve" xMin="49" yMin="0" xMax="486" yMax="909">
      <component glyphName="breve.cap" x="55" y="214" flags="0x4"/>
      <component glyphName="E" x="0" y="0" flags="0x4"/>
    </TTGlyph>
    <TTGlyph name="Ebreve.flat" xMin="49" yMin="0" xMax="486" yMax="909">
      <component glyphName="breve.cap" x="55" y="214" flags="0x4"/>
      <component glyphName="E.flat" x="0" y="0" flags="0x4"/>
    </TTGlyph>
    <TTGlyph name="Ecaron" xMin="49" yMin="0" xMax="486" yMax="926">
      <component glyphName="caron.cap" x="59" y="214" flags="0x4"/>
      <component glyphName="E" x="0" y="0" flags="0x4"/>
    </TTGlyph>
    <TTGlyph name="Ecaron.flat" xMin="49" yMin="0" xMax="486" yMax="926">
      <component glyphName="E.flat" x="0" y="0" flags="0x204"/>
      <component glyphName="caron.cap" x="59" y="214" flags="0x4"/>
    </TTGlyph>
    <TTGlyph name="Ecircumflex" xMin="49" yMin="0" xMax="486" yMax="927">
      <component glyphName="E" x="0" y="0" flags="0x204"/>
      <component glyphName="circumflex.cap" x="57" y="214" flags="0x4"/>
    </TTGlyph>
    <TTGlyph name="Ecircumflex.flat" xMin="49" yMin="0" xMax="486" yMax="927">
      <component glyphName="E.flat" x="0" y="0" flags="0x204"/>
      <component glyphName="circumflex.cap" x="57" y="214" flags="0x4"/>
    </TTGlyph>
    <TTGlyph name="Edieresis" xMin="49" yMin="0" xMax="486" yMax="881">
      <component glyphName="dieresis.cap" x="58" y="214" flags="0x4"/>
      <component glyphName="E" x="0" y="0" flags="0x4"/>
    </TTGlyph>
    <TTGlyph name="Edieresis.flat" xMin="49" yMin="0" xMax="486" yMax="881">
      <component glyphName="E.flat" x="0" y="0" flags="0x204"/>
      <component glyphName="dieresis.cap" x="58" y="214" flags="0x4"/>
    </TTGlyph>
    <TTGlyph name="Edotaccent" xMin="49" yMin="0" xMax="486" yMax="881">
      <component glyphName="dotaccent.cap" x="58" y="214" flags="0x4"/>
      <component glyphName="E" x="0" y="0" flags="0x4"/>
    </TTGlyph>
    <TTGlyph name="Edotaccent.flat" xMin="49" yMin="0" xMax="486" yMax="881">
      <component glyphName="dotaccent.cap" x="58" y="214" flags="0x4"/>
      <component glyphName="E.flat" x="0" y="0" flags="0x4"/>
    </TTGlyph>
    <TTGlyph name="Egrave" xMin="49" yMin="0" xMax="486" yMax="932">
      <component glyphName="grave.cap" x="0" y="214" flags="0x4"/>
      <component glyphName="E" x="0" y="0" flags="0x4"/>
    </TTGlyph>
    <TTGlyph name="Egrave.flat" xMin="49" yMin="0" xMax="486" yMax="932">
      <component glyphName="grave.cap" x="0" y="214" flags="0x4"/>
      <component glyphName="E.flat" x="0" y="0" flags="0x4"/>
    </TTGlyph>
    <TTGlyph name="Emacron" xMin="49" yMin="0" xMax="486" yMax="868">
      <component glyphName="macron.cap" x="58" y="214" flags="0x4"/>
      <component glyphName="E" x="0" y="0" flags="0x4"/>
    </TTGlyph>
    <TTGlyph name="Emacron.flat" xMin="49" yMin="0" xMax="486" yMax="868">
      <component glyphName="E.flat" x="0" y="0" flags="0x204"/>
      <component glyphName="macron.cap" x="58" y="214" flags="0x4"/>
    </TTGlyph>
    <TTGlyph name="Eogonek" xMin="49" yMin="-181" xMax="486" yMax="725">
      <contour>
        <pt x="477" y="657" on="1"/>
        <pt x="221" y="657" on="1"/>
        <pt x="185" y="414" on="1"/>
        <pt x="385" y="414" on="1"/>
        <pt x="385" y="345" on="1"/>
        <pt x="175" y="345" on="1"/>
        <pt x="133" y="68" on="1"/>
        <pt x="399" y="68" on="1"/>
        <pt x="389" y="0" on="1"/>
        <pt x="368" y="0" on="1"/>
        <pt x="346" y="-23" on="1"/>
        <pt x="320" y="-52" on="0"/>
        <pt x="300" y="-86" on="0"/>
        <pt x="300" y="-101" on="1"/>
        <pt x="300" y="-129" on="0"/>
        <pt x="337" y="-129" on="1"/>
        <pt x="356" y="-129" on="0"/>
        <pt x="377" y="-123" on="1"/>
        <pt x="372" y="-168" on="1"/>
        <pt x="357" y="-174" on="0"/>
        <pt x="325" y="-181" on="0"/>
        <pt x="308" y="-181" on="1"/>
        <pt x="274" y="-181" on="0"/>
        <pt x="237" y="-150" on="0"/>
        <pt x="237" y="-120" on="1"/>
        <pt x="237" y="-95" on="0"/>
        <pt x="271" y="-40" on="0"/>
        <pt x="309" y="-2" on="1"/>
        <pt x="311" y="0" on="1"/>
        <pt x="49" y="0" on="1"/>
        <pt x="156" y="725" on="1"/>
        <pt x="486" y="725" on="1"/>
      </contour>
    </TTGlyph>
    <TTGlyph name="Eogonek.flat" xMin="49" yMin="-181" xMax="486" yMax="725">
      <contour>
        <pt x="477" y="657" on="1"/>
        <pt x="221" y="657" on="1"/>
        <pt x="185" y="414" on="1"/>
        <pt x="390" y="414" on="1"/>
        <pt x="380" y="345" on="1"/>
        <pt x="175" y="345" on="1"/>
        <pt x="133" y="68" on="1"/>
        <pt x="399" y="68" on="1"/>
        <pt x="389" y="0" on="1"/>
        <pt x="368" y="0" on="1"/>
        <pt x="346" y="-23" on="1"/>
        <pt x="320" y="-52" on="0"/>
        <pt x="300" y="-86" on="0"/>
        <pt x="300" y="-101" on="1"/>
        <pt x="300" y="-129" on="0"/>
        <pt x="337" y="-129" on="1"/>
        <pt x="356" y="-129" on="0"/>
        <pt x="377" y="-123" on="1"/>
        <pt x="372" y="-168" on="1"/>
        <pt x="357" y="-174" on="0"/>
        <pt x="325" y="-181" on="0"/>
        <pt x="308" y="-181" on="1"/>
        <pt x="274" y="-181" on="0"/>
        <pt x="237" y="-150" on="0"/>
        <pt x="237" y="-120" on="1"/>
        <pt x="237" y="-98" on="0"/>
        <pt x="264" y="-49" on="0"/>
        <pt x="295" y="-16" on="1"/>
        <pt x="311" y="0" on="1"/>
        <pt x="49" y="0" on="1"/>
        <pt x="156" y="725" on="1"/>
        <pt x="486" y="725" on="1"/>
      </contour>
    </TTGlyph>
    <TTGlyph name="Eth" xMin="38" yMin="0" xMax="589" yMax="725">
      <contour>
        <pt x="589" y="430" on="1"/>
        <pt x="589" y="332" on="0"/>
        <pt x="526" y="165" on="0"/>
        <pt x="469" y="107" on="1"/>
        <pt x="419" y="57" on="0"/>
        <pt x="284" y="0" on="0"/>
        <pt x="190" y="0" on="1"/>
        <pt x="57" y="0" on="1"/>
        <pt x="109" y="346" on="1"/>
        <pt x="38" y="346" on="1"/>
        <pt x="38" y="412" on="1"/>
        <pt x="119" y="412" on="1"/>
        <pt x="166" y="725" on="1"/>
        <pt x="301" y="725" on="1"/>
        <pt x="370" y="725" on="0"/>
        <pt x="477" y="684" on="0"/>
        <pt x="551" y="607" on="0"/>
        <pt x="589" y="498" on="0"/>
      </contour>
      <contour>
        <pt x="184" y="346" on="1"/>
        <pt x="142" y="65" on="1"/>
        <pt x="197" y="67" on="1"/>
        <pt x="271" y="67" on="0"/>
        <pt x="373" y="111" on="0"/>
        <pt x="412" y="149" on="1"/>
        <pt x="460" y="197" on="0"/>
        <pt x="512" y="340" on="0"/>
        <pt x="512" y="428" on="1"/>
        <pt x="512" y="540" on="0"/>
        <pt x="402" y="659" on="0"/>
        <pt x="296" y="659" on="1"/>
        <pt x="230" y="659" on="1"/>
        <pt x="193" y="412" on="1"/>
        <pt x="343" y="412" on="1"/>
        <pt x="332" y="346" on="1"/>
      </contour>
    </TTGlyph>
    <TTGlyph name="Eth.flat" xMin="32" yMin="0" xMax="589" yMax="725">
      <contour>
        <pt x="589" y="430" on="1"/>
        <pt x="589" y="332" on="0"/>
        <pt x="526" y="165" on="0"/>
        <pt x="469" y="107" on="1"/>
        <pt x="419" y="57" on="0"/>
        <pt x="284" y="0" on="0"/>
        <pt x="190" y="0" on="1"/>
        <pt x="57" y="0" on="1"/>
        <pt x="109" y="346" on="1"/>
        <pt x="32" y="346" on="1"/>
        <pt x="43" y="412" on="1"/>
        <pt x="119" y="412" on="1"/>
        <pt x="166" y="725" on="1"/>
        <pt x="301" y="725" on="1"/>
        <pt x="370" y="725" on="0"/>
        <pt x="477" y="684" on="0"/>
        <pt x="551" y="607" on="0"/>
        <pt x="589" y="498" on="0"/>
      </contour>
      <contour>
        <pt x="184" y="346" on="1"/>
        <pt x="142" y="65" on="1"/>
        <pt x="197" y="67" on="1"/>
        <pt x="271" y="67" on="0"/>
        <pt x="373" y="111" on="0"/>
        <pt x="412" y="149" on="1"/>
        <pt x="460" y="197" on="0"/>
        <pt x="512" y="340" on="0"/>
        <pt x="512" y="428" on="1"/>
        <pt x="512" y="540" on="0"/>
        <pt x="402" y="659" on="0"/>
        <pt x="296" y="659" on="1"/>
        <pt x="230" y="659" on="1"/>
        <pt x="193" y="412" on="1"/>
        <pt x="343" y="412" on="1"/>
        <pt x="332" y="346" on="1"/>
      </contour>
    </TTGlyph>
    <TTGlyph name="Euro" xMin="42" yMin="-12" xMax="582" yMax="729">
      <contour>
        <pt x="423" y="248" on="1"/>
        <pt x="198" y="248" on="1"/>
        <pt x="206" y="151" on="0"/>
        <pt x="286" y="51" on="0"/>
        <pt x="351" y="51" on="1"/>
        <pt x="386" y="51" on="0"/>
        <pt x="454" y="78" on="0"/>
        <pt x="496" y="110" on="1"/>
        <pt x="496" y="40" on="1"/>
        <pt x="466" y="18" on="0"/>
        <pt x="391" y="-12" on="0"/>
        <pt x="346" y="-12" on="1"/>
        <pt x="252" y="-12" on="0"/>
        <pt x="135" y="121" on="0"/>
        <pt x="127" y="248" on="1"/>
        <pt x="42" y="248" on="1"/>
        <pt x="42" y="307" on="1"/>
        <pt x="126" y="307" on="1"/>
        <pt x="129" y="368" on="0"/>
        <pt x="141" y="425" on="1"/>
        <pt x="63" y="425" on="1"/>
        <pt x="72" y="483" on="1"/>
        <pt x="158" y="483" on="1"/>
        <pt x="176" y="537" on="0"/>
        <pt x="231" y="627" on="0"/>
        <pt x="300" y="692" on="0"/>
        <pt x="383" y="729" on="0"/>
        <pt x="430" y="729" on="1"/>
        <pt x="479" y="729" on="0"/>
        <pt x="554" y="699" on="0"/>
        <pt x="582" y="676" on="1"/>
        <pt x="563" y="608" on="1"/>
        <pt x="534" y="635" on="0"/>
        <pt x="468" y="667" on="0"/>
        <pt x="427" y="667" on="1"/>
        <pt x="395" y="667" on="0"/>
        <pt x="337" y="640" on="0"/>
        <pt x="287" y="592" on="0"/>
        <pt x="245" y="524" on="0"/>
        <pt x="230" y="483" on="1"/>
        <pt x="453" y="483" on="1"/>
        <pt x="453" y="425" on="1"/>
        <pt x="213" y="425" on="1"/>
        <pt x="206" y="397" on="0"/>
        <pt x="199" y="338" on="0"/>
        <pt x="197" y="307" on="1"/>
        <pt x="432" y="307" on="1"/>
      </contour>
    </TTGlyph>
    <TTGlyph name="Euro.flat" xMin="37" yMin="-12" xMax="582" yMax="729">
      <contour>
        <pt x="423" y="248" on="1"/>
        <pt x="198" y="248" on="1"/>
        <pt x="206" y="151" on="0"/>
        <pt x="286" y="51" on="0"/>
        <pt x="351" y="51" on="1"/>
        <pt x="386" y="51" on="0"/>
        <pt x="454" y="78" on="0"/>
        <pt x="496" y="110" on="1"/>
        <pt x="496" y="40" on="1"/>
        <pt x="466" y="18" on="0"/>
        <pt x="391" y="-12" on="0"/>
        <pt x="346" y="-12" on="1"/>
        <pt x="252" y="-12" on="0"/>
        <pt x="135" y="121" on="0"/>
        <pt x="127" y="248" on="1"/>
        <pt x="37" y="248" on="1"/>
        <pt x="46" y="307" on="1"/>
        <pt x="126" y="307" on="1"/>
        <pt x="129" y="368" on="0"/>
        <pt x="141" y="425" on="1"/>
        <pt x="63" y="425" on="1"/>
        <pt x="72" y="483" on="1"/>
        <pt x="158" y="483" on="1"/>
        <pt x="176" y="537" on="0"/>
        <pt x="231" y="627" on="0"/>
        <pt x="300" y="692" on="0"/>
        <pt x="383" y="729" on="0"/>
        <pt x="430" y="729" on="1"/>
        <pt x="479" y="729" on="0"/>
        <pt x="554" y="699" on="0"/>
        <pt x="582" y="676" on="1"/>
        <pt x="563" y="608" on="1"/>
        <pt x="534" y="635" on="0"/>
        <pt x="468" y="667" on="0"/>
        <pt x="427" y="667" on="1"/>
        <pt x="395" y="667" on="0"/>
        <pt x="337" y="640" on="0"/>
        <pt x="287" y="592" on="0"/>
        <pt x="245" y="524" on="0"/>
        <pt x="230" y="483" on="1"/>
        <pt x="458" y="483" on="1"/>
        <pt x="449" y="425" on="1"/>
        <pt x="213" y="425" on="1"/>
        <pt x="206" y="397" on="0"/>
        <pt x="199" y="338" on="0"/>
        <pt x="197" y="307" on="1"/>
        <pt x="432" y="307" on="1"/>
      </contour>
    </TTGlyph>
    <TTGlyph name="Euro.tab" xMin="44" yMin="-11" xMax="553" yMax="729">
      <contour>
        <pt x="200" y="424" on="1"/>
        <pt x="187" y="366" on="0"/>
        <pt x="186" y="307" on="1"/>
        <pt x="411" y="307" on="1"/>
        <pt x="401" y="249" on="1"/>
        <pt x="187" y="249" on="1"/>
        <pt x="194" y="149" on="0"/>
        <pt x="270" y="51" on="0"/>
        <pt x="330" y="51" on="1"/>
        <pt x="397" y="51" on="0"/>
        <pt x="470" y="109" on="1"/>
        <pt x="470" y="40" on="1"/>
        <pt x="441" y="17" on="0"/>
        <pt x="366" y="-11" on="0"/>
        <pt x="324" y="-11" on="1"/>
        <pt x="236" y="-11" on="0"/>
        <pt x="125" y="121" on="0"/>
        <pt x="118" y="249" on="1"/>
        <pt x="44" y="249" on="1"/>
        <pt x="44" y="307" on="1"/>
        <pt x="117" y="307" on="1"/>
        <pt x="119" y="338" on="0"/>
        <pt x="126" y="396" on="0"/>
        <pt x="131" y="424" on="1"/>
        <pt x="64" y="424" on="1"/>
        <pt x="73" y="482" on="1"/>
        <pt x="146" y="482" on="1"/>
        <pt x="163" y="537" on="0"/>
        <pt x="215" y="628" on="0"/>
        <pt x="281" y="693" on="0"/>
        <pt x="360" y="729" on="0"/>
        <pt x="405" y="729" on="1"/>
        <pt x="450" y="729" on="0"/>
        <pt x="525" y="699" on="0"/>
        <pt x="553" y="674" on="1"/>
        <pt x="532" y="607" on="1"/>
        <pt x="503" y="635" on="0"/>
        <pt x="441" y="668" on="0"/>
        <pt x="403" y="668" on="1"/>
        <pt x="373" y="668" on="0"/>
        <pt x="317" y="641" on="0"/>
        <pt x="269" y="592" on="0"/>
        <pt x="230" y="524" on="0"/>
        <pt x="216" y="482" on="1"/>
        <pt x="432" y="482" on="1"/>
        <pt x="432" y="424" on="1"/>
      </contour>
    </TTGlyph>
    <TTGlyph name="Euro.tab_flat" xMin="39" yMin="-11" xMax="553" yMax="730">
      <contour>
        <pt x="200" y="424" on="1"/>
        <pt x="187" y="366" on="0"/>
        <pt x="186" y="307" on="1"/>
        <pt x="411" y="307" on="1"/>
        <pt x="401" y="249" on="1"/>
        <pt x="187" y="249" on="1"/>
        <pt x="194" y="149" on="0"/>
        <pt x="270" y="51" on="0"/>
        <pt x="330" y="51" on="1"/>
        <pt x="397" y="51" on="0"/>
        <pt x="470" y="109" on="1"/>
        <pt x="470" y="40" on="1"/>
        <pt x="441" y="17" on="0"/>
        <pt x="366" y="-11" on="0"/>
        <pt x="324" y="-11" on="1"/>
        <pt x="236" y="-11" on="0"/>
        <pt x="125" y="121" on="0"/>
        <pt x="118" y="249" on="1"/>
        <pt x="39" y="249" on="1"/>
        <pt x="47" y="307" on="1"/>
        <pt x="117" y="307" on="1"/>
        <pt x="119" y="338" on="0"/>
        <pt x="126" y="396" on="0"/>
        <pt x="131" y="424" on="1"/>
        <pt x="64" y="424" on="1"/>
        <pt x="73" y="482" on="1"/>
        <pt x="146" y="482" on="1"/>
        <pt x="163" y="537" on="0"/>
        <pt x="215" y="628" on="0"/>
        <pt x="281" y="694" on="0"/>
        <pt x="360" y="730" on="0"/>
        <pt x="405" y="730" on="1"/>
        <pt x="450" y="730" on="0"/>
        <pt x="525" y="699" on="0"/>
        <pt x="553" y="674" on="1"/>
        <pt x="532" y="608" on="1"/>
        <pt x="503" y="636" on="0"/>
        <pt x="441" y="668" on="0"/>
        <pt x="403" y="668" on="1"/>
        <pt x="373" y="668" on="0"/>
        <pt x="317" y="641" on="0"/>
        <pt x="269" y="592" on="0"/>
        <pt x="230" y="524" on="0"/>
        <pt x="216" y="482" on="1"/>
        <pt x="436" y="482" on="1"/>
        <pt x="428" y="424" on="1"/>
      </contour>
    </TTGlyph>
    <TTGlyph name="F" xMin="49" yMin="0" xMax="478" yMax="725">
      <contour>
        <pt x="468" y="657" on="1"/>
        <pt x="221" y="657" on="1"/>
        <pt x="183" y="402" on="1"/>
        <pt x="377" y="402" on="1"/>
        <pt x="377" y="334" on="1"/>
        <pt x="173" y="334" on="1"/>
        <pt x="123" y="0" on="1"/>
        <pt x="49" y="0" on="1"/>
        <pt x="156" y="725" on="1"/>
        <pt x="478" y="725" on="1"/>
      </contour>
    </TTGlyph>
    <TTGlyph name="F.flat" xMin="49" yMin="0" xMax="478" yMax="725">
      <contour>
        <pt x="468" y="657" on="1"/>
        <pt x="221" y="657" on="1"/>
        <pt x="183" y="402" on="1"/>
        <pt x="382" y="402" on="1"/>
        <pt x="371" y="334" on="1"/>
        <pt x="173" y="334" on="1"/>
        <pt x="123" y="0" on="1"/>
        <pt x="49" y="0" on="1"/>
        <pt x="156" y="725" on="1"/>
        <pt x="478" y="725" on="1"/>
      </contour>
    </TTGlyph>
    <TTGlyph name="G" xMin="65" yMin="-12" xMax="576" yMax="737">
      <contour>
        <pt x="504" y="51" on="1"/>
        <pt x="465" y="25" on="0"/>
        <pt x="373" y="-12" on="0"/>
        <pt x="314" y="-12" on="1"/>
        <pt x="258" y="-12" on="0"/>
        <pt x="166" y="29" on="0"/>
        <pt x="101" y="106" on="0"/>
        <pt x="65" y="216" on="0"/>
        <pt x="65" y="285" on="1"/>
        <pt x="65" y="377" on="0"/>
        <pt x="116" y="542" on="0"/>
        <pt x="206" y="665" on="0"/>
        <pt x="330" y="737" on="0"/>
        <pt x="402" y="737" on="1"/>
        <pt x="458" y="737" on="0"/>
        <pt x="544" y="703" on="0"/>
        <pt x="576" y="678" on="1"/>
        <pt x="555" y="602" on="1"/>
        <pt x="523" y="632" on="0"/>
        <pt x="449" y="669" on="0"/>
        <pt x="401" y="669" on="1"/>
        <pt x="346" y="669" on="0"/>
        <pt x="251" y="609" on="0"/>
        <pt x="181" y="505" on="0"/>
        <pt x="141" y="368" on="0"/>
        <pt x="141" y="291" on="1"/>
        <pt x="141" y="234" on="0"/>
        <pt x="168" y="146" on="0"/>
        <pt x="215" y="86" on="0"/>
        <pt x="280" y="55" on="0"/>
        <pt x="319" y="55" on="1"/>
        <pt x="357" y="55" on="0"/>
        <pt x="415" y="75" on="0"/>
        <pt x="437" y="89" on="1"/>
        <pt x="471" y="317" on="1"/>
        <pt x="332" y="317" on="1"/>
        <pt x="332" y="385" on="1"/>
        <pt x="554" y="385" on="1"/>
      </contour>
    </TTGlyph>
    <TTGlyph name="G.flat" xMin="65" yMin="-12" xMax="576" yMax="737">
      <contour>
        <pt x="504" y="51" on="1"/>
        <pt x="465" y="25" on="0"/>
        <pt x="373" y="-12" on="0"/>
        <pt x="314" y="-12" on="1"/>
        <pt x="258" y="-12" on="0"/>
        <pt x="166" y="29" on="0"/>
        <pt x="101" y="106" on="0"/>
        <pt x="65" y="216" on="0"/>
        <pt x="65" y="285" on="1"/>
        <pt x="65" y="377" on="0"/>
        <pt x="116" y="542" on="0"/>
        <pt x="206" y="665" on="0"/>
        <pt x="330" y="737" on="0"/>
        <pt x="402" y="737" on="1"/>
        <pt x="458" y="737" on="0"/>
        <pt x="544" y="703" on="0"/>
        <pt x="576" y="678" on="1"/>
        <pt x="555" y="602" on="1"/>
        <pt x="523" y="632" on="0"/>
        <pt x="449" y="669" on="0"/>
        <pt x="401" y="669" on="1"/>
        <pt x="346" y="669" on="0"/>
        <pt x="251" y="609" on="0"/>
        <pt x="181" y="505" on="0"/>
        <pt x="141" y="368" on="0"/>
        <pt x="141" y="291" on="1"/>
        <pt x="141" y="234" on="0"/>
        <pt x="168" y="146" on="0"/>
        <pt x="215" y="86" on="0"/>
        <pt x="280" y="55" on="0"/>
        <pt x="319" y="55" on="1"/>
        <pt x="357" y="55" on="0"/>
        <pt x="415" y="75" on="0"/>
        <pt x="437" y="89" on="1"/>
        <pt x="471" y="317" on="1"/>
        <pt x="326" y="317" on="1"/>
        <pt x="337" y="385" on="1"/>
        <pt x="554" y="385" on="1"/>
      </contour>
    </TTGlyph>
    <TTGlyph name="Gbreve" xMin="65" yMin="-12" xMax="576" yMax="920">
      <component glyphName="breve.cap" x="132" y="225" flags="0x4"/>
      <component glyphName="G" x="0" y="0" flags="0x4"/>
    </TTGlyph>
    <TTGlyph name="Gbreve.flat" xMin="65" yMin="-12" xMax="576" yMax="920">
      <component glyphName="breve.cap" x="132" y="225" flags="0x4"/>
      <component glyphName="G.flat" x="0" y="0" flags="0x4"/>
    </TTGlyph>
    <TTGlyph name="Gcommaaccent" xMin="65" yMin="-246" xMax="576" yMax="737">
      <component glyphName="G" x="0" y="0" flags="0x204"/>
      <component glyphName="commaaccent.cap" x="88" y="-5" flags="0x4"/>
    </TTGlyph>
    <TTGlyph name="Gcommaaccent.flat" xMin="65" yMin="-246" xMax="576" yMax="737">
      <component glyphName="G.flat" x="0" y="0" flags="0x204"/>
      <component glyphName="commaaccent.cap" x="88" y="-5" flags="0x4"/>
    </TTGlyph>
    <TTGlyph name="Gdotaccent" xMin="65" yMin="-12" xMax="576" yMax="892">
      <component glyphName="dotaccent.cap" x="136" y="225" flags="0x4"/>
      <component glyphName="G" x="0" y="0" flags="0x4"/>
    </TTGlyph>
    <TTGlyph name="Gdotaccent.flat" xMin="65" yMin="-12" xMax="576" yMax="892">
      <component glyphName="dotaccent.cap" x="136" y="225" flags="0x4"/>
      <component glyphName="G.flat" x="0" y="0" flags="0x4"/>
    </TTGlyph>
    <TTGlyph name="H" xMin="49" yMin="0" xMax="611" yMax="725">
      <contour>
        <pt x="502" y="0" on="1"/>
        <pt x="428" y="0" on="1"/>
        <pt x="479" y="345" on="1"/>
        <pt x="175" y="345" on="1"/>
        <pt x="123" y="0" on="1"/>
        <pt x="49" y="0" on="1"/>
        <pt x="157" y="725" on="1"/>
        <pt x="231" y="725" on="1"/>
        <pt x="185" y="413" on="1"/>
        <pt x="490" y="413" on="1"/>
        <pt x="536" y="725" on="1"/>
        <pt x="611" y="725" on="1"/>
      </contour>
    </TTGlyph>
    <TTGlyph name="Hbar" xMin="59" yMin="0" xMax="682" yMax="725">
      <contour>
        <pt x="594" y="548" on="1"/>
        <pt x="512" y="0" on="1"/>
        <pt x="438" y="0" on="1"/>
        <pt x="489" y="341" on="1"/>
        <pt x="184" y="341" on="1"/>
        <pt x="133" y="0" on="1"/>
        <pt x="59" y="0" on="1"/>
        <pt x="141" y="548" on="1"/>
        <pt x="69" y="548" on="1"/>
        <pt x="68" y="611" on="1"/>
        <pt x="150" y="611" on="1"/>
        <pt x="167" y="725" on="1"/>
        <pt x="241" y="725" on="1"/>
        <pt x="224" y="611" on="1"/>
        <pt x="529" y="611" on="1"/>
        <pt x="546" y="725" on="1"/>
        <pt x="621" y="725" on="1"/>
        <pt x="604" y="611" on="1"/>
        <pt x="682" y="611" on="1"/>
        <pt x="673" y="548" on="1"/>
      </contour>
      <contour>
        <pt x="499" y="408" on="1"/>
        <pt x="520" y="549" on="1"/>
        <pt x="215" y="549" on="1"/>
        <pt x="194" y="408" on="1"/>
      </contour>
    </TTGlyph>
    <TTGlyph name="Hbar.flat" xMin="59" yMin="0" xMax="682" yMax="725">
      <contour>
        <pt x="594" y="548" on="1"/>
        <pt x="512" y="0" on="1"/>
        <pt x="438" y="0" on="1"/>
        <pt x="489" y="341" on="1"/>
        <pt x="184" y="341" on="1"/>
        <pt x="133" y="0" on="1"/>
        <pt x="59" y="0" on="1"/>
        <pt x="141" y="548" on="1"/>
        <pt x="63" y="548" on="1"/>
        <pt x="73" y="611" on="1"/>
        <pt x="150" y="611" on="1"/>
        <pt x="167" y="725" on="1"/>
        <pt x="241" y="725" on="1"/>
        <pt x="224" y="611" on="1"/>
        <pt x="529" y="611" on="1"/>
        <pt x="546" y="725" on="1"/>
        <pt x="621" y="725" on="1"/>
        <pt x="604" y="611" on="1"/>
        <pt x="682" y="611" on="1"/>
        <pt x="673" y="548" on="1"/>
      </contour>
      <contour>
        <pt x="499" y="408" on="1"/>
        <pt x="520" y="549" on="1"/>
        <pt x="215" y="549" on="1"/>
        <pt x="194" y="408" on="1"/>
      </contour>
    </TTGlyph>
    <TTGlyph name="I" xMin="55" yMin="0" xMax="238" yMax="725">
      <contour>
        <pt x="238" y="725" on="1"/>
        <pt x="238" y="725" on="0"/>
        <pt x="228" y="662" on="0"/>
        <pt x="213" y="560" on="0"/>
        <pt x="194" y="430" on="0"/>
        <pt x="184" y="362" on="1"/>
        <pt x="130" y="0" on="1"/>
        <pt x="55" y="0" on="1"/>
        <pt x="109" y="362" on="1"/>
        <pt x="119" y="430" on="0"/>
        <pt x="138" y="560" on="0"/>
        <pt x="146" y="611" on="1"/>
        <pt x="155" y="671" on="0"/>
        <pt x="163" y="725" on="1"/>
        <pt x="238" y="725" on="1"/>
      </contour>
    </TTGlyph>
    <TTGlyph name="Iacute" xMin="55" yMin="0" xMax="373" yMax="931">
      <component glyphName="I" x="0" y="0" flags="0x204"/>
      <component glyphName="acute.cap" x="-9" y="214" flags="0x4"/>
    </TTGlyph>
    <TTGlyph name="Ibreve" xMin="55" yMin="0" xMax="347" yMax="909">
      <component glyphName="I" x="0" y="0" flags="0x204"/>
      <component glyphName="breve.cap" x="-66" y="214" flags="0x4"/>
    </TTGlyph>
    <TTGlyph name="Icircumflex" xMin="55" yMin="0" xMax="333" yMax="927">
      <component glyphName="I" x="0" y="0" flags="0x204"/>
      <component glyphName="circumflex.cap" x="-63" y="214" flags="0x4"/>
    </TTGlyph>
    <TTGlyph name="Idieresis" xMin="55" yMin="0" xMax="346" yMax="881">
      <component glyphName="I" x="0" y="0" flags="0x204"/>
      <component glyphName="dieresis.cap" x="-62" y="214" flags="0x4"/>
    </TTGlyph>
    <TTGlyph name="Idotaccent" xMin="55" yMin="0" xMax="267" yMax="881">
      <component glyphName="I" x="0" y="0" flags="0x204"/>
      <component glyphName="dotaccent.cap" x="-62" y="214" flags="0x4"/>
    </TTGlyph>
    <TTGlyph name="Igrave" xMin="55" yMin="0" xMax="238" yMax="932">
      <component glyphName="I" x="0" y="0" flags="0x204"/>
      <component glyphName="grave.cap" x="-120" y="214" flags="0x4"/>
    </TTGlyph>
    <TTGlyph name="Imacron" xMin="55" yMin="0" xMax="348" yMax="868">
      <component glyphName="I" x="0" y="0" flags="0x204"/>
      <component glyphName="macron.cap" x="-62" y="214" flags="0x4"/>
    </TTGlyph>
    <TTGlyph name="Iogonek" xMin="-9" yMin="-181" xMax="238" yMax="725">
      <contour>
        <pt x="238" y="725" on="1"/>
        <pt x="238" y="725" on="0"/>
        <pt x="228" y="662" on="0"/>
        <pt x="213" y="560" on="0"/>
        <pt x="194" y="430" on="0"/>
        <pt x="184" y="362" on="1"/>
        <pt x="130" y="0" on="1"/>
        <pt x="122" y="0" on="1"/>
        <pt x="100" y="-23" on="1"/>
        <pt x="74" y="-52" on="0"/>
        <pt x="54" y="-86" on="0"/>
        <pt x="54" y="-101" on="1"/>
        <pt x="54" y="-129" on="0"/>
        <pt x="91" y="-129" on="1"/>
        <pt x="110" y="-129" on="0"/>
        <pt x="131" y="-123" on="1"/>
        <pt x="126" y="-168" on="1"/>
        <pt x="111" y="-174" on="0"/>
        <pt x="79" y="-181" on="0"/>
        <pt x="62" y="-181" on="1"/>
        <pt x="28" y="-181" on="0"/>
        <pt x="-9" y="-150" on="0"/>
        <pt x="-9" y="-120" on="1"/>
        <pt x="-9" y="-95" on="0"/>
        <pt x="25" y="-40" on="0"/>
        <pt x="63" y="-2" on="1"/>
        <pt x="65" y="0" on="1"/>
        <pt x="55" y="0" on="1"/>
        <pt x="109" y="362" on="1"/>
        <pt x="119" y="430" on="0"/>
        <pt x="138" y="560" on="0"/>
        <pt x="146" y="611" on="1"/>
        <pt x="155" y="671" on="0"/>
        <pt x="163" y="725" on="1"/>
        <pt x="238" y="725" on="1"/>
      </contour>
    </TTGlyph>
    <TTGlyph name="J" xMin="4" yMin="-7" xMax="334" yMax="725">
      <contour>
        <pt x="250" y="164" on="1"/>
        <pt x="236" y="74" on="0"/>
        <pt x="144" y="-7" on="0"/>
        <pt x="72" y="-7" on="1"/>
        <pt x="52" y="-7" on="0"/>
        <pt x="17" y="-2" on="0"/>
        <pt x="4" y="2" on="1"/>
        <pt x="4" y="72" on="1"/>
        <pt x="37" y="61" on="0"/>
        <pt x="71" y="61" on="1"/>
        <pt x="113" y="61" on="0"/>
        <pt x="167" y="110" on="0"/>
        <pt x="176" y="169" on="1"/>
        <pt x="259" y="725" on="1"/>
        <pt x="334" y="725" on="1"/>
      </contour>
    </TTGlyph>
    <TTGlyph name="K" xMin="48" yMin="-7" xMax="581" yMax="725">
      <contour>
        <pt x="254" y="380" on="1"/>
        <pt x="487" y="10" on="1"/>
        <pt x="412" y="-7" on="1"/>
        <pt x="178" y="370" on="1"/>
        <pt x="123" y="0" on="1"/>
        <pt x="48" y="0" on="1"/>
        <pt x="102" y="362" on="1"/>
        <pt x="112" y="430" on="0"/>
        <pt x="131" y="560" on="0"/>
        <pt x="139" y="611" on="1"/>
        <pt x="148" y="671" on="0"/>
        <pt x="156" y="725" on="1"/>
        <pt x="231" y="725" on="1"/>
        <pt x="181" y="393" on="1"/>
        <pt x="489" y="725" on="1"/>
        <pt x="581" y="725" on="1"/>
      </contour>
    </TTGlyph>
    <TTGlyph name="K.flat" xMin="48" yMin="0" xMax="581" yMax="725">
      <contour>
        <pt x="254" y="380" on="1"/>
        <pt x="492" y="0" on="1"/>
        <pt x="407" y="0" on="1"/>
        <pt x="178" y="370" on="1"/>
        <pt x="123" y="0" on="1"/>
        <pt x="48" y="0" on="1"/>
        <pt x="102" y="362" on="1"/>
        <pt x="112" y="430" on="0"/>
        <pt x="131" y="560" on="0"/>
        <pt x="139" y="611" on="1"/>
        <pt x="148" y="671" on="0"/>
        <pt x="156" y="725" on="1"/>
        <pt x="231" y="725" on="1"/>
        <pt x="181" y="393" on="1"/>
        <pt x="489" y="725" on="1"/>
        <pt x="581" y="725" on="1"/>
      </contour>
    </TTGlyph>
    <TTGlyph name="Kcommaaccent" xMin="48" yMin="-236" xMax="581" yMax="725">
      <component glyphName="K" x="0" y="0" flags="0x204"/>
      <component glyphName="commaaccent.cap" x="50" y="5" flags="0x4"/>
    </TTGlyph>
    <TTGlyph name="Kcommaaccent.flat" xMin="48" yMin="-236" xMax="581" yMax="725">
      <component glyphName="K.flat" x="0" y="0" flags="0x204"/>
      <component glyphName="commaaccent.cap" x="49" y="5" flags="0x4"/>
    </TTGlyph>
    <TTGlyph name="L" xMin="49" yMin="0" xMax="368" yMax="725">
      <contour>
        <pt x="49" y="0" on="1"/>
        <pt x="157" y="725" on="1"/>
        <pt x="231" y="725" on="1"/>
        <pt x="133" y="69" on="1"/>
        <pt x="368" y="69" on="1"/>
        <pt x="368" y="0" on="1"/>
      </contour>
    </TTGlyph>
    <TTGlyph name="L.flat" xMin="49" yMin="0" xMax="373" yMax="725">
      <contour>
        <pt x="49" y="0" on="1"/>
        <pt x="157" y="725" on="1"/>
        <pt x="231" y="725" on="1"/>
        <pt x="133" y="69" on="1"/>
        <pt x="373" y="69" on="1"/>
        <pt x="363" y="0" on="1"/>
      </contour>
    </TTGlyph>
    <TTGlyph name="Lacute" xMin="49" yMin="0" xMax="374" yMax="930">
      <component glyphName="acute.cap" x="-8" y="213" flags="0x4"/>
      <component glyphName="L" x="0" y="0" flags="0x4"/>
    </TTGlyph>
    <TTGlyph name="Lacute.flat" xMin="49" yMin="0" xMax="374" yMax="930">
      <component glyphName="acute.cap" x="-8" y="213" flags="0x4"/>
      <component glyphName="L.flat" x="0" y="0" flags="0x4"/>
    </TTGlyph>
    <TTGlyph name="Lcaron" xMin="49" yMin="0" xMax="381" yMax="730">
      <component glyphName="L" x="0" y="0" flags="0x204"/>
      <component glyphName="caron.alt.cap" x="55" y="-23" flags="0x4"/>
    </TTGlyph>
    <TTGlyph name="Lcaron.flat" xMin="49" yMin="0" xMax="381" yMax="730">
      <component glyphName="L.flat" x="0" y="0" flags="0x204"/>
      <component glyphName="caron.alt.cap" x="55" y="-23" flags="0x4"/>
    </TTGlyph>
    <TTGlyph name="Lcommaaccent" xMin="49" yMin="-241" xMax="368" yMax="725">
      <component glyphName="L" x="0" y="0" flags="0x204"/>
      <component glyphName="commaaccent.cap" x="4" y="0" flags="0x4"/>
    </TTGlyph>
    <TTGlyph name="Lcommaaccent.flat" xMin="49" yMin="-241" xMax="373" yMax="725">
      <component glyphName="L.flat" x="0" y="0" flags="0x204"/>
      <component glyphName="commaaccent.cap" x="4" y="0" flags="0x4"/>
    </TTGlyph>
    <TTGlyph name="Ldot" xMin="49" yMin="0" xMax="396" yMax="725">
      <contour>
        <pt x="300" y="326" on="1"/>
        <pt x="315" y="419" on="1"/>
        <pt x="396" y="419" on="1"/>
        <pt x="382" y="326" on="1"/>
      </contour>
      <contour>
        <pt x="49" y="0" on="1"/>
        <pt x="157" y="725" on="1"/>
        <pt x="231" y="725" on="1"/>
        <pt x="133" y="69" on="1"/>
        <pt x="368" y="69" on="1"/>
        <pt x="368" y="0" on="1"/>
      </contour>
    </TTGlyph>
    <TTGlyph name="Ldot.flat" xMin="49" yMin="0" xMax="396" yMax="725">
      <contour>
        <pt x="300" y="326" on="1"/>
        <pt x="315" y="419" on="1"/>
        <pt x="396" y="419" on="1"/>
        <pt x="382" y="326" on="1"/>
      </contour>
      <contour>
        <pt x="49" y="0" on="1"/>
        <pt x="157" y="725" on="1"/>
        <pt x="231" y="725" on="1"/>
        <pt x="133" y="69" on="1"/>
        <pt x="373" y="69" on="1"/>
        <pt x="363" y="0" on="1"/>
      </contour>
    </TTGlyph>
    <TTGlyph name="Lslash" xMin="34" yMin="0" xMax="383" yMax="725">
      <contour>
        <pt x="63" y="0" on="1"/>
        <pt x="106" y="290" on="1"/>
        <pt x="34" y="252" on="1"/>
        <pt x="34" y="321" on="1"/>
        <pt x="117" y="364" on="1"/>
        <pt x="171" y="725" on="1"/>
        <pt x="246" y="725" on="1"/>
        <pt x="198" y="405" on="1"/>
        <pt x="348" y="482" on="1"/>
        <pt x="336" y="406" on="1"/>
        <pt x="187" y="330" on="1"/>
        <pt x="147" y="68" on="1"/>
        <pt x="383" y="68" on="1"/>
        <pt x="383" y="0" on="1"/>
      </contour>
    </TTGlyph>
    <TTGlyph name="Lslash.flat" xMin="28" yMin="0" xMax="386" yMax="725">
      <contour>
        <pt x="63" y="0" on="1"/>
        <pt x="106" y="290" on="1"/>
        <pt x="28" y="249" on="1"/>
        <pt x="39" y="324" on="1"/>
        <pt x="117" y="364" on="1"/>
        <pt x="171" y="725" on="1"/>
        <pt x="246" y="725" on="1"/>
        <pt x="198" y="405" on="1"/>
        <pt x="348" y="482" on="1"/>
        <pt x="336" y="406" on="1"/>
        <pt x="187" y="330" on="1"/>
        <pt x="147" y="68" on="1"/>
        <pt x="386" y="68" on="1"/>
        <pt x="379" y="0" on="1"/>
      </contour>
    </TTGlyph>
    <TTGlyph name="M" xMin="32" yMin="-4" xMax="772" yMax="725">
      <contour>
        <pt x="711" y="0" on="1"/>
        <pt x="638" y="0" on="1"/>
        <pt x="694" y="607" on="1"/>
        <pt x="399" y="-4" on="1"/>
        <pt x="342" y="-4" on="1"/>
        <pt x="231" y="606" on="1"/>
        <pt x="102" y="0" on="1"/>
        <pt x="32" y="0" on="1"/>
        <pt x="190" y="725" on="1"/>
        <pt x="280" y="725" on="1"/>
        <pt x="388" y="108" on="1"/>
        <pt x="680" y="725" on="1"/>
        <pt x="772" y="725" on="1"/>
      </contour>
    </TTGlyph>
    <TTGlyph name="M.alt" xMin="49" yMin="-4" xMax="785" yMax="725">
      <contour>
        <pt x="606" y="0" on="1"/>
        <pt x="696" y="601" on="1"/>
        <pt x="390" y="-4" on="1"/>
        <pt x="331" y="-4" on="1"/>
        <pt x="206" y="601" on="1"/>
        <pt x="116" y="0" on="1"/>
        <pt x="49" y="0" on="1"/>
        <pt x="157" y="725" on="1"/>
        <pt x="249" y="725" on="1"/>
        <pt x="376" y="100" on="1"/>
        <pt x="690" y="725" on="1"/>
        <pt x="785" y="725" on="1"/>
        <pt x="677" y="0" on="1"/>
      </contour>
    </TTGlyph>
    <TTGlyph name="N" xMin="48" yMin="0" xMax="611" yMax="725">
      <contour>
        <pt x="611" y="725" on="1"/>
        <pt x="611" y="725" on="0"/>
        <pt x="601" y="662" on="0"/>
        <pt x="586" y="560" on="0"/>
        <pt x="566" y="430" on="0"/>
        <pt x="556" y="362" on="1"/>
        <pt x="502" y="0" on="1"/>
        <pt x="447" y="0" on="1"/>
        <pt x="205" y="600" on="1"/>
        <pt x="117" y="0" on="1"/>
        <pt x="48" y="0" on="1"/>
        <pt x="102" y="362" on="1"/>
        <pt x="112" y="430" on="0"/>
        <pt x="131" y="560" on="0"/>
        <pt x="139" y="611" on="1"/>
        <pt x="148" y="671" on="0"/>
        <pt x="156" y="725" on="1"/>
        <pt x="229" y="725" on="1"/>
        <pt x="458" y="152" on="1"/>
        <pt x="542" y="725" on="1"/>
        <pt x="611" y="725" on="1"/>
      </contour>
    </TTGlyph>
    <TTGlyph name="Nacute" xMin="48" yMin="0" xMax="611" yMax="925">
      <component glyphName="acute.cap" x="173" y="208" flags="0x4"/>
      <component glyphName="N" x="0" y="0" flags="0x4"/>
    </TTGlyph>
    <TTGlyph name="Ncaron" xMin="48" yMin="0" xMax="611" yMax="920">
      <component glyphName="caron.cap" x="120" y="208" flags="0x4"/>
      <component glyphName="N" x="0" y="0" flags="0x4"/>
    </TTGlyph>
    <TTGlyph name="Ncommaaccent" xMin="48" yMin="-236" xMax="611" yMax="725">
      <component glyphName="commaaccent.cap" x="76" y="5" flags="0x4"/>
      <component glyphName="N" x="0" y="0" flags="0x4"/>
    </TTGlyph>
    <TTGlyph name="Ntilde" xMin="48" yMin="0" xMax="611" yMax="898">
      <component glyphName="tilde.cap" x="122" y="208" flags="0x4"/>
      <component glyphName="N" x="0" y="0" flags="0x4"/>
    </TTGlyph>
    <TTGlyph name="O" xMin="66" yMin="-13" xMax="617" yMax="737">
      <contour>
        <pt x="299" y="-13" on="1"/>
        <pt x="243" y="-13" on="0"/>
        <pt x="156" y="30" on="0"/>
        <pt x="97" y="109" on="0"/>
        <pt x="66" y="218" on="0"/>
        <pt x="66" y="284" on="1"/>
        <pt x="66" y="338" on="0"/>
        <pt x="84" y="445" on="0"/>
        <pt x="118" y="542" on="0"/>
        <pt x="168" y="627" on="0"/>
        <pt x="200" y="659" on="1"/>
        <pt x="237" y="696" on="0"/>
        <pt x="327" y="737" on="0"/>
        <pt x="384" y="737" on="1"/>
        <pt x="440" y="737" on="0"/>
        <pt x="527" y="694" on="0"/>
        <pt x="586" y="616" on="0"/>
        <pt x="617" y="507" on="0"/>
        <pt x="617" y="442" on="1"/>
        <pt x="617" y="388" on="0"/>
        <pt x="599" y="280" on="0"/>
        <pt x="565" y="183" on="0"/>
        <pt x="515" y="98" on="0"/>
        <pt x="483" y="67" on="1"/>
        <pt x="446" y="30" on="0"/>
        <pt x="355" y="-13" on="0"/>
      </contour>
      <contour>
        <pt x="301" y="53" on="1"/>
        <pt x="336" y="53" on="0"/>
        <pt x="401" y="83" on="0"/>
        <pt x="427" y="110" on="1"/>
        <pt x="453" y="136" on="0"/>
        <pt x="495" y="208" on="0"/>
        <pt x="524" y="294" on="0"/>
        <pt x="540" y="391" on="0"/>
        <pt x="540" y="441" on="1"/>
        <pt x="540" y="550" on="0"/>
        <pt x="457" y="672" on="0"/>
        <pt x="382" y="672" on="1"/>
        <pt x="346" y="672" on="0"/>
        <pt x="282" y="642" on="0"/>
        <pt x="255" y="615" on="1"/>
        <pt x="229" y="589" on="0"/>
        <pt x="187" y="517" on="0"/>
        <pt x="158" y="431" on="0"/>
        <pt x="142" y="335" on="0"/>
        <pt x="142" y="285" on="1"/>
        <pt x="142" y="175" on="0"/>
        <pt x="226" y="53" on="0"/>
      </contour>
    </TTGlyph>
    <TTGlyph name="OE" xMin="66" yMin="0" xMax="828" yMax="725">
      <contour>
        <pt x="143" y="297" on="1"/>
        <pt x="143" y="185" on="0"/>
        <pt x="252" y="67" on="0"/>
        <pt x="355" y="67" on="1"/>
        <pt x="402" y="67" on="1"/>
        <pt x="491" y="658" on="1"/>
        <pt x="450" y="658" on="1"/>
        <pt x="381" y="658" on="0"/>
        <pt x="281" y="615" on="0"/>
        <pt x="243" y="577" on="1"/>
        <pt x="195" y="528" on="0"/>
        <pt x="143" y="385" on="0"/>
      </contour>
      <contour>
        <pt x="828" y="725" on="1"/>
        <pt x="817" y="657" on="1"/>
        <pt x="565" y="657" on="1"/>
        <pt x="528" y="413" on="1"/>
        <pt x="726" y="413" on="1"/>
        <pt x="726" y="345" on="1"/>
        <pt x="518" y="345" on="1"/>
        <pt x="476" y="68" on="1"/>
        <pt x="740" y="68" on="1"/>
        <pt x="729" y="0" on="1"/>
        <pt x="349" y="0" on="1"/>
        <pt x="281" y="0" on="0"/>
        <pt x="176" y="41" on="0"/>
        <pt x="104" y="118" on="0"/>
        <pt x="66" y="227" on="0"/>
        <pt x="66" y="295" on="1"/>
        <pt x="66" y="393" on="0"/>
        <pt x="129" y="561" on="0"/>
        <pt x="186" y="618" on="1"/>
        <pt x="236" y="669" on="0"/>
        <pt x="370" y="725" on="0"/>
        <pt x="461" y="725" on="1"/>
      </contour>
    </TTGlyph>
    <TTGlyph name="OE.flat" xMin="66" yMin="0" xMax="828" yMax="725">
      <contour>
        <pt x="143" y="297" on="1"/>
        <pt x="143" y="185" on="0"/>
        <pt x="252" y="67" on="0"/>
        <pt x="355" y="67" on="1"/>
        <pt x="402" y="67" on="1"/>
        <pt x="491" y="658" on="1"/>
        <pt x="450" y="658" on="1"/>
        <pt x="381" y="657" on="0"/>
        <pt x="281" y="615" on="0"/>
        <pt x="243" y="577" on="1"/>
        <pt x="195" y="528" on="0"/>
        <pt x="143" y="385" on="0"/>
      </contour>
      <contour>
        <pt x="828" y="725" on="1"/>
        <pt x="817" y="657" on="1"/>
        <pt x="565" y="657" on="1"/>
        <pt x="528" y="413" on="1"/>
        <pt x="731" y="413" on="1"/>
        <pt x="721" y="345" on="1"/>
        <pt x="518" y="345" on="1"/>
        <pt x="476" y="68" on="1"/>
        <pt x="740" y="68" on="1"/>
        <pt x="729" y="0" on="1"/>
        <pt x="349" y="0" on="1"/>
        <pt x="281" y="0" on="0"/>
        <pt x="176" y="41" on="0"/>
        <pt x="104" y="118" on="0"/>
        <pt x="66" y="227" on="0"/>
        <pt x="66" y="295" on="1"/>
        <pt x="66" y="393" on="0"/>
        <pt x="129" y="561" on="0"/>
        <pt x="186" y="618" on="1"/>
        <pt x="236" y="669" on="0"/>
        <pt x="370" y="725" on="0"/>
        <pt x="461" y="725" on="1"/>
      </contour>
    </TTGlyph>
    <TTGlyph name="Oacute" xMin="66" yMin="-13" xMax="617" yMax="942">
      <component glyphName="acute.cap" x="190" y="225" flags="0x4"/>
      <component glyphName="O" x="0" y="0" flags="0x4"/>
    </TTGlyph>
    <TTGlyph name="Obreve" xMin="66" yMin="-13" xMax="617" yMax="920">
      <component glyphName="breve.cap" x="133" y="225" flags="0x4"/>
      <component glyphName="O" x="0" y="0" flags="0x4"/>
    </TTGlyph>
    <TTGlyph name="Ocircumflex" xMin="66" yMin="-13" xMax="617" yMax="938">
      <component glyphName="O" x="0" y="0" flags="0x204"/>
      <component glyphName="circumflex.cap" x="137" y="225" flags="0x4"/>
    </TTGlyph>
    <TTGlyph name="Odieresis" xMin="66" yMin="-13" xMax="617" yMax="892">
      <component glyphName="dieresis.cap" x="137" y="225" flags="0x4"/>
      <component glyphName="O" x="0" y="0" flags="0x4"/>
    </TTGlyph>
    <TTGlyph name="Ograve" xMin="66" yMin="-13" xMax="617" yMax="943">
      <component glyphName="grave.cap" x="80" y="225" flags="0x4"/>
      <component glyphName="O" x="0" y="0" flags="0x4"/>
    </TTGlyph>
    <TTGlyph name="Ohungarumlaut" xMin="66" yMin="-13" xMax="637" yMax="944">
      <component glyphName="O" x="0" y="0" flags="0x204"/>
      <component glyphName="hungarumlaut.cap" x="189" y="225" flags="0x4"/>
    </TTGlyph>
    <TTGlyph name="Omacron" xMin="66" yMin="-13" xMax="617" yMax="879">
      <component glyphName="macron.cap" x="137" y="225" flags="0x4"/>
      <component glyphName="O" x="0" y="0" flags="0x4"/>
    </TTGlyph>
    <TTGlyph name="Oslash" xMin="12" yMin="-13" xMax="670" yMax="737">
      <contour>
        <pt x="300" y="-13" on="1"/>
        <pt x="246" y="-13" on="0"/>
        <pt x="163" y="26" on="0"/>
        <pt x="134" y="61" on="1"/>
        <pt x="77" y="-9" on="1"/>
        <pt x="12" y="7" on="1"/>
        <pt x="100" y="113" on="1"/>
        <pt x="66" y="186" on="0"/>
        <pt x="66" y="284" on="1"/>
        <pt x="66" y="339" on="0"/>
        <pt x="84" y="446" on="0"/>
        <pt x="118" y="543" on="0"/>
        <pt x="167" y="626" on="0"/>
        <pt x="199" y="658" on="1"/>
        <pt x="236" y="694" on="0"/>
        <pt x="326" y="737" on="0"/>
        <pt x="383" y="737" on="1"/>
        <pt x="437" y="737" on="0"/>
        <pt x="520" y="698" on="0"/>
        <pt x="549" y="663" on="1"/>
        <pt x="606" y="734" on="1"/>
        <pt x="670" y="718" on="1"/>
        <pt x="583" y="612" on="1"/>
        <pt x="617" y="539" on="0"/>
        <pt x="617" y="442" on="1"/>
        <pt x="617" y="386" on="0"/>
        <pt x="599" y="279" on="0"/>
        <pt x="565" y="182" on="0"/>
        <pt x="515" y="99" on="0"/>
        <pt x="484" y="68" on="1"/>
        <pt x="447" y="31" on="0"/>
        <pt x="357" y="-13" on="0"/>
      </contour>
      <contour>
        <pt x="141" y="285" on="1"/>
        <pt x="141" y="223" on="0"/>
        <pt x="155" y="175" on="1"/>
        <pt x="504" y="605" on="1"/>
        <pt x="461" y="673" on="0"/>
        <pt x="381" y="673" on="1"/>
        <pt x="345" y="673" on="0"/>
        <pt x="282" y="642" on="0"/>
        <pt x="254" y="616" on="1"/>
        <pt x="228" y="589" on="0"/>
        <pt x="186" y="517" on="0"/>
        <pt x="157" y="431" on="0"/>
        <pt x="141" y="335" on="0"/>
      </contour>
      <contour>
        <pt x="302" y="52" on="1"/>
        <pt x="338" y="52" on="0"/>
        <pt x="401" y="82" on="0"/>
        <pt x="428" y="109" on="1"/>
        <pt x="481" y="162" on="0"/>
        <pt x="542" y="338" on="0"/>
        <pt x="542" y="441" on="1"/>
        <pt x="542" y="502" on="0"/>
        <pt x="528" y="550" on="1"/>
        <pt x="180" y="119" on="1"/>
        <pt x="200" y="87" on="0"/>
        <pt x="262" y="52" on="0"/>
      </contour>
    </TTGlyph>
    <TTGlyph name="Oslashacute" xMin="12" yMin="-13" xMax="670" yMax="942">
      <component glyphName="Oslash" x="0" y="0" flags="0x204"/>
      <component glyphName="acute.cap" x="189" y="225" flags="0x4"/>
    </TTGlyph>
    <TTGlyph name="Otilde" xMin="66" yMin="-13" xMax="617" yMax="915">
      <component glyphName="tilde.cap" x="139" y="225" flags="0x4"/>
      <component glyphName="O" x="0" y="0" flags="0x4"/>
    </TTGlyph>
    <TTGlyph name="P" xMin="49" yMin="0" xMax="504" yMax="725">
      <contour>
        <pt x="504" y="535" on="1"/>
        <pt x="504" y="480" on="0"/>
        <pt x="464" y="391" on="0"/>
        <pt x="391" y="329" on="0"/>
        <pt x="290" y="296" on="0"/>
        <pt x="229" y="296" on="1"/>
        <pt x="167" y="296" on="1"/>
        <pt x="123" y="0" on="1"/>
        <pt x="49" y="0" on="1"/>
        <pt x="157" y="725" on="1"/>
        <pt x="280" y="725" on="1"/>
        <pt x="390" y="725" on="0"/>
        <pt x="504" y="623" on="0"/>
      </contour>
      <contour>
        <pt x="429" y="532" on="1"/>
        <pt x="429" y="594" on="0"/>
        <pt x="353" y="659" on="0"/>
        <pt x="278" y="659" on="1"/>
        <pt x="221" y="659" on="1"/>
        <pt x="178" y="362" on="1"/>
        <pt x="234" y="362" on="1"/>
        <pt x="328" y="362" on="0"/>
        <pt x="429" y="457" on="0"/>
      </contour>
    </TTGlyph>
    <TTGlyph name="Q" xMin="66" yMin="-146" xMax="617" yMax="737">
      <contour>
        <pt x="241" y="-15" on="1"/>
        <pt x="196" y="7" on="0"/>
        <pt x="130" y="62" on="0"/>
        <pt x="87" y="135" on="0"/>
        <pt x="66" y="226" on="0"/>
        <pt x="66" y="284" on="1"/>
        <pt x="66" y="339" on="0"/>
        <pt x="84" y="446" on="0"/>
        <pt x="118" y="543" on="0"/>
        <pt x="168" y="627" on="0"/>
        <pt x="200" y="659" on="1"/>
        <pt x="237" y="696" on="0"/>
        <pt x="327" y="737" on="0"/>
        <pt x="384" y="737" on="1"/>
        <pt x="440" y="737" on="0"/>
        <pt x="527" y="693" on="0"/>
        <pt x="586" y="615" on="0"/>
        <pt x="617" y="507" on="0"/>
        <pt x="617" y="443" on="1"/>
        <pt x="617" y="330" on="0"/>
        <pt x="549" y="134" on="0"/>
        <pt x="487" y="71" on="1"/>
        <pt x="462" y="46" on="0"/>
        <pt x="403" y="10" on="0"/>
        <pt x="370" y="0" on="1"/>
        <pt x="543" y="-75" on="1"/>
        <pt x="521" y="-146" on="1"/>
      </contour>
      <contour>
        <pt x="301" y="53" on="1"/>
        <pt x="336" y="53" on="0"/>
        <pt x="401" y="83" on="0"/>
        <pt x="427" y="110" on="1"/>
        <pt x="453" y="136" on="0"/>
        <pt x="495" y="208" on="0"/>
        <pt x="524" y="294" on="0"/>
        <pt x="540" y="390" on="0"/>
        <pt x="540" y="441" on="1"/>
        <pt x="540" y="550" on="0"/>
        <pt x="457" y="672" on="0"/>
        <pt x="382" y="672" on="1"/>
        <pt x="346" y="672" on="0"/>
        <pt x="282" y="642" on="0"/>
        <pt x="255" y="615" on="1"/>
        <pt x="229" y="589" on="0"/>
        <pt x="187" y="517" on="0"/>
        <pt x="158" y="432" on="0"/>
        <pt x="142" y="336" on="0"/>
        <pt x="142" y="285" on="1"/>
        <pt x="142" y="175" on="0"/>
        <pt x="226" y="53" on="0"/>
      </contour>
    </TTGlyph>
    <TTGlyph name="Q.alt" xMin="66" yMin="-15" xMax="617" yMax="737">
      <contour>
        <pt x="482" y="67" on="1"/>
        <pt x="445" y="30" on="0"/>
        <pt x="355" y="-13" on="0"/>
        <pt x="299" y="-13" on="1"/>
        <pt x="243" y="-13" on="0"/>
        <pt x="156" y="30" on="0"/>
        <pt x="97" y="109" on="0"/>
        <pt x="66" y="218" on="0"/>
        <pt x="66" y="284" on="1"/>
        <pt x="66" y="338" on="0"/>
        <pt x="84" y="445" on="0"/>
        <pt x="118" y="542" on="0"/>
        <pt x="168" y="627" on="0"/>
        <pt x="200" y="659" on="1"/>
        <pt x="237" y="696" on="0"/>
        <pt x="327" y="737" on="0"/>
        <pt x="384" y="737" on="1"/>
        <pt x="440" y="737" on="0"/>
        <pt x="527" y="694" on="0"/>
        <pt x="586" y="616" on="0"/>
        <pt x="617" y="507" on="0"/>
        <pt x="617" y="442" on="1"/>
        <pt x="617" y="353" on="0"/>
        <pt x="570" y="184" on="0"/>
        <pt x="526" y="120" on="1"/>
        <pt x="584" y="61" on="1"/>
        <pt x="560" y="-15" on="1"/>
      </contour>
      <contour>
        <pt x="301" y="53" on="1"/>
        <pt x="336" y="53" on="0"/>
        <pt x="401" y="83" on="0"/>
        <pt x="427" y="110" on="1"/>
        <pt x="434" y="117" on="1"/>
        <pt x="298" y="252" on="1"/>
        <pt x="381" y="269" on="1"/>
        <pt x="474" y="172" on="1"/>
        <pt x="506" y="226" on="0"/>
        <pt x="540" y="366" on="0"/>
        <pt x="540" y="441" on="1"/>
        <pt x="540" y="550" on="0"/>
        <pt x="457" y="672" on="0"/>
        <pt x="382" y="672" on="1"/>
        <pt x="346" y="672" on="0"/>
        <pt x="282" y="642" on="0"/>
        <pt x="255" y="615" on="1"/>
        <pt x="229" y="589" on="0"/>
        <pt x="187" y="517" on="0"/>
        <pt x="158" y="431" on="0"/>
        <pt x="142" y="335" on="0"/>
        <pt x="142" y="285" on="1"/>
        <pt x="142" y="175" on="0"/>
        <pt x="226" y="53" on="0"/>
      </contour>
    </TTGlyph>
    <TTGlyph name="Q.alt_flat" xMin="66" yMin="-16" xMax="617" yMax="737">
      <contour>
        <pt x="484" y="69" on="1"/>
        <pt x="482" y="67" on="1"/>
        <pt x="445" y="30" on="0"/>
        <pt x="355" y="-13" on="0"/>
        <pt x="299" y="-13" on="1"/>
        <pt x="243" y="-13" on="0"/>
        <pt x="156" y="30" on="0"/>
        <pt x="97" y="109" on="0"/>
        <pt x="66" y="218" on="0"/>
        <pt x="66" y="284" on="1"/>
        <pt x="66" y="338" on="0"/>
        <pt x="84" y="445" on="0"/>
        <pt x="118" y="542" on="0"/>
        <pt x="168" y="627" on="0"/>
        <pt x="200" y="659" on="1"/>
        <pt x="237" y="696" on="0"/>
        <pt x="327" y="737" on="0"/>
        <pt x="384" y="737" on="1"/>
        <pt x="440" y="737" on="0"/>
        <pt x="527" y="694" on="0"/>
        <pt x="586" y="616" on="0"/>
        <pt x="617" y="507" on="0"/>
        <pt x="617" y="442" on="1"/>
        <pt x="617" y="354" on="0"/>
        <pt x="570" y="186" on="0"/>
        <pt x="527" y="122" on="1"/>
        <pt x="589" y="62" on="1"/>
        <pt x="570" y="-16" on="1"/>
      </contour>
      <contour>
        <pt x="301" y="53" on="1"/>
        <pt x="336" y="53" on="0"/>
        <pt x="401" y="83" on="0"/>
        <pt x="427" y="110" on="1"/>
        <pt x="430" y="112" on="0"/>
        <pt x="434" y="118" on="1"/>
        <pt x="336" y="212" on="1"/>
        <pt x="354" y="291" on="1"/>
        <pt x="475" y="173" on="1"/>
        <pt x="506" y="227" on="0"/>
        <pt x="540" y="366" on="0"/>
        <pt x="540" y="441" on="1"/>
        <pt x="540" y="550" on="0"/>
        <pt x="457" y="672" on="0"/>
        <pt x="382" y="672" on="1"/>
        <pt x="346" y="672" on="0"/>
        <pt x="282" y="642" on="0"/>
        <pt x="255" y="615" on="1"/>
        <pt x="229" y="589" on="0"/>
        <pt x="187" y="517" on="0"/>
        <pt x="158" y="431" on="0"/>
        <pt x="142" y="335" on="0"/>
        <pt x="142" y="285" on="1"/>
        <pt x="142" y="175" on="0"/>
        <pt x="226" y="53" on="0"/>
      </contour>
    </TTGlyph>
    <TTGlyph name="R" xMin="48" yMin="-7" xMax="501" yMax="725">
      <contour>
        <pt x="501" y="544" on="1"/>
        <pt x="501" y="499" on="0"/>
        <pt x="472" y="425" on="0"/>
        <pt x="423" y="370" on="0"/>
        <pt x="356" y="334" on="0"/>
        <pt x="319" y="326" on="1"/>
        <pt x="474" y="10" on="1"/>
        <pt x="400" y="-7" on="1"/>
        <pt x="243" y="317" on="1"/>
        <pt x="170" y="317" on="1"/>
        <pt x="122" y="0" on="1"/>
        <pt x="48" y="0" on="1"/>
        <pt x="102" y="362" on="1"/>
        <pt x="112" y="430" on="0"/>
        <pt x="131" y="560" on="0"/>
        <pt x="139" y="611" on="1"/>
        <pt x="148" y="671" on="0"/>
        <pt x="156" y="725" on="1"/>
        <pt x="281" y="725" on="1"/>
        <pt x="389" y="725" on="0"/>
        <pt x="501" y="629" on="0"/>
      </contour>
      <contour>
        <pt x="426" y="539" on="1"/>
        <pt x="426" y="593" on="0"/>
        <pt x="356" y="659" on="0"/>
        <pt x="278" y="659" on="1"/>
        <pt x="221" y="659" on="1"/>
        <pt x="179" y="381" on="1"/>
        <pt x="250" y="381" on="1"/>
        <pt x="292" y="381" on="0"/>
        <pt x="357" y="405" on="0"/>
        <pt x="402" y="447" on="0"/>
        <pt x="426" y="505" on="0"/>
      </contour>
    </TTGlyph>
    <TTGlyph name="R.flat" xMin="48" yMin="0" xMax="501" yMax="725">
      <contour>
        <pt x="501" y="544" on="1"/>
        <pt x="501" y="499" on="0"/>
        <pt x="472" y="425" on="0"/>
        <pt x="423" y="370" on="0"/>
        <pt x="356" y="334" on="0"/>
        <pt x="319" y="326" on="1"/>
        <pt x="479" y="0" on="1"/>
        <pt x="396" y="0" on="1"/>
        <pt x="243" y="317" on="1"/>
        <pt x="170" y="317" on="1"/>
        <pt x="122" y="0" on="1"/>
        <pt x="48" y="0" on="1"/>
        <pt x="102" y="362" on="1"/>
        <pt x="112" y="430" on="0"/>
        <pt x="131" y="560" on="0"/>
        <pt x="139" y="611" on="1"/>
        <pt x="148" y="671" on="0"/>
        <pt x="156" y="725" on="1"/>
        <pt x="281" y="725" on="1"/>
        <pt x="389" y="725" on="0"/>
        <pt x="501" y="629" on="0"/>
      </contour>
      <contour>
        <pt x="426" y="539" on="1"/>
        <pt x="426" y="593" on="0"/>
        <pt x="356" y="659" on="0"/>
        <pt x="278" y="659" on="1"/>
        <pt x="221" y="659" on="1"/>
        <pt x="179" y="381" on="1"/>
        <pt x="250" y="381" on="1"/>
        <pt x="292" y="381" on="0"/>
        <pt x="357" y="405" on="0"/>
        <pt x="402" y="447" on="0"/>
        <pt x="426" y="505" on="0"/>
      </contour>
    </TTGlyph>
    <TTGlyph name="R_p" xMin="53" yMin="-194" xMax="923" yMax="717">
      <contour>
        <pt x="243" y="314" on="1"/>
        <pt x="171" y="314" on="1"/>
        <pt x="125" y="0" on="1"/>
        <pt x="53" y="0" on="1"/>
        <pt x="160" y="717" on="1"/>
        <pt x="279" y="717" on="1"/>
        <pt x="386" y="717" on="0"/>
        <pt x="498" y="622" on="0"/>
        <pt x="498" y="538" on="1"/>
        <pt x="498" y="493" on="0"/>
        <pt x="470" y="420" on="0"/>
        <pt x="420" y="366" on="0"/>
        <pt x="354" y="331" on="0"/>
        <pt x="317" y="323" on="1"/>
        <pt x="465" y="10" on="1"/>
        <pt x="393" y="-7" on="1"/>
      </contour>
      <contour>
        <pt x="425" y="533" on="1"/>
        <pt x="425" y="587" on="0"/>
        <pt x="355" y="654" on="0"/>
        <pt x="278" y="654" on="1"/>
        <pt x="222" y="654" on="1"/>
        <pt x="181" y="376" on="1"/>
        <pt x="250" y="376" on="1"/>
        <pt x="292" y="376" on="0"/>
        <pt x="357" y="400" on="0"/>
        <pt x="402" y="442" on="0"/>
        <pt x="425" y="499" on="0"/>
      </contour>
      <contour>
        <pt x="602" y="72" on="1"/>
        <pt x="620" y="64" on="0"/>
        <pt x="653" y="55" on="0"/>
        <pt x="676" y="55" on="1"/>
        <pt x="710" y="55" on="0"/>
        <pt x="773" y="93" on="0"/>
        <pt x="822" y="163" on="0"/>
        <pt x="851" y="262" on="0"/>
        <pt x="851" y="323" on="1"/>
        <pt x="851" y="381" on="0"/>
        <pt x="814" y="448" on="0"/>
        <pt x="779" y="448" on="1"/>
        <pt x="747" y="448" on="0"/>
        <pt x="683" y="396" on="0"/>
        <pt x="642" y="346" on="1"/>
      </contour>
      <contour>
        <pt x="575" y="362" on="1"/>
        <pt x="575" y="501" on="1"/>
        <pt x="637" y="501" on="1"/>
        <pt x="642" y="414" on="1"/>
        <pt x="678" y="459" on="0"/>
        <pt x="749" y="512" on="0"/>
        <pt x="791" y="512" on="1"/>
        <pt x="850" y="512" on="0"/>
        <pt x="923" y="417" on="0"/>
        <pt x="923" y="328" on="1"/>
        <pt x="923" y="255" on="0"/>
        <pt x="883" y="132" on="0"/>
        <pt x="815" y="44" on="0"/>
        <pt x="724" y="-6" on="0"/>
        <pt x="673" y="-6" on="1"/>
        <pt x="650" y="-6" on="0"/>
        <pt x="609" y="3" on="0"/>
        <pt x="592" y="9" on="1"/>
        <pt x="564" y="-181" on="1"/>
        <pt x="492" y="-194" on="1"/>
      </contour>
    </TTGlyph>
    <TTGlyph name="R_p.flat" xMin="53" yMin="-194" xMax="923" yMax="717">
      <contour>
        <pt x="243" y="314" on="1"/>
        <pt x="171" y="314" on="1"/>
        <pt x="125" y="0" on="1"/>
        <pt x="53" y="0" on="1"/>
        <pt x="160" y="717" on="1"/>
        <pt x="279" y="717" on="1"/>
        <pt x="386" y="717" on="0"/>
        <pt x="498" y="622" on="0"/>
        <pt x="498" y="538" on="1"/>
        <pt x="498" y="493" on="0"/>
        <pt x="470" y="420" on="0"/>
        <pt x="420" y="366" on="0"/>
        <pt x="354" y="331" on="0"/>
        <pt x="317" y="323" on="1"/>
        <pt x="470" y="0" on="1"/>
        <pt x="389" y="0" on="1"/>
      </contour>
      <contour>
        <pt x="575" y="362" on="1"/>
        <pt x="575" y="501" on="1"/>
        <pt x="637" y="501" on="1"/>
        <pt x="642" y="414" on="1"/>
        <pt x="678" y="459" on="0"/>
        <pt x="749" y="512" on="0"/>
        <pt x="791" y="512" on="1"/>
        <pt x="850" y="512" on="0"/>
        <pt x="923" y="417" on="0"/>
        <pt x="923" y="328" on="1"/>
        <pt x="923" y="255" on="0"/>
        <pt x="883" y="132" on="0"/>
        <pt x="815" y="44" on="0"/>
        <pt x="724" y="-6" on="0"/>
        <pt x="673" y="-6" on="1"/>
        <pt x="650" y="-6" on="0"/>
        <pt x="609" y="3" on="0"/>
        <pt x="592" y="9" on="1"/>
        <pt x="564" y="-181" on="1"/>
        <pt x="492" y="-194" on="1"/>
      </contour>
      <contour>
        <pt x="602" y="72" on="1"/>
        <pt x="620" y="64" on="0"/>
        <pt x="653" y="55" on="0"/>
        <pt x="676" y="55" on="1"/>
        <pt x="710" y="55" on="0"/>
        <pt x="773" y="93" on="0"/>
        <pt x="822" y="163" on="0"/>
        <pt x="851" y="262" on="0"/>
        <pt x="851" y="323" on="1"/>
        <pt x="851" y="381" on="0"/>
        <pt x="814" y="448" on="0"/>
        <pt x="779" y="448" on="1"/>
        <pt x="747" y="448" on="0"/>
        <pt x="683" y="396" on="0"/>
        <pt x="642" y="346" on="1"/>
      </contour>
      <contour>
        <pt x="425" y="533" on="1"/>
        <pt x="425" y="587" on="0"/>
        <pt x="355" y="654" on="0"/>
        <pt x="278" y="654" on="1"/>
        <pt x="222" y="654" on="1"/>
        <pt x="181" y="376" on="1"/>
        <pt x="250" y="376" on="1"/>
        <pt x="292" y="376" on="0"/>
        <pt x="357" y="400" on="0"/>
        <pt x="402" y="442" on="0"/>
        <pt x="425" y="499" on="0"/>
      </contour>
    </TTGlyph>
    <TTGlyph name="Racute" xMin="48" yMin="-7" xMax="501" yMax="931">
      <component glyphName="R" x="0" y="0" flags="0x204"/>
      <component glyphName="acute.cap" x="105" y="214" flags="0x4"/>
    </TTGlyph>
    <TTGlyph name="Racute.flat" xMin="48" yMin="0" xMax="501" yMax="931">
      <component glyphName="acute.cap" x="105" y="214" flags="0x4"/>
      <component glyphName="R.flat" x="0" y="0" flags="0x4"/>
    </TTGlyph>
    <TTGlyph name="Rcaron" xMin="48" yMin="-7" xMax="501" yMax="926">
      <component glyphName="caron.cap" x="52" y="214" flags="0x4"/>
      <component glyphName="R" x="0" y="0" flags="0x4"/>
    </TTGlyph>
    <TTGlyph name="Rcaron.flat" xMin="48" yMin="0" xMax="501" yMax="926">
      <component glyphName="caron.cap" x="52" y="214" flags="0x4"/>
      <component glyphName="R.flat" x="0" y="0" flags="0x4"/>
    </TTGlyph>
    <TTGlyph name="Rcommaaccent" xMin="48" yMin="-236" xMax="501" yMax="725">
      <component glyphName="R" x="0" y="0" flags="0x204"/>
      <component glyphName="commaaccent.cap" x="44" y="5" flags="0x4"/>
    </TTGlyph>
    <TTGlyph name="Rcommaaccent.flat" xMin="48" yMin="-236" xMax="501" yMax="725">
      <component glyphName="R.flat" x="0" y="0" flags="0x4"/>
      <component glyphName="commaaccent.cap" x="44" y="5" flags="0x4"/>
    </TTGlyph>
    <TTGlyph name="S" xMin="21" yMin="-10" xMax="458" yMax="733">
      <contour>
        <pt x="437" y="615" on="1"/>
        <pt x="408" y="637" on="0"/>
        <pt x="338" y="668" on="0"/>
        <pt x="299" y="668" on="1"/>
        <pt x="271" y="668" on="0"/>
        <pt x="227" y="650" on="0"/>
        <pt x="196" y="619" on="0"/>
        <pt x="180" y="577" on="0"/>
        <pt x="180" y="554" on="1"/>
        <pt x="180" y="534" on="0"/>
        <pt x="192" y="498" on="0"/>
        <pt x="217" y="464" on="0"/>
        <pt x="257" y="427" on="0"/>
        <pt x="284" y="406" on="1"/>
        <pt x="318" y="379" on="0"/>
        <pt x="369" y="330" on="0"/>
        <pt x="401" y="280" on="0"/>
        <pt x="417" y="226" on="0"/>
        <pt x="417" y="195" on="1"/>
        <pt x="417" y="147" on="0"/>
        <pt x="383" y="71" on="0"/>
        <pt x="325" y="18" on="0"/>
        <pt x="247" y="-10" on="0"/>
        <pt x="203" y="-10" on="1"/>
        <pt x="148" y="-10" on="0"/>
        <pt x="54" y="26" on="0"/>
        <pt x="21" y="49" on="1"/>
        <pt x="41" y="121" on="1"/>
        <pt x="76" y="94" on="0"/>
        <pt x="159" y="57" on="0"/>
        <pt x="206" y="57" on="1"/>
        <pt x="234" y="57" on="0"/>
        <pt x="284" y="76" on="0"/>
        <pt x="320" y="110" on="0"/>
        <pt x="341" y="159" on="0"/>
        <pt x="341" y="188" on="1"/>
        <pt x="341" y="232" on="0"/>
        <pt x="296" y="299" on="0"/>
        <pt x="242" y="341" on="1"/>
        <pt x="208" y="368" on="0"/>
        <pt x="157" y="415" on="0"/>
        <pt x="122" y="463" on="0"/>
        <pt x="105" y="515" on="0"/>
        <pt x="105" y="546" on="1"/>
        <pt x="105" y="586" on="0"/>
        <pt x="134" y="655" on="0"/>
        <pt x="186" y="705" on="0"/>
        <pt x="259" y="733" on="0"/>
        <pt x="303" y="733" on="1"/>
        <pt x="351" y="733" on="0"/>
        <pt x="431" y="705" on="0"/>
        <pt x="458" y="687" on="1"/>
      </contour>
    </TTGlyph>
    <TTGlyph name="Sacute" xMin="21" yMin="-10" xMax="478" yMax="942">
      <component glyphName="S" x="0" y="0" flags="0x204"/>
      <component glyphName="acute.cap" x="96" y="225" flags="0x4"/>
    </TTGlyph>
    <TTGlyph name="Scaron" xMin="21" yMin="-10" xMax="462" yMax="937">
      <component glyphName="S" x="0" y="0" flags="0x204"/>
      <component glyphName="caron.cap" x="43" y="225" flags="0x4"/>
    </TTGlyph>
    <TTGlyph name="Scedilla" xMin="21" yMin="-199" xMax="458" yMax="733">
      <component glyphName="S" x="0" y="0" flags="0x204"/>
      <component glyphName="cedilla.cap" x="-4" y="-2" flags="0x4"/>
    </TTGlyph>
    <TTGlyph name="Scommaaccent" xMin="21" yMin="-246" xMax="458" yMax="733">
      <component glyphName="S" x="0" y="0" flags="0x204"/>
      <component glyphName="commaaccent.cap" x="-6" y="-5" flags="0x4"/>
    </TTGlyph>
    <TTGlyph name="T" xMin="93" yMin="0" xMax="548" yMax="725">
      <contour>
        <pt x="355" y="657" on="1"/>
        <pt x="257" y="0" on="1"/>
        <pt x="183" y="0" on="1"/>
        <pt x="280" y="657" on="1"/>
        <pt x="93" y="657" on="1"/>
        <pt x="104" y="725" on="1"/>
        <pt x="548" y="725" on="1"/>
        <pt x="548" y="657" on="1"/>
      </contour>
    </TTGlyph>
    <TTGlyph name="T.flat" xMin="93" yMin="0" xMax="552" yMax="725">
      <contour>
        <pt x="355" y="657" on="1"/>
        <pt x="257" y="0" on="1"/>
        <pt x="183" y="0" on="1"/>
        <pt x="280" y="657" on="1"/>
        <pt x="93" y="657" on="1"/>
        <pt x="104" y="725" on="1"/>
        <pt x="552" y="725" on="1"/>
        <pt x="542" y="657" on="1"/>
      </contour>
    </TTGlyph>
    <TTGlyph name="Tcaron" xMin="93" yMin="0" xMax="548" yMax="926">
      <component glyphName="caron.cap" x="66" y="214" flags="0x4"/>
      <component glyphName="T" x="0" y="0" flags="0x4"/>
    </TTGlyph>
    <TTGlyph name="Tcaron.flat" xMin="93" yMin="0" xMax="552" yMax="926">
      <component glyphName="caron.cap" x="66" y="214" flags="0x4"/>
      <component glyphName="T.flat" x="0" y="0" flags="0x4"/>
    </TTGlyph>
    <TTGlyph name="Tcommaaccent" xMin="93" yMin="-241" xMax="548" yMax="725">
      <component glyphName="T" x="0" y="0" flags="0x204"/>
      <component glyphName="commaaccent.cap" x="19" y="0" flags="0x4"/>
    </TTGlyph>
    <TTGlyph name="Tcommaaccent.flat" xMin="93" yMin="-241" xMax="552" yMax="725">
      <component glyphName="T.flat" x="0" y="0" flags="0x204"/>
      <component glyphName="commaaccent.cap" x="19" y="0" flags="0x4"/>
    </TTGlyph>
    <TTGlyph name="Thorn" xMin="49" yMin="0" xMax="480" yMax="725">
      <contour>
        <pt x="480" y="395" on="1"/>
        <pt x="480" y="342" on="0"/>
        <pt x="442" y="256" on="0"/>
        <pt x="371" y="194" on="0"/>
        <pt x="272" y="161" on="0"/>
        <pt x="212" y="161" on="1"/>
        <pt x="147" y="161" on="1"/>
        <pt x="123" y="0" on="1"/>
        <pt x="49" y="0" on="1"/>
        <pt x="157" y="725" on="1"/>
        <pt x="231" y="725" on="1"/>
        <pt x="211" y="582" on="1"/>
        <pt x="261" y="582" on="1"/>
        <pt x="370" y="582" on="0"/>
        <pt x="480" y="482" on="0"/>
      </contour>
      <contour>
        <pt x="405" y="390" on="1"/>
        <pt x="405" y="451" on="0"/>
        <pt x="330" y="517" on="0"/>
        <pt x="257" y="517" on="1"/>
        <pt x="201" y="517" on="1"/>
        <pt x="158" y="226" on="1"/>
        <pt x="218" y="226" on="1"/>
        <pt x="264" y="226" on="0"/>
        <pt x="335" y="252" on="0"/>
        <pt x="381" y="296" on="0"/>
        <pt x="405" y="356" on="0"/>
      </contour>
    </TTGlyph>
    <TTGlyph name="U" xMin="76" yMin="-11" xMax="610" yMax="725">
      <contour>
        <pt x="538" y="236" on="1"/>
        <pt x="520" y="118" on="0"/>
        <pt x="391" y="-11" on="0"/>
        <pt x="285" y="-11" on="1"/>
        <pt x="185" y="-11" on="0"/>
        <pt x="76" y="97" on="0"/>
        <pt x="76" y="192" on="1"/>
        <pt x="76" y="226" on="0"/>
        <pt x="82" y="268" on="1"/>
        <pt x="149" y="725" on="1"/>
        <pt x="224" y="725" on="1"/>
        <pt x="156" y="263" on="1"/>
        <pt x="154" y="246" on="0"/>
        <pt x="151" y="214" on="0"/>
        <pt x="151" y="199" on="1"/>
        <pt x="151" y="135" on="0"/>
        <pt x="220" y="56" on="0"/>
        <pt x="290" y="56" on="1"/>
        <pt x="363" y="56" on="0"/>
        <pt x="450" y="153" on="0"/>
        <pt x="463" y="239" on="1"/>
        <pt x="536" y="725" on="1"/>
        <pt x="610" y="725" on="1"/>
      </contour>
    </TTGlyph>
    <TTGlyph name="U.alt" xMin="74" yMin="-8" xMax="600" yMax="725">
      <contour>
        <pt x="492" y="0" on="1"/>
        <pt x="435" y="0" on="1"/>
        <pt x="435" y="75" on="1"/>
        <pt x="388" y="40" on="0"/>
        <pt x="289" y="-8" on="0"/>
        <pt x="233" y="-8" on="1"/>
        <pt x="158" y="-8" on="0"/>
        <pt x="74" y="66" on="0"/>
        <pt x="74" y="142" on="1"/>
        <pt x="74" y="154" on="0"/>
        <pt x="76" y="179" on="0"/>
        <pt x="78" y="192" on="1"/>
        <pt x="157" y="725" on="1"/>
        <pt x="232" y="725" on="1"/>
        <pt x="153" y="196" on="1"/>
        <pt x="150" y="176" on="0"/>
        <pt x="150" y="158" on="1"/>
        <pt x="150" y="109" on="0"/>
        <pt x="201" y="58" on="0"/>
        <pt x="249" y="58" on="1"/>
        <pt x="295" y="58" on="0"/>
        <pt x="387" y="103" on="0"/>
        <pt x="439" y="145" on="1"/>
        <pt x="526" y="725" on="1"/>
        <pt x="600" y="725" on="1"/>
      </contour>
    </TTGlyph>
    <TTGlyph name="Uacute" xMin="76" yMin="-11" xMax="610" yMax="925">
      <component glyphName="acute.cap" x="169" y="208" flags="0x4"/>
      <component glyphName="U" x="0" y="0" flags="0x4"/>
    </TTGlyph>
    <TTGlyph name="Uacute.alt" xMin="74" yMin="-8" xMax="600" yMax="925">
      <component glyphName="acute.cap" x="168" y="208" flags="0x4"/>
      <component glyphName="U.alt" x="0" y="0" flags="0x4"/>
    </TTGlyph>
    <TTGlyph name="Ubreve" xMin="76" yMin="-11" xMax="610" yMax="898">
      <component glyphName="breve.cap" x="111" y="203" flags="0x4"/>
      <component glyphName="U" x="0" y="0" flags="0x4"/>
    </TTGlyph>
    <TTGlyph name="Ubreve.alt" xMin="74" yMin="-8" xMax="600" yMax="898">
      <component glyphName="breve.cap" x="111" y="203" flags="0x4"/>
      <component glyphName="U.alt" x="0" y="0" flags="0x4"/>
    </TTGlyph>
    <TTGlyph name="Ucircumflex" xMin="76" yMin="-11" xMax="610" yMax="921">
      <component glyphName="U" x="0" y="0" flags="0x204"/>
      <component glyphName="circumflex.cap" x="116" y="208" flags="0x4"/>
    </TTGlyph>
    <TTGlyph name="Ucircumflex.alt" xMin="74" yMin="-8" xMax="600" yMax="921">
      <component glyphName="circumflex.cap" x="115" y="208" flags="0x4"/>
      <component glyphName="U.alt" x="0" y="0" flags="0x4"/>
    </TTGlyph>
    <TTGlyph name="Udieresis" xMin="76" yMin="-11" xMax="610" yMax="875">
      <component glyphName="dieresis.cap" x="115" y="208" flags="0x4"/>
      <component glyphName="U" x="0" y="0" flags="0x4"/>
    </TTGlyph>
    <TTGlyph name="Udieresis.alt" xMin="74" yMin="-8" xMax="600" yMax="875">
      <component glyphName="dieresis.cap" x="115" y="208" flags="0x4"/>
      <component glyphName="U.alt" x="0" y="0" flags="0x4"/>
    </TTGlyph>
    <TTGlyph name="Ugrave" xMin="76" yMin="-11" xMax="610" yMax="926">
      <component glyphName="grave.cap" x="58" y="208" flags="0x4"/>
      <component glyphName="U" x="0" y="0" flags="0x4"/>
    </TTGlyph>
    <TTGlyph name="Ugrave.alt" xMin="74" yMin="-8" xMax="600" yMax="926">
      <component glyphName="grave.cap" x="57" y="208" flags="0x4"/>
      <component glyphName="U.alt" x="0" y="0" flags="0x4"/>
    </TTGlyph>
    <TTGlyph name="Uhungarumlaut" xMin="76" yMin="-11" xMax="615" yMax="927">
      <component glyphName="U" x="0" y="0" flags="0x204"/>
      <component glyphName="hungarumlaut.cap" x="167" y="208" flags="0x4"/>
    </TTGlyph>
    <TTGlyph name="Uhungarumlaut.alt" xMin="74" yMin="-8" xMax="615" yMax="927">
      <component glyphName="U.alt" x="0" y="0" flags="0x204"/>
      <component glyphName="hungarumlaut.cap" x="167" y="208" flags="0x4"/>
    </TTGlyph>
    <TTGlyph name="Umacron" xMin="76" yMin="-11" xMax="610" yMax="862">
      <component glyphName="macron.cap" x="115" y="208" flags="0x4"/>
      <component glyphName="U" x="0" y="0" flags="0x4"/>
    </TTGlyph>
    <TTGlyph name="Umacron.alt" xMin="74" yMin="-8" xMax="600" yMax="862">
      <component glyphName="macron.cap" x="116" y="208" flags="0x4"/>
      <component glyphName="U.alt" x="0" y="0" flags="0x4"/>
    </TTGlyph>
    <TTGlyph name="Uogonek" xMin="76" yMin="-181" xMax="610" yMax="725">
      <contour>
        <pt x="538" y="236" on="1"/>
        <pt x="521" y="124" on="0"/>
        <pt x="402" y="-4" on="0"/>
        <pt x="305" y="-10" on="1"/>
        <pt x="293" y="-23" on="1"/>
        <pt x="267" y="-52" on="0"/>
        <pt x="247" y="-86" on="0"/>
        <pt x="247" y="-101" on="1"/>
        <pt x="247" y="-129" on="0"/>
        <pt x="284" y="-129" on="1"/>
        <pt x="303" y="-129" on="0"/>
        <pt x="324" y="-123" on="1"/>
        <pt x="319" y="-168" on="1"/>
        <pt x="304" y="-174" on="0"/>
        <pt x="272" y="-181" on="0"/>
        <pt x="255" y="-181" on="1"/>
        <pt x="221" y="-181" on="0"/>
        <pt x="184" y="-150" on="0"/>
        <pt x="184" y="-120" on="1"/>
        <pt x="184" y="-98" on="0"/>
        <pt x="210" y="-50" on="0"/>
        <pt x="239" y="-19" on="1"/>
        <pt x="249" y="-9" on="1"/>
        <pt x="166" y="1" on="0"/>
        <pt x="76" y="106" on="0"/>
        <pt x="76" y="192" on="1"/>
        <pt x="76" y="226" on="0"/>
        <pt x="82" y="268" on="1"/>
        <pt x="149" y="725" on="1"/>
        <pt x="224" y="725" on="1"/>
        <pt x="156" y="263" on="1"/>
        <pt x="154" y="246" on="0"/>
        <pt x="151" y="214" on="0"/>
        <pt x="151" y="199" on="1"/>
        <pt x="151" y="135" on="0"/>
        <pt x="220" y="56" on="0"/>
        <pt x="290" y="56" on="1"/>
        <pt x="363" y="56" on="0"/>
        <pt x="450" y="153" on="0"/>
        <pt x="463" y="239" on="1"/>
        <pt x="536" y="725" on="1"/>
        <pt x="610" y="725" on="1"/>
      </contour>
    </TTGlyph>
    <TTGlyph name="Uogonek.alt" xMin="74" yMin="-181" xMax="600" yMax="725">
      <contour>
        <pt x="489" y="-168" on="1"/>
        <pt x="474" y="-174" on="0"/>
        <pt x="442" y="-181" on="0"/>
        <pt x="425" y="-181" on="1"/>
        <pt x="391" y="-181" on="0"/>
        <pt x="354" y="-150" on="0"/>
        <pt x="354" y="-120" on="1"/>
        <pt x="354" y="-95" on="0"/>
        <pt x="388" y="-40" on="0"/>
        <pt x="426" y="-2" on="1"/>
        <pt x="435" y="7" on="1"/>
        <pt x="435" y="75" on="1"/>
        <pt x="388" y="40" on="0"/>
        <pt x="289" y="-8" on="0"/>
        <pt x="233" y="-8" on="1"/>
        <pt x="158" y="-8" on="0"/>
        <pt x="74" y="66" on="0"/>
        <pt x="74" y="142" on="1"/>
        <pt x="74" y="154" on="0"/>
        <pt x="76" y="179" on="0"/>
        <pt x="78" y="192" on="1"/>
        <pt x="157" y="725" on="1"/>
        <pt x="232" y="725" on="1"/>
        <pt x="153" y="196" on="1"/>
        <pt x="150" y="176" on="0"/>
        <pt x="150" y="158" on="1"/>
        <pt x="150" y="109" on="0"/>
        <pt x="201" y="58" on="0"/>
        <pt x="249" y="58" on="1"/>
        <pt x="295" y="58" on="0"/>
        <pt x="387" y="103" on="0"/>
        <pt x="439" y="145" on="1"/>
        <pt x="526" y="725" on="1"/>
        <pt x="600" y="725" on="1"/>
        <pt x="492" y="0" on="1"/>
        <pt x="485" y="0" on="1"/>
        <pt x="463" y="-23" on="1"/>
        <pt x="437" y="-52" on="0"/>
        <pt x="417" y="-86" on="0"/>
        <pt x="417" y="-101" on="1"/>
        <pt x="417" y="-129" on="0"/>
        <pt x="454" y="-129" on="1"/>
        <pt x="473" y="-129" on="0"/>
        <pt x="494" y="-123" on="1"/>
        <pt x="489" y="-168" on="1"/>
      </contour>
    </TTGlyph>
    <TTGlyph name="Uring" xMin="76" yMin="-11" xMax="610" yMax="962">
      <component glyphName="U" x="0" y="0" flags="0x4"/>
      <component glyphName="ring.cap" x="115" y="201" flags="0x4"/>
    </TTGlyph>
    <TTGlyph name="Uring.alt" xMin="74" yMin="-8" xMax="600" yMax="964">
      <component glyphName="ring.cap" x="116" y="203" flags="0x4"/>
      <component glyphName="U.alt" x="0" y="0" flags="0x4"/>
    </TTGlyph>
    <TTGlyph name="V" xMin="107" yMin="-4" xMax="629" yMax="731">
      <contour>
        <pt x="292" y="-4" on="1"/>
        <pt x="224" y="-4" on="1"/>
        <pt x="107" y="715" on="1"/>
        <pt x="182" y="731" on="1"/>
        <pt x="274" y="106" on="1"/>
        <pt x="549" y="725" on="1"/>
        <pt x="629" y="725" on="1"/>
      </contour>
    </TTGlyph>
    <TTGlyph name="V.flat" xMin="105" yMin="-4" xMax="628" yMax="725">
      <contour>
        <pt x="292" y="-4" on="1"/>
        <pt x="224" y="-4" on="1"/>
        <pt x="105" y="725" on="1"/>
        <pt x="182" y="725" on="1"/>
        <pt x="274" y="106" on="1"/>
        <pt x="549" y="725" on="1"/>
        <pt x="628" y="725" on="1"/>
      </contour>
    </TTGlyph>
    <TTGlyph name="W" xMin="116" yMin="-1" xMax="941" yMax="731">
      <contour>
        <pt x="652" y="-1" on="1"/>
        <pt x="586" y="-1" on="1"/>
        <pt x="510" y="610" on="1"/>
        <pt x="254" y="-1" on="1"/>
        <pt x="187" y="-1" on="1"/>
        <pt x="116" y="715" on="1"/>
        <pt x="191" y="731" on="1"/>
        <pt x="241" y="128" on="1"/>
        <pt x="490" y="725" on="1"/>
        <pt x="565" y="725" on="1"/>
        <pt x="637" y="127" on="1"/>
        <pt x="864" y="725" on="1"/>
        <pt x="941" y="725" on="1"/>
      </contour>
    </TTGlyph>
    <TTGlyph name="W.alt" xMin="106" yMin="-4" xMax="937" yMax="731">
      <contour>
        <pt x="595" y="108" on="1"/>
        <pt x="858" y="725" on="1"/>
        <pt x="937" y="725" on="1"/>
        <pt x="611" y="-4" on="1"/>
        <pt x="545" y="-4" on="1"/>
        <pt x="478" y="413" on="1"/>
        <pt x="285" y="-4" on="1"/>
        <pt x="220" y="-4" on="1"/>
        <pt x="106" y="715" on="1"/>
        <pt x="181" y="731" on="1"/>
        <pt x="269" y="108" on="1"/>
        <pt x="461" y="522" on="1"/>
        <pt x="430" y="715" on="1"/>
        <pt x="503" y="731" on="1"/>
      </contour>
    </TTGlyph>
    <TTGlyph name="W.alt_flat" xMin="105" yMin="-4" xMax="937" yMax="725">
      <contour>
        <pt x="595" y="108" on="1"/>
        <pt x="858" y="725" on="1"/>
        <pt x="937" y="725" on="1"/>
        <pt x="611" y="-4" on="1"/>
        <pt x="545" y="-4" on="1"/>
        <pt x="478" y="413" on="1"/>
        <pt x="285" y="-4" on="1"/>
        <pt x="220" y="-4" on="1"/>
        <pt x="105" y="725" on="1"/>
        <pt x="181" y="725" on="1"/>
        <pt x="269" y="108" on="1"/>
        <pt x="461" y="522" on="1"/>
        <pt x="428" y="725" on="1"/>
        <pt x="504" y="725" on="1"/>
      </contour>
    </TTGlyph>
    <TTGlyph name="W.flat" xMin="115" yMin="-1" xMax="941" yMax="725">
      <contour>
        <pt x="652" y="-1" on="1"/>
        <pt x="586" y="-1" on="1"/>
        <pt x="510" y="610" on="1"/>
        <pt x="254" y="-1" on="1"/>
        <pt x="187" y="-1" on="1"/>
        <pt x="115" y="725" on="1"/>
        <pt x="191" y="725" on="1"/>
        <pt x="241" y="128" on="1"/>
        <pt x="490" y="725" on="1"/>
        <pt x="565" y="725" on="1"/>
        <pt x="637" y="127" on="1"/>
        <pt x="864" y="725" on="1"/>
        <pt x="941" y="725" on="1"/>
      </contour>
    </TTGlyph>
    <TTGlyph name="Wacute" xMin="116" yMin="-1" xMax="941" yMax="931">
      <component glyphName="acute.cap" x="317" y="214" flags="0x4"/>
      <component glyphName="W" x="0" y="0" flags="0x4"/>
    </TTGlyph>
    <TTGlyph name="Wacute.alt" xMin="106" yMin="-4" xMax="937" yMax="931">
      <component glyphName="acute.cap" x="297" y="214" flags="0x4"/>
      <component glyphName="W.alt" x="0" y="0" flags="0x4"/>
    </TTGlyph>
    <TTGlyph name="Wacute.alt_flat" xMin="105" yMin="-4" xMax="937" yMax="931">
      <component glyphName="acute.cap" x="297" y="214" flags="0x4"/>
      <component glyphName="W.alt_flat" x="0" y="0" flags="0x4"/>
    </TTGlyph>
    <TTGlyph name="Wacute.flat" xMin="115" yMin="-1" xMax="941" yMax="931">
      <component glyphName="acute.cap" x="317" y="214" flags="0x4"/>
      <component glyphName="W.flat" x="0" y="0" flags="0x4"/>
    </TTGlyph>
    <TTGlyph name="Wcircumflex" xMin="116" yMin="-1" xMax="941" yMax="927">
      <component glyphName="W" x="0" y="0" flags="0x204"/>
      <component glyphName="circumflex.cap" x="265" y="214" flags="0x4"/>
    </TTGlyph>
    <TTGlyph name="Wcircumflex.alt" xMin="106" yMin="-4" xMax="937" yMax="927">
      <component glyphName="W.alt" x="0" y="0" flags="0x204"/>
      <component glyphName="circumflex.cap" x="244" y="214" flags="0x4"/>
    </TTGlyph>
    <TTGlyph name="Wcircumflex.alt_flat" xMin="105" yMin="-4" xMax="937" yMax="927">
      <component glyphName="W.alt_flat" x="0" y="0" flags="0x204"/>
      <component glyphName="circumflex.cap" x="244" y="214" flags="0x4"/>
    </TTGlyph>
    <TTGlyph name="Wcircumflex.flat" xMin="115" yMin="-1" xMax="941" yMax="927">
      <component glyphName="W.flat" x="0" y="0" flags="0x204"/>
      <component glyphName="circumflex.cap" x="265" y="214" flags="0x4"/>
    </TTGlyph>
    <TTGlyph name="Wdieresis" xMin="116" yMin="-1" xMax="941" yMax="881">
      <component glyphName="dieresis.cap" x="264" y="214" flags="0x4"/>
      <component glyphName="W" x="0" y="0" flags="0x4"/>
    </TTGlyph>
    <TTGlyph name="Wdieresis.alt" xMin="106" yMin="-4" xMax="937" yMax="881">
      <component glyphName="dieresis.cap" x="245" y="214" flags="0x4"/>
      <component glyphName="W.alt" x="0" y="0" flags="0x4"/>
    </TTGlyph>
    <TTGlyph name="Wdieresis.alt_flat" xMin="105" yMin="-4" xMax="937" yMax="881">
      <component glyphName="dieresis.cap" x="245" y="214" flags="0x4"/>
      <component glyphName="W.alt_flat" x="0" y="0" flags="0x4"/>
    </TTGlyph>
    <TTGlyph name="Wdieresis.flat" xMin="115" yMin="-1" xMax="941" yMax="881">
      <component glyphName="dieresis.cap" x="264" y="214" flags="0x4"/>
      <component glyphName="W.flat" x="0" y="0" flags="0x4"/>
    </TTGlyph>
    <TTGlyph name="Wgrave" xMin="116" yMin="-1" xMax="941" yMax="932">
      <component glyphName="grave.cap" x="207" y="214" flags="0x4"/>
      <component glyphName="W" x="0" y="0" flags="0x4"/>
    </TTGlyph>
    <TTGlyph name="Wgrave.alt" xMin="106" yMin="-4" xMax="937" yMax="932">
      <component glyphName="grave.cap" x="187" y="214" flags="0x4"/>
      <component glyphName="W.alt" x="0" y="0" flags="0x4"/>
    </TTGlyph>
    <TTGlyph name="Wgrave.alt_flat" xMin="105" yMin="-4" xMax="937" yMax="932">
      <component glyphName="grave.cap" x="187" y="214" flags="0x4"/>
      <component glyphName="W.alt_flat" x="0" y="0" flags="0x4"/>
    </TTGlyph>
    <TTGlyph name="Wgrave.flat" xMin="115" yMin="-1" xMax="941" yMax="932">
      <component glyphName="grave.cap" x="207" y="214" flags="0x4"/>
      <component glyphName="W.flat" x="0" y="0" flags="0x4"/>
    </TTGlyph>
    <TTGlyph name="X" xMin="-6" yMin="-6" xMax="587" yMax="731">
      <contour>
        <pt x="343" y="374" on="1"/>
        <pt x="496" y="10" on="1"/>
        <pt x="421" y="-6" on="1"/>
        <pt x="293" y="314" on="1"/>
        <pt x="78" y="0" on="1"/>
        <pt x="-6" y="0" on="1"/>
        <pt x="264" y="381" on="1"/>
        <pt x="123" y="715" on="1"/>
        <pt x="197" y="731" on="1"/>
        <pt x="313" y="441" on="1"/>
        <pt x="504" y="725" on="1"/>
        <pt x="587" y="725" on="1"/>
      </contour>
    </TTGlyph>
    <TTGlyph name="X.flat" xMin="-6" yMin="0" xMax="588" yMax="725">
      <contour>
        <pt x="343" y="373" on="1"/>
        <pt x="499" y="0" on="1"/>
        <pt x="418" y="0" on="1"/>
        <pt x="293" y="314" on="1"/>
        <pt x="78" y="0" on="1"/>
        <pt x="-6" y="0" on="1"/>
        <pt x="264" y="380" on="1"/>
        <pt x="118" y="725" on="1"/>
        <pt x="199" y="725" on="1"/>
        <pt x="313" y="440" on="1"/>
        <pt x="505" y="725" on="1"/>
        <pt x="588" y="725" on="1"/>
      </contour>
    </TTGlyph>
    <TTGlyph name="Y" xMin="99" yMin="0" xMax="604" yMax="731">
      <contour>
        <pt x="322" y="295" on="1"/>
        <pt x="279" y="0" on="1"/>
        <pt x="204" y="0" on="1"/>
        <pt x="249" y="295" on="1"/>
        <pt x="99" y="716" on="1"/>
        <pt x="173" y="731" on="1"/>
        <pt x="297" y="368" on="1"/>
        <pt x="520" y="725" on="1"/>
        <pt x="604" y="725" on="1"/>
      </contour>
    </TTGlyph>
    <TTGlyph name="Y.flat" xMin="96" yMin="0" xMax="604" yMax="725">
      <contour>
        <pt x="322" y="295" on="1"/>
        <pt x="279" y="0" on="1"/>
        <pt x="204" y="0" on="1"/>
        <pt x="249" y="295" on="1"/>
        <pt x="96" y="725" on="1"/>
        <pt x="176" y="725" on="1"/>
        <pt x="297" y="368" on="1"/>
        <pt x="520" y="725" on="1"/>
        <pt x="604" y="725" on="1"/>
      </contour>
    </TTGlyph>
    <TTGlyph name="Yacute" xMin="99" yMin="0" xMax="604" yMax="925">
      <component glyphName="Y" x="0" y="0" flags="0x204"/>
      <component glyphName="acute.cap" x="138" y="208" flags="0x4"/>
    </TTGlyph>
    <TTGlyph name="Yacute.flat" xMin="96" yMin="0" xMax="604" yMax="925">
      <component glyphName="acute.cap" x="138" y="208" flags="0x4"/>
      <component glyphName="Y.flat" x="0" y="0" flags="0x4"/>
    </TTGlyph>
    <TTGlyph name="Ycircumflex" xMin="99" yMin="0" xMax="604" yMax="921">
      <component glyphName="Y" x="0" y="0" flags="0x204"/>
      <component glyphName="circumflex.cap" x="85" y="208" flags="0x4"/>
    </TTGlyph>
    <TTGlyph name="Ycircumflex.flat" xMin="96" yMin="0" xMax="604" yMax="921">
      <component glyphName="Y.flat" x="0" y="0" flags="0x204"/>
      <component glyphName="circumflex.cap" x="85" y="208" flags="0x4"/>
    </TTGlyph>
    <TTGlyph name="Ydieresis" xMin="99" yMin="0" xMax="604" yMax="875">
      <component glyphName="Y" x="0" y="0" flags="0x204"/>
      <component glyphName="dieresis.cap" x="86" y="208" flags="0x4"/>
    </TTGlyph>
    <TTGlyph name="Ydieresis.flat" xMin="96" yMin="0" xMax="604" yMax="875">
      <component glyphName="dieresis.cap" x="86" y="208" flags="0x4"/>
      <component glyphName="Y.flat" x="0" y="0" flags="0x4"/>
    </TTGlyph>
    <TTGlyph name="Ygrave" xMin="99" yMin="0" xMax="604" yMax="926">
      <component glyphName="Y" x="0" y="0" flags="0x204"/>
      <component glyphName="grave.cap" x="28" y="208" flags="0x4"/>
    </TTGlyph>
    <TTGlyph name="Ygrave.flat" xMin="96" yMin="0" xMax="604" yMax="926">
      <component glyphName="grave.cap" x="28" y="208" flags="0x4"/>
      <component glyphName="Y.flat" x="0" y="0" flags="0x4"/>
    </TTGlyph>
    <TTGlyph name="Z" xMin="18" yMin="0" xMax="547" yMax="725">
      <contour>
        <pt x="539" y="671" on="1"/>
        <pt x="115" y="64" on="1"/>
        <pt x="450" y="64" on="1"/>
        <pt x="450" y="0" on="1"/>
        <pt x="18" y="0" on="1"/>
        <pt x="25" y="54" on="1"/>
        <pt x="450" y="660" on="1"/>
        <pt x="139" y="660" on="1"/>
        <pt x="139" y="725" on="1"/>
        <pt x="547" y="725" on="1"/>
      </contour>
    </TTGlyph>
    <TTGlyph name="Z.flat" xMin="18" yMin="0" xMax="547" yMax="725">
      <contour>
        <pt x="539" y="671" on="1"/>
        <pt x="115" y="64" on="1"/>
        <pt x="455" y="64" on="1"/>
        <pt x="445" y="0" on="1"/>
        <pt x="18" y="0" on="1"/>
        <pt x="25" y="54" on="1"/>
        <pt x="450" y="660" on="1"/>
        <pt x="134" y="660" on="1"/>
        <pt x="144" y="725" on="1"/>
        <pt x="547" y="725" on="1"/>
      </contour>
    </TTGlyph>
    <TTGlyph name="Zacute" xMin="18" yMin="0" xMax="547" yMax="931">
      <component glyphName="Z" x="0" y="0" flags="0x204"/>
      <component glyphName="acute.cap" x="125" y="214" flags="0x4"/>
    </TTGlyph>
    <TTGlyph name="Zacute.flat" xMin="18" yMin="0" xMax="547" yMax="931">
      <component glyphName="acute.cap" x="125" y="214" flags="0x4"/>
      <component glyphName="Z.flat" x="0" y="0" flags="0x4"/>
    </TTGlyph>
    <TTGlyph name="Zcaron" xMin="18" yMin="0" xMax="547" yMax="926">
      <component glyphName="caron.cap" x="73" y="214" flags="0x4"/>
      <component glyphName="Z" x="0" y="0" flags="0x4"/>
    </TTGlyph>
    <TTGlyph name="Zcaron.flat" xMin="18" yMin="0" xMax="547" yMax="926">
      <component glyphName="caron.cap" x="73" y="214" flags="0x4"/>
      <component glyphName="Z.flat" x="0" y="0" flags="0x4"/>
    </TTGlyph>
    <TTGlyph name="Zdotaccent" xMin="18" yMin="0" xMax="547" yMax="881">
      <component glyphName="dotaccent.cap" x="73" y="214" flags="0x4"/>
      <component glyphName="Z" x="0" y="0" flags="0x4"/>
    </TTGlyph>
    <TTGlyph name="Zdotaccent.flat" xMin="18" yMin="0" xMax="547" yMax="881">
      <component glyphName="dotaccent.cap" x="73" y="214" flags="0x4"/>
      <component glyphName="Z.flat" x="0" y="0" flags="0x4"/>
    </TTGlyph>
    <TTGlyph name="a" xMin="44" yMin="-11" xMax="469" yMax="540">
      <contour>
        <pt x="344" y="99" on="1"/>
        <pt x="300" y="48" on="0"/>
        <pt x="218" y="-11" on="0"/>
        <pt x="176" y="-11" on="1"/>
        <pt x="116" y="-11" on="0"/>
        <pt x="44" y="81" on="0"/>
        <pt x="44" y="170" on="1"/>
        <pt x="44" y="249" on="0"/>
        <pt x="88" y="385" on="0"/>
        <pt x="163" y="484" on="0"/>
        <pt x="263" y="540" on="0"/>
        <pt x="319" y="540" on="1"/>
        <pt x="357" y="540" on="0"/>
        <pt x="428" y="523" on="0"/>
        <pt x="469" y="505" on="1"/>
        <pt x="413" y="141" on="1"/>
        <pt x="413" y="0" on="1"/>
        <pt x="349" y="0" on="1"/>
      </contour>
      <contour>
        <pt x="389" y="461" on="1"/>
        <pt x="371" y="469" on="0"/>
        <pt x="336" y="477" on="0"/>
        <pt x="313" y="477" on="1"/>
        <pt x="274" y="477" on="0"/>
        <pt x="203" y="432" on="0"/>
        <pt x="150" y="352" on="0"/>
        <pt x="118" y="242" on="0"/>
        <pt x="118" y="176" on="1"/>
        <pt x="118" y="116" on="0"/>
        <pt x="154" y="54" on="0"/>
        <pt x="189" y="54" on="1"/>
        <pt x="222" y="54" on="0"/>
        <pt x="297" y="116" on="0"/>
        <pt x="346" y="170" on="1"/>
      </contour>
    </TTGlyph>
    <TTGlyph name="a.alt" xMin="25" yMin="-11" xMax="425" yMax="544">
      <contour>
        <pt x="350" y="377" on="1"/>
        <pt x="351" y="385" on="0"/>
        <pt x="352" y="398" on="0"/>
        <pt x="352" y="405" on="1"/>
        <pt x="352" y="479" on="0"/>
        <pt x="274" y="479" on="1"/>
        <pt x="237" y="479" on="0"/>
        <pt x="158" y="454" on="0"/>
        <pt x="114" y="432" on="1"/>
        <pt x="114" y="500" on="1"/>
        <pt x="150" y="517" on="0"/>
        <pt x="236" y="544" on="0"/>
        <pt x="284" y="544" on="1"/>
        <pt x="355" y="544" on="0"/>
        <pt x="425" y="479" on="0"/>
        <pt x="425" y="418" on="1"/>
        <pt x="425" y="399" on="0"/>
        <pt x="422" y="378" on="1"/>
        <pt x="383" y="119" on="1"/>
        <pt x="383" y="0" on="1"/>
        <pt x="319" y="0" on="1"/>
        <pt x="314" y="82" on="1"/>
        <pt x="279" y="44" on="0"/>
        <pt x="197" y="-11" on="0"/>
        <pt x="148" y="-11" on="1"/>
        <pt x="93" y="-11" on="0"/>
        <pt x="25" y="59" on="0"/>
        <pt x="25" y="117" on="1"/>
        <pt x="25" y="161" on="0"/>
        <pt x="61" y="235" on="0"/>
        <pt x="138" y="292" on="0"/>
        <pt x="259" y="330" on="0"/>
        <pt x="344" y="338" on="1"/>
      </contour>
      <contour>
        <pt x="163" y="53" on="1"/>
        <pt x="199" y="53" on="0"/>
        <pt x="272" y="102" on="0"/>
        <pt x="314" y="147" on="1"/>
        <pt x="335" y="281" on="1"/>
        <pt x="269" y="273" on="0"/>
        <pt x="179" y="244" on="0"/>
        <pt x="123" y="204" on="0"/>
        <pt x="98" y="153" on="0"/>
        <pt x="98" y="125" on="1"/>
        <pt x="98" y="93" on="0"/>
        <pt x="132" y="53" on="0"/>
      </contour>
    </TTGlyph>
    <TTGlyph name="aacute" xMin="44" yMin="-11" xMax="501" yMax="766">
      <component glyphName="a" x="0" y="0" flags="0x204"/>
      <component glyphName="acute" x="95" y="2" flags="0x4"/>
    </TTGlyph>
    <TTGlyph name="aacute.alt" xMin="25" yMin="-11" xMax="466" yMax="766">
      <component glyphName="acute" x="60" y="2" flags="0x4"/>
      <component glyphName="a.alt" x="0" y="0" flags="0x4"/>
    </TTGlyph>
    <TTGlyph name="abreve" xMin="44" yMin="-11" xMax="474" yMax="742">
      <component glyphName="a" x="0" y="0" flags="0x204"/>
      <component glyphName="breve" x="35" y="2" flags="0x4"/>
    </TTGlyph>
    <TTGlyph name="abreve.alt" xMin="25" yMin="-11" xMax="438" yMax="742">
      <component glyphName="a.alt" x="0" y="0" flags="0x204"/>
      <component glyphName="breve" x="-1" y="2" flags="0x4"/>
    </TTGlyph>
    <TTGlyph name="acircumflex" xMin="44" yMin="-11" xMax="469" yMax="762">
      <component glyphName="a" x="0" y="0" flags="0x204"/>
      <component glyphName="circumflex" x="38" y="2" flags="0x4"/>
    </TTGlyph>
    <TTGlyph name="acircumflex.alt" xMin="25" yMin="-11" xMax="425" yMax="762">
      <component glyphName="circumflex" x="3" y="2" flags="0x4"/>
      <component glyphName="a.alt" x="0" y="0" flags="0x4"/>
    </TTGlyph>
    <TTGlyph name="acute" xMin="197" yMin="605" xMax="406" yMax="764">
      <contour>
        <pt x="254" y="605" on="1"/>
        <pt x="197" y="605" on="1"/>
        <pt x="314" y="764" on="1"/>
        <pt x="406" y="742" on="1"/>
      </contour>
    </TTGlyph>
    <TTGlyph name="acute.cap" xMin="185" yMin="567" xMax="382" yMax="717">
      <contour>
        <pt x="240" y="567" on="1"/>
        <pt x="185" y="567" on="1"/>
        <pt x="293" y="717" on="1"/>
        <pt x="382" y="696" on="1"/>
      </contour>
    </TTGlyph>
    <TTGlyph name="adieresis" xMin="44" yMin="-11" xMax="471" yMax="712">
      <component glyphName="a" x="0" y="0" flags="0x204"/>
      <component glyphName="dieresis" x="39" y="2" flags="0x4"/>
    </TTGlyph>
    <TTGlyph name="adieresis.alt" xMin="25" yMin="-11" xMax="435" yMax="712">
      <component glyphName="dieresis" x="3" y="2" flags="0x4"/>
      <component glyphName="a.alt" x="0" y="0" flags="0x4"/>
    </TTGlyph>
    <TTGlyph name="ae" xMin="25" yMin="-11" xMax="719" yMax="544">
      <contour>
        <pt x="719" y="356" on="1"/>
        <pt x="719" y="329" on="0"/>
        <pt x="713" y="278" on="0"/>
        <pt x="708" y="256" on="1"/>
        <pt x="404" y="256" on="1"/>
        <pt x="402" y="245" on="0"/>
        <pt x="402" y="222" on="0"/>
        <pt x="402" y="211" on="1"/>
        <pt x="402" y="136" on="0"/>
        <pt x="464" y="54" on="0"/>
        <pt x="518" y="54" on="1"/>
        <pt x="558" y="54" on="0"/>
        <pt x="633" y="87" on="0"/>
        <pt x="671" y="116" on="1"/>
        <pt x="671" y="44" on="1"/>
        <pt x="635" y="19" on="0"/>
        <pt x="557" y="-11" on="0"/>
        <pt x="511" y="-11" on="1"/>
        <pt x="455" y="-11" on="0"/>
        <pt x="374" y="41" on="0"/>
        <pt x="352" y="89" on="1"/>
        <pt x="308" y="47" on="0"/>
        <pt x="211" y="-11" on="0"/>
        <pt x="158" y="-11" on="1"/>
        <pt x="101" y="-11" on="0"/>
        <pt x="25" y="58" on="0"/>
        <pt x="25" y="120" on="1"/>
        <pt x="25" y="162" on="0"/>
        <pt x="60" y="234" on="0"/>
        <pt x="137" y="290" on="0"/>
        <pt x="257" y="329" on="0"/>
        <pt x="342" y="339" on="1"/>
        <pt x="347" y="375" on="1"/>
        <pt x="348" y="383" on="0"/>
        <pt x="349" y="396" on="0"/>
        <pt x="349" y="402" on="1"/>
        <pt x="349" y="479" on="0"/>
        <pt x="271" y="479" on="1"/>
        <pt x="234" y="479" on="0"/>
        <pt x="157" y="453" on="0"/>
        <pt x="115" y="432" on="1"/>
        <pt x="115" y="500" on="1"/>
        <pt x="150" y="517" on="0"/>
        <pt x="233" y="544" on="0"/>
        <pt x="280" y="544" on="1"/>
        <pt x="391" y="544" on="0"/>
        <pt x="409" y="458" on="1"/>
        <pt x="441" y="499" on="0"/>
        <pt x="520" y="544" on="0"/>
        <pt x="566" y="544" on="1"/>
        <pt x="605" y="544" on="0"/>
        <pt x="662" y="516" on="0"/>
        <pt x="700" y="465" on="0"/>
        <pt x="719" y="396" on="0"/>
      </contour>
      <contour>
        <pt x="645" y="314" on="1"/>
        <pt x="647" y="325" on="0"/>
        <pt x="647" y="346" on="0"/>
        <pt x="647" y="356" on="1"/>
        <pt x="647" y="416" on="0"/>
        <pt x="605" y="484" on="0"/>
        <pt x="561" y="484" on="1"/>
        <pt x="537" y="484" on="0"/>
        <pt x="492" y="459" on="0"/>
        <pt x="454" y="414" on="0"/>
        <pt x="423" y="352" on="0"/>
        <pt x="414" y="314" on="1"/>
      </contour>
      <contour>
        <pt x="333" y="146" on="1"/>
        <pt x="331" y="161" on="0"/>
        <pt x="328" y="194" on="0"/>
        <pt x="328" y="211" on="1"/>
        <pt x="328" y="228" on="0"/>
        <pt x="331" y="265" on="0"/>
        <pt x="333" y="282" on="1"/>
        <pt x="266" y="273" on="0"/>
        <pt x="176" y="242" on="0"/>
        <pt x="121" y="202" on="0"/>
        <pt x="98" y="154" on="0"/>
        <pt x="98" y="128" on="1"/>
        <pt x="98" y="93" on="0"/>
        <pt x="137" y="54" on="0"/>
        <pt x="173" y="54" on="1"/>
        <pt x="209" y="54" on="0"/>
        <pt x="287" y="101" on="0"/>
      </contour>
    </TTGlyph>
    <TTGlyph name="aeacute" xMin="25" yMin="-11" xMax="719" yMax="766">
      <component glyphName="acute" x="208" y="2" flags="0x4"/>
      <component glyphName="ae" x="0" y="0" flags="0x4"/>
    </TTGlyph>
    <TTGlyph name="agrave" xMin="44" yMin="-11" xMax="469" yMax="767">
      <component glyphName="a" x="0" y="0" flags="0x204"/>
      <component glyphName="grave" x="-24" y="2" flags="0x4"/>
    </TTGlyph>
    <TTGlyph name="agrave.alt" xMin="25" yMin="-11" xMax="425" yMax="767">
      <component glyphName="a.alt" x="0" y="0" flags="0x204"/>
      <component glyphName="grave" x="-59" y="2" flags="0x4"/>
    </TTGlyph>
    <TTGlyph name="amacron" xMin="44" yMin="-11" xMax="475" yMax="698">
      <component glyphName="a" x="0" y="0" flags="0x204"/>
      <component glyphName="macron" x="39" y="2" flags="0x4"/>
    </TTGlyph>
    <TTGlyph name="amacron.alt" xMin="25" yMin="-11" xMax="439" yMax="698">
      <component glyphName="a.alt" x="0" y="0" flags="0x204"/>
      <component glyphName="macron" x="3" y="2" flags="0x4"/>
    </TTGlyph>
    <TTGlyph name="ampersand" xMin="35" yMin="-12" xMax="579" yMax="737">
      <contour>
        <pt x="216" y="-12" on="1"/>
        <pt x="175" y="-12" on="0"/>
        <pt x="108" y="15" on="0"/>
        <pt x="61" y="62" on="0"/>
        <pt x="35" y="127" on="0"/>
        <pt x="35" y="165" on="1"/>
        <pt x="35" y="208" on="0"/>
        <pt x="64" y="282" on="0"/>
        <pt x="116" y="343" on="0"/>
        <pt x="188" y="393" on="0"/>
        <pt x="232" y="412" on="1"/>
        <pt x="208" y="450" on="0"/>
        <pt x="181" y="521" on="0"/>
        <pt x="181" y="559" on="1"/>
        <pt x="181" y="596" on="0"/>
        <pt x="208" y="661" on="0"/>
        <pt x="256" y="709" on="0"/>
        <pt x="323" y="737" on="0"/>
        <pt x="364" y="737" on="1"/>
        <pt x="409" y="737" on="0"/>
        <pt x="479" y="712" on="0"/>
        <pt x="509" y="693" on="1"/>
        <pt x="487" y="625" on="1"/>
        <pt x="458" y="645" on="0"/>
        <pt x="396" y="672" on="0"/>
        <pt x="363" y="672" on="1"/>
        <pt x="312" y="672" on="0"/>
        <pt x="254" y="610" on="0"/>
        <pt x="254" y="563" on="1"/>
        <pt x="254" y="529" on="0"/>
        <pt x="281" y="464" on="0"/>
        <pt x="308" y="423" on="1"/>
        <pt x="433" y="232" on="1"/>
        <pt x="474" y="312" on="0"/>
        <pt x="507" y="423" on="1"/>
        <pt x="573" y="407" on="1"/>
        <pt x="551" y="338" on="0"/>
        <pt x="502" y="220" on="0"/>
        <pt x="473" y="172" on="1"/>
        <pt x="579" y="10" on="1"/>
        <pt x="507" y="-7" on="1"/>
        <pt x="431" y="110" on="1"/>
        <pt x="384" y="50" on="0"/>
        <pt x="278" y="-11" on="0"/>
      </contour>
      <contour>
        <pt x="222" y="53" on="1"/>
        <pt x="314" y="53" on="0"/>
        <pt x="394" y="167" on="1"/>
        <pt x="266" y="360" on="1"/>
        <pt x="189" y="329" on="0"/>
        <pt x="109" y="230" on="0"/>
        <pt x="109" y="169" on="1"/>
        <pt x="109" y="119" on="0"/>
        <pt x="170" y="53" on="0"/>
      </contour>
    </TTGlyph>
    <TTGlyph name="ampersand.flat" xMin="35" yMin="-12" xMax="586" yMax="737">
      <contour>
        <pt x="216" y="-12" on="1"/>
        <pt x="175" y="-12" on="0"/>
        <pt x="108" y="15" on="0"/>
        <pt x="61" y="62" on="0"/>
        <pt x="35" y="127" on="0"/>
        <pt x="35" y="165" on="1"/>
        <pt x="35" y="208" on="0"/>
        <pt x="64" y="282" on="0"/>
        <pt x="116" y="343" on="0"/>
        <pt x="188" y="393" on="0"/>
        <pt x="232" y="412" on="1"/>
        <pt x="208" y="450" on="0"/>
        <pt x="181" y="521" on="0"/>
        <pt x="181" y="559" on="1"/>
        <pt x="181" y="596" on="0"/>
        <pt x="208" y="661" on="0"/>
        <pt x="256" y="709" on="0"/>
        <pt x="323" y="737" on="0"/>
        <pt x="364" y="737" on="1"/>
        <pt x="409" y="737" on="0"/>
        <pt x="479" y="712" on="0"/>
        <pt x="509" y="693" on="1"/>
        <pt x="487" y="625" on="1"/>
        <pt x="458" y="645" on="0"/>
        <pt x="396" y="672" on="0"/>
        <pt x="363" y="672" on="1"/>
        <pt x="312" y="672" on="0"/>
        <pt x="254" y="609" on="0"/>
        <pt x="254" y="563" on="1"/>
        <pt x="254" y="528" on="0"/>
        <pt x="281" y="465" on="0"/>
        <pt x="308" y="423" on="1"/>
        <pt x="433" y="233" on="1"/>
        <pt x="474" y="310" on="0"/>
        <pt x="507" y="423" on="1"/>
        <pt x="573" y="407" on="1"/>
        <pt x="551" y="338" on="0"/>
        <pt x="502" y="220" on="0"/>
        <pt x="473" y="172" on="1"/>
        <pt x="586" y="0" on="1"/>
        <pt x="503" y="0" on="1"/>
        <pt x="431" y="110" on="1"/>
        <pt x="384" y="50" on="0"/>
        <pt x="278" y="-11" on="0"/>
      </contour>
      <contour>
        <pt x="222" y="53" on="1"/>
        <pt x="314" y="53" on="0"/>
        <pt x="394" y="167" on="1"/>
        <pt x="266" y="360" on="1"/>
        <pt x="189" y="329" on="0"/>
        <pt x="109" y="230" on="0"/>
        <pt x="109" y="169" on="1"/>
        <pt x="109" y="119" on="0"/>
        <pt x="170" y="53" on="0"/>
      </contour>
    </TTGlyph>
    <TTGlyph name="aogonek" xMin="44" yMin="-192" xMax="469" yMax="540">
      <contour>
        <pt x="344" y="99" on="1"/>
        <pt x="300" y="48" on="0"/>
        <pt x="218" y="-11" on="0"/>
        <pt x="176" y="-11" on="1"/>
        <pt x="116" y="-11" on="0"/>
        <pt x="44" y="81" on="0"/>
        <pt x="44" y="170" on="1"/>
        <pt x="44" y="249" on="0"/>
        <pt x="88" y="385" on="0"/>
        <pt x="163" y="484" on="0"/>
        <pt x="263" y="540" on="0"/>
        <pt x="319" y="540" on="1"/>
        <pt x="357" y="540" on="0"/>
        <pt x="428" y="523" on="0"/>
        <pt x="469" y="505" on="1"/>
        <pt x="413" y="141" on="1"/>
        <pt x="413" y="0" on="1"/>
        <pt x="400" y="0" on="1"/>
        <pt x="377" y="-25" on="1"/>
        <pt x="349" y="-54" on="0"/>
        <pt x="327" y="-91" on="0"/>
        <pt x="327" y="-108" on="1"/>
        <pt x="327" y="-138" on="0"/>
        <pt x="367" y="-138" on="1"/>
        <pt x="387" y="-138" on="0"/>
        <pt x="410" y="-132" on="1"/>
        <pt x="405" y="-179" on="1"/>
        <pt x="388" y="-184" on="0"/>
        <pt x="355" y="-192" on="0"/>
        <pt x="338" y="-192" on="1"/>
        <pt x="302" y="-192" on="0"/>
        <pt x="262" y="-159" on="0"/>
        <pt x="262" y="-128" on="1"/>
        <pt x="262" y="-101" on="0"/>
        <pt x="297" y="-42" on="0"/>
        <pt x="337" y="-3" on="1"/>
        <pt x="343" y="3" on="1"/>
        <pt x="349" y="8" on="1"/>
      </contour>
      <contour>
        <pt x="389" y="461" on="1"/>
        <pt x="371" y="469" on="0"/>
        <pt x="336" y="477" on="0"/>
        <pt x="313" y="477" on="1"/>
        <pt x="274" y="477" on="0"/>
        <pt x="203" y="432" on="0"/>
        <pt x="150" y="352" on="0"/>
        <pt x="118" y="242" on="0"/>
        <pt x="118" y="176" on="1"/>
        <pt x="118" y="116" on="0"/>
        <pt x="154" y="54" on="0"/>
        <pt x="189" y="54" on="1"/>
        <pt x="222" y="54" on="0"/>
        <pt x="297" y="116" on="0"/>
        <pt x="346" y="170" on="1"/>
      </contour>
    </TTGlyph>
    <TTGlyph name="aogonek.alt" xMin="25" yMin="-192" xMax="425" yMax="544">
      <contour>
        <pt x="350" y="377" on="1"/>
        <pt x="351" y="385" on="0"/>
        <pt x="352" y="398" on="0"/>
        <pt x="352" y="405" on="1"/>
        <pt x="352" y="479" on="0"/>
        <pt x="274" y="479" on="1"/>
        <pt x="237" y="479" on="0"/>
        <pt x="158" y="454" on="0"/>
        <pt x="114" y="432" on="1"/>
        <pt x="114" y="500" on="1"/>
        <pt x="150" y="517" on="0"/>
        <pt x="236" y="544" on="0"/>
        <pt x="284" y="544" on="1"/>
        <pt x="355" y="544" on="0"/>
        <pt x="425" y="479" on="0"/>
        <pt x="425" y="418" on="1"/>
        <pt x="425" y="399" on="0"/>
        <pt x="422" y="378" on="1"/>
        <pt x="383" y="119" on="1"/>
        <pt x="383" y="0" on="1"/>
        <pt x="368" y="0" on="1"/>
        <pt x="345" y="-25" on="1"/>
        <pt x="317" y="-54" on="0"/>
        <pt x="295" y="-91" on="0"/>
        <pt x="295" y="-108" on="1"/>
        <pt x="295" y="-138" on="0"/>
        <pt x="335" y="-138" on="1"/>
        <pt x="355" y="-138" on="0"/>
        <pt x="378" y="-132" on="1"/>
        <pt x="373" y="-179" on="1"/>
        <pt x="356" y="-184" on="0"/>
        <pt x="323" y="-192" on="0"/>
        <pt x="306" y="-192" on="1"/>
        <pt x="270" y="-192" on="0"/>
        <pt x="230" y="-159" on="0"/>
        <pt x="230" y="-128" on="1"/>
        <pt x="230" y="-101" on="0"/>
        <pt x="265" y="-42" on="0"/>
        <pt x="305" y="-3" on="1"/>
        <pt x="318" y="10" on="1"/>
        <pt x="314" y="82" on="1"/>
        <pt x="279" y="44" on="0"/>
        <pt x="197" y="-11" on="0"/>
        <pt x="148" y="-11" on="1"/>
        <pt x="93" y="-11" on="0"/>
        <pt x="25" y="59" on="0"/>
        <pt x="25" y="117" on="1"/>
        <pt x="25" y="161" on="0"/>
        <pt x="61" y="235" on="0"/>
        <pt x="138" y="292" on="0"/>
        <pt x="259" y="330" on="0"/>
        <pt x="344" y="338" on="1"/>
      </contour>
      <contour>
        <pt x="163" y="53" on="1"/>
        <pt x="199" y="53" on="0"/>
        <pt x="272" y="102" on="0"/>
        <pt x="314" y="147" on="1"/>
        <pt x="335" y="281" on="1"/>
        <pt x="269" y="273" on="0"/>
        <pt x="179" y="244" on="0"/>
        <pt x="123" y="204" on="0"/>
        <pt x="98" y="153" on="0"/>
        <pt x="98" y="125" on="1"/>
        <pt x="98" y="93" on="0"/>
        <pt x="132" y="53" on="0"/>
      </contour>
    </TTGlyph>
    <TTGlyph name="aring" xMin="44" yMin="-11" xMax="469" yMax="812">
      <component glyphName="a" x="0" y="0" flags="0x204"/>
      <component glyphName="ring" x="40" y="2" flags="0x4"/>
    </TTGlyph>
    <TTGlyph name="aring.alt" xMin="25" yMin="-11" xMax="425" yMax="812">
      <component glyphName="ring" x="4" y="2" flags="0x4"/>
      <component glyphName="a.alt" x="0" y="0" flags="0x4"/>
    </TTGlyph>
    <TTGlyph name="aringacute" xMin="44" yMin="-11" xMax="536" yMax="1018">
      <contour>
        <pt x="344" y="99" on="1"/>
        <pt x="300" y="48" on="0"/>
        <pt x="218" y="-11" on="0"/>
        <pt x="176" y="-11" on="1"/>
        <pt x="116" y="-11" on="0"/>
        <pt x="44" y="81" on="0"/>
        <pt x="44" y="170" on="1"/>
        <pt x="44" y="249" on="0"/>
        <pt x="88" y="385" on="0"/>
        <pt x="163" y="484" on="0"/>
        <pt x="263" y="540" on="0"/>
        <pt x="319" y="540" on="1"/>
        <pt x="357" y="540" on="0"/>
        <pt x="428" y="523" on="0"/>
        <pt x="469" y="505" on="1"/>
        <pt x="413" y="141" on="1"/>
        <pt x="413" y="0" on="1"/>
        <pt x="349" y="0" on="1"/>
      </contour>
      <contour>
        <pt x="389" y="461" on="1"/>
        <pt x="371" y="469" on="0"/>
        <pt x="336" y="477" on="0"/>
        <pt x="313" y="477" on="1"/>
        <pt x="274" y="477" on="0"/>
        <pt x="203" y="432" on="0"/>
        <pt x="150" y="352" on="0"/>
        <pt x="118" y="242" on="0"/>
        <pt x="118" y="176" on="1"/>
        <pt x="118" y="116" on="0"/>
        <pt x="154" y="54" on="0"/>
        <pt x="189" y="54" on="1"/>
        <pt x="222" y="54" on="0"/>
        <pt x="297" y="116" on="0"/>
        <pt x="346" y="170" on="1"/>
      </contour>
      <contour>
        <pt x="384" y="859" on="1"/>
        <pt x="327" y="859" on="1"/>
        <pt x="444" y="1018" on="1"/>
        <pt x="536" y="996" on="1"/>
      </contour>
      <contour>
        <pt x="343" y="645" on="1"/>
        <pt x="369" y="645" on="0"/>
        <pt x="402" y="681" on="0"/>
        <pt x="402" y="708" on="1"/>
        <pt x="402" y="735" on="0"/>
        <pt x="369" y="771" on="0"/>
        <pt x="343" y="771" on="1"/>
        <pt x="317" y="771" on="0"/>
        <pt x="283" y="735" on="0"/>
        <pt x="283" y="708" on="1"/>
        <pt x="283" y="681" on="0"/>
        <pt x="317" y="645" on="0"/>
      </contour>
      <contour>
        <pt x="343" y="605" on="1"/>
        <pt x="320" y="605" on="0"/>
        <pt x="282" y="621" on="0"/>
        <pt x="254" y="648" on="0"/>
        <pt x="238" y="686" on="0"/>
        <pt x="238" y="708" on="1"/>
        <pt x="238" y="730" on="0"/>
        <pt x="254" y="768" on="0"/>
        <pt x="282" y="796" on="0"/>
        <pt x="320" y="812" on="0"/>
        <pt x="343" y="812" on="1"/>
        <pt x="388" y="812" on="0"/>
        <pt x="447" y="753" on="0"/>
        <pt x="447" y="708" on="1"/>
        <pt x="447" y="663" on="0"/>
        <pt x="388" y="605" on="0"/>
      </contour>
    </TTGlyph>
    <TTGlyph name="aringacute.alt" xMin="25" yMin="-11" xMax="497" yMax="1017">
      <contour>
        <pt x="345" y="858" on="1"/>
        <pt x="288" y="858" on="1"/>
        <pt x="405" y="1017" on="1"/>
        <pt x="497" y="995" on="1"/>
      </contour>
      <contour>
        <pt x="307" y="645" on="1"/>
        <pt x="333" y="645" on="0"/>
        <pt x="366" y="681" on="0"/>
        <pt x="366" y="708" on="1"/>
        <pt x="366" y="735" on="0"/>
        <pt x="333" y="771" on="0"/>
        <pt x="307" y="771" on="1"/>
        <pt x="281" y="771" on="0"/>
        <pt x="247" y="735" on="0"/>
        <pt x="247" y="708" on="1"/>
        <pt x="247" y="681" on="0"/>
        <pt x="281" y="645" on="0"/>
      </contour>
      <contour>
        <pt x="307" y="605" on="1"/>
        <pt x="284" y="605" on="0"/>
        <pt x="246" y="621" on="0"/>
        <pt x="218" y="648" on="0"/>
        <pt x="202" y="686" on="0"/>
        <pt x="202" y="708" on="1"/>
        <pt x="202" y="730" on="0"/>
        <pt x="218" y="768" on="0"/>
        <pt x="246" y="796" on="0"/>
        <pt x="284" y="812" on="0"/>
        <pt x="307" y="812" on="1"/>
        <pt x="352" y="812" on="0"/>
        <pt x="411" y="753" on="0"/>
        <pt x="411" y="708" on="1"/>
        <pt x="411" y="663" on="0"/>
        <pt x="352" y="605" on="0"/>
      </contour>
      <contour>
        <pt x="350" y="377" on="1"/>
        <pt x="351" y="385" on="0"/>
        <pt x="352" y="398" on="0"/>
        <pt x="352" y="405" on="1"/>
        <pt x="352" y="479" on="0"/>
        <pt x="274" y="479" on="1"/>
        <pt x="237" y="479" on="0"/>
        <pt x="158" y="454" on="0"/>
        <pt x="114" y="432" on="1"/>
        <pt x="114" y="500" on="1"/>
        <pt x="150" y="517" on="0"/>
        <pt x="236" y="544" on="0"/>
        <pt x="284" y="544" on="1"/>
        <pt x="355" y="544" on="0"/>
        <pt x="425" y="479" on="0"/>
        <pt x="425" y="418" on="1"/>
        <pt x="425" y="399" on="0"/>
        <pt x="422" y="378" on="1"/>
        <pt x="383" y="119" on="1"/>
        <pt x="383" y="0" on="1"/>
        <pt x="319" y="0" on="1"/>
        <pt x="314" y="82" on="1"/>
        <pt x="279" y="44" on="0"/>
        <pt x="197" y="-11" on="0"/>
        <pt x="148" y="-11" on="1"/>
        <pt x="93" y="-11" on="0"/>
        <pt x="25" y="59" on="0"/>
        <pt x="25" y="117" on="1"/>
        <pt x="25" y="161" on="0"/>
        <pt x="61" y="235" on="0"/>
        <pt x="138" y="292" on="0"/>
        <pt x="259" y="330" on="0"/>
        <pt x="344" y="338" on="1"/>
      </contour>
      <contour>
        <pt x="163" y="53" on="1"/>
        <pt x="199" y="53" on="0"/>
        <pt x="272" y="102" on="0"/>
        <pt x="314" y="147" on="1"/>
        <pt x="335" y="281" on="1"/>
        <pt x="269" y="273" on="0"/>
        <pt x="179" y="244" on="0"/>
        <pt x="123" y="204" on="0"/>
        <pt x="98" y="153" on="0"/>
        <pt x="98" y="125" on="1"/>
        <pt x="98" y="93" on="0"/>
        <pt x="132" y="53" on="0"/>
      </contour>
    </TTGlyph>
    <TTGlyph name="asciicircum" xMin="117" yMin="537" xMax="406" yMax="730">
      <contour>
        <pt x="351" y="537" on="1"/>
        <pt x="282" y="663" on="1"/>
        <pt x="176" y="537" on="1"/>
        <pt x="117" y="537" on="1"/>
        <pt x="260" y="730" on="1"/>
        <pt x="322" y="730" on="1"/>
        <pt x="406" y="537" on="1"/>
      </contour>
    </TTGlyph>
    <TTGlyph name="asciitilde" xMin="62" yMin="261" xMax="408" yMax="397">
      <contour>
        <pt x="408" y="387" on="1"/>
        <pt x="390" y="321" on="0"/>
        <pt x="338" y="264" on="0"/>
        <pt x="306" y="264" on="1"/>
        <pt x="285" y="264" on="0"/>
        <pt x="249" y="281" on="0"/>
        <pt x="225" y="297" on="1"/>
        <pt x="199" y="313" on="0"/>
        <pt x="172" y="328" on="0"/>
        <pt x="160" y="328" on="1"/>
        <pt x="147" y="328" on="0"/>
        <pt x="125" y="298" on="0"/>
        <pt x="113" y="261" on="1"/>
        <pt x="62" y="271" on="1"/>
        <pt x="80" y="337" on="0"/>
        <pt x="133" y="395" on="0"/>
        <pt x="165" y="395" on="1"/>
        <pt x="186" y="395" on="0"/>
        <pt x="221" y="377" on="0"/>
        <pt x="246" y="361" on="1"/>
        <pt x="270" y="345" on="0"/>
        <pt x="298" y="330" on="0"/>
        <pt x="310" y="330" on="1"/>
        <pt x="323" y="330" on="0"/>
        <pt x="345" y="361" on="0"/>
        <pt x="357" y="397" on="1"/>
      </contour>
    </TTGlyph>
    <TTGlyph name="asterisk" xMin="96" yMin="477" xMax="413" yMax="779">
      <contour>
        <pt x="296" y="603" on="1"/>
        <pt x="361" y="490" on="1"/>
        <pt x="340" y="477" on="1"/>
        <pt x="255" y="573" on="1"/>
        <pt x="169" y="477" on="1"/>
        <pt x="148" y="490" on="1"/>
        <pt x="213" y="603" on="1"/>
        <pt x="96" y="654" on="1"/>
        <pt x="104" y="678" on="1"/>
        <pt x="230" y="651" on="1"/>
        <pt x="241" y="779" on="1"/>
        <pt x="268" y="779" on="1"/>
        <pt x="280" y="651" on="1"/>
        <pt x="405" y="678" on="1"/>
        <pt x="413" y="654" on="1"/>
      </contour>
    </TTGlyph>
    <TTGlyph name="at" xMin="55" yMin="-155" xMax="811" yMax="702">
      <contour>
        <pt x="618" y="50" on="1"/>
        <pt x="565" y="50" on="0"/>
        <pt x="507" y="107" on="0"/>
        <pt x="505" y="154" on="1"/>
        <pt x="465" y="103" on="0"/>
        <pt x="395" y="52" on="0"/>
        <pt x="356" y="52" on="1"/>
        <pt x="308" y="52" on="0"/>
        <pt x="246" y="128" on="0"/>
        <pt x="246" y="197" on="1"/>
        <pt x="246" y="260" on="0"/>
        <pt x="286" y="370" on="0"/>
        <pt x="354" y="453" on="0"/>
        <pt x="444" y="501" on="0"/>
        <pt x="494" y="501" on="1"/>
        <pt x="529" y="501" on="0"/>
        <pt x="585" y="484" on="0"/>
        <pt x="611" y="473" on="1"/>
        <pt x="570" y="209" on="1"/>
        <pt x="568" y="198" on="0"/>
        <pt x="565" y="172" on="0"/>
        <pt x="565" y="161" on="1"/>
        <pt x="565" y="129" on="0"/>
        <pt x="595" y="94" on="0"/>
        <pt x="626" y="94" on="1"/>
        <pt x="655" y="94" on="0"/>
        <pt x="707" y="134" on="0"/>
        <pt x="747" y="206" on="0"/>
        <pt x="771" y="306" on="0"/>
        <pt x="771" y="367" on="1"/>
        <pt x="771" y="439" on="0"/>
        <pt x="732" y="550" on="0"/>
        <pt x="659" y="626" on="0"/>
        <pt x="556" y="665" on="0"/>
        <pt x="492" y="665" on="1"/>
        <pt x="410" y="665" on="0"/>
        <pt x="266" y="590" on="0"/>
        <pt x="159" y="462" on="0"/>
        <pt x="97" y="292" on="0"/>
        <pt x="97" y="196" on="1"/>
        <pt x="97" y="116" on="0"/>
        <pt x="140" y="-2" on="0"/>
        <pt x="217" y="-80" on="0"/>
        <pt x="324" y="-118" on="0"/>
        <pt x="388" y="-118" on="1"/>
        <pt x="449" y="-118" on="0"/>
        <pt x="559" y="-89" on="0"/>
        <pt x="607" y="-65" on="1"/>
        <pt x="612" y="-102" on="1"/>
        <pt x="567" y="-125" on="0"/>
        <pt x="451" y="-155" on="0"/>
        <pt x="385" y="-155" on="1"/>
        <pt x="310" y="-155" on="0"/>
        <pt x="189" y="-110" on="0"/>
        <pt x="102" y="-22" on="0"/>
        <pt x="55" y="109" on="0"/>
        <pt x="55" y="195" on="1"/>
        <pt x="55" y="299" on="0"/>
        <pt x="124" y="483" on="0"/>
        <pt x="243" y="621" on="0"/>
        <pt x="403" y="702" on="0"/>
        <pt x="494" y="702" on="1"/>
        <pt x="567" y="702" on="0"/>
        <pt x="684" y="656" on="0"/>
        <pt x="766" y="570" on="0"/>
        <pt x="811" y="446" on="0"/>
        <pt x="811" y="368" on="1"/>
        <pt x="811" y="299" on="0"/>
        <pt x="782" y="182" on="0"/>
        <pt x="730" y="97" on="0"/>
        <pt x="660" y="50" on="0"/>
      </contour>
      <contour>
        <pt x="371" y="110" on="1"/>
        <pt x="399" y="110" on="0"/>
        <pt x="463" y="165" on="0"/>
        <pt x="506" y="219" on="1"/>
        <pt x="540" y="433" on="1"/>
        <pt x="528" y="438" on="0"/>
        <pt x="504" y="444" on="0"/>
        <pt x="488" y="444" on="1"/>
        <pt x="452" y="444" on="0"/>
        <pt x="388" y="405" on="0"/>
        <pt x="340" y="339" on="0"/>
        <pt x="312" y="252" on="0"/>
        <pt x="312" y="204" on="1"/>
        <pt x="312" y="156" on="0"/>
        <pt x="343" y="110" on="0"/>
      </contour>
    </TTGlyph>
    <TTGlyph name="atilde" xMin="44" yMin="-11" xMax="500" yMax="736">
      <component glyphName="a" x="0" y="0" flags="0x204"/>
      <component glyphName="tilde" x="40" y="2" flags="0x4"/>
    </TTGlyph>
    <TTGlyph name="atilde.alt" xMin="25" yMin="-11" xMax="465" yMax="736">
      <component glyphName="a.alt" x="0" y="0" flags="0x204"/>
      <component glyphName="tilde" x="5" y="2" flags="0x4"/>
    </TTGlyph>
    <TTGlyph name="b" xMin="45" yMin="-7" xMax="472" yMax="805">
      <contour>
        <pt x="158" y="791" on="1"/>
        <pt x="232" y="805" on="1"/>
        <pt x="179" y="455" on="1"/>
        <pt x="215" y="494" on="0"/>
        <pt x="288" y="544" on="0"/>
        <pt x="330" y="544" on="1"/>
        <pt x="393" y="544" on="0"/>
        <pt x="472" y="446" on="0"/>
        <pt x="472" y="352" on="1"/>
        <pt x="472" y="274" on="0"/>
        <pt x="430" y="142" on="0"/>
        <pt x="356" y="47" on="0"/>
        <pt x="258" y="-7" on="0"/>
        <pt x="201" y="-7" on="1"/>
        <pt x="161" y="-7" on="0"/>
        <pt x="84" y="14" on="0"/>
        <pt x="45" y="31" on="1"/>
      </contour>
      <contour>
        <pt x="124" y="75" on="1"/>
        <pt x="144" y="66" on="0"/>
        <pt x="183" y="57" on="0"/>
        <pt x="207" y="57" on="1"/>
        <pt x="245" y="57" on="0"/>
        <pt x="314" y="99" on="0"/>
        <pt x="367" y="175" on="0"/>
        <pt x="398" y="282" on="0"/>
        <pt x="398" y="347" on="1"/>
        <pt x="398" y="410" on="0"/>
        <pt x="357" y="479" on="0"/>
        <pt x="318" y="479" on="1"/>
        <pt x="283" y="479" on="0"/>
        <pt x="213" y="422" on="0"/>
        <pt x="168" y="374" on="1"/>
      </contour>
    </TTGlyph>
    <TTGlyph name="backslash" xMin="58" yMin="-139" xMax="464" yMax="780">
      <contour>
        <pt x="401" y="-139" on="1"/>
        <pt x="58" y="767" on="1"/>
        <pt x="121" y="780" on="1"/>
        <pt x="464" y="-125" on="1"/>
      </contour>
    </TTGlyph>
    <TTGlyph name="baht" xMin="-45" yMin="-132" xMax="555" yMax="786">
      <contour>
        <pt x="303" y="717" on="1"/>
        <pt x="381" y="717" on="0"/>
        <pt x="430" y="683" on="1"/>
        <pt x="496" y="786" on="1"/>
        <pt x="555" y="773" on="1"/>
        <pt x="471" y="642" on="1"/>
        <pt x="496" y="603" on="0"/>
        <pt x="496" y="553" on="1"/>
        <pt x="496" y="520" on="0"/>
        <pt x="475" y="463" on="0"/>
        <pt x="437" y="418" on="0"/>
        <pt x="387" y="385" on="0"/>
        <pt x="359" y="376" on="1"/>
        <pt x="410" y="357" on="0"/>
        <pt x="473" y="276" on="0"/>
        <pt x="473" y="217" on="1"/>
        <pt x="473" y="166" on="0"/>
        <pt x="434" y="86" on="0"/>
        <pt x="363" y="30" on="0"/>
        <pt x="264" y="0" on="0"/>
        <pt x="205" y="0" on="1"/>
        <pt x="93" y="0" on="1"/>
        <pt x="13" y="-132" on="1"/>
        <pt x="-45" y="-119" on="1"/>
        <pt x="58" y="54" on="1"/>
        <pt x="157" y="717" on="1"/>
      </contour>
      <contour>
        <pt x="402" y="216" on="1"/>
        <pt x="402" y="277" on="0"/>
        <pt x="319" y="345" on="0"/>
        <pt x="244" y="345" on="1"/>
        <pt x="172" y="345" on="1"/>
        <pt x="129" y="62" on="1"/>
        <pt x="213" y="62" on="1"/>
        <pt x="298" y="62" on="0"/>
        <pt x="402" y="143" on="0"/>
      </contour>
      <contour>
        <pt x="424" y="548" on="1"/>
        <pt x="424" y="598" on="0"/>
        <pt x="359" y="655" on="0"/>
        <pt x="297" y="655" on="1"/>
        <pt x="218" y="655" on="1"/>
        <pt x="181" y="406" on="1"/>
        <pt x="256" y="406" on="1"/>
        <pt x="291" y="406" on="0"/>
        <pt x="353" y="426" on="0"/>
        <pt x="398" y="464" on="0"/>
        <pt x="424" y="516" on="0"/>
      </contour>
    </TTGlyph>
    <TTGlyph name="bar" xMin="38" yMin="-216" xMax="259" yMax="830">
      <contour>
        <pt x="38" y="-216" on="1"/>
        <pt x="193" y="820" on="1"/>
        <pt x="259" y="830" on="1"/>
        <pt x="104" y="-207" on="1"/>
      </contour>
    </TTGlyph>
    <TTGlyph name="bar.tab" xMin="39" yMin="-138" xMax="260" yMax="908">
      <contour>
        <pt x="39" y="-138" on="1"/>
        <pt x="193" y="898" on="1"/>
        <pt x="260" y="908" on="1"/>
        <pt x="105" y="-129" on="1"/>
      </contour>
    </TTGlyph>
    <TTGlyph name="braceleft" xMin="63" yMin="-112" xMax="497" yMax="778">
      <contour>
        <pt x="489" y="721" on="1"/>
        <pt x="413" y="721" on="1"/>
        <pt x="356" y="721" on="0"/>
        <pt x="309" y="660" on="0"/>
        <pt x="309" y="606" on="1"/>
        <pt x="309" y="517" on="1"/>
        <pt x="309" y="431" on="0"/>
        <pt x="232" y="344" on="0"/>
        <pt x="167" y="333" on="1"/>
        <pt x="167" y="331" on="1"/>
        <pt x="212" y="321" on="0"/>
        <pt x="262" y="272" on="0"/>
        <pt x="262" y="224" on="1"/>
        <pt x="262" y="199" on="0"/>
        <pt x="249" y="141" on="0"/>
        <pt x="233" y="83" on="0"/>
        <pt x="220" y="29" on="0"/>
        <pt x="220" y="9" on="1"/>
        <pt x="220" y="-55" on="0"/>
        <pt x="300" y="-55" on="1"/>
        <pt x="371" y="-55" on="1"/>
        <pt x="371" y="-112" on="1"/>
        <pt x="287" y="-112" on="1"/>
        <pt x="219" y="-112" on="0"/>
        <pt x="149" y="-58" on="0"/>
        <pt x="149" y="-1" on="1"/>
        <pt x="149" y="24" on="0"/>
        <pt x="162" y="81" on="0"/>
        <pt x="179" y="139" on="0"/>
        <pt x="192" y="195" on="0"/>
        <pt x="192" y="219" on="1"/>
        <pt x="192" y="264" on="0"/>
        <pt x="138" y="305" on="0"/>
        <pt x="86" y="305" on="1"/>
        <pt x="63" y="305" on="1"/>
        <pt x="63" y="361" on="1"/>
        <pt x="96" y="361" on="1"/>
        <pt x="163" y="361" on="0"/>
        <pt x="238" y="435" on="0"/>
        <pt x="238" y="516" on="1"/>
        <pt x="238" y="599" on="1"/>
        <pt x="238" y="688" on="0"/>
        <pt x="324" y="778" on="0"/>
        <pt x="418" y="778" on="1"/>
        <pt x="497" y="778" on="1"/>
      </contour>
    </TTGlyph>
    <TTGlyph name="braceleft.flat" xMin="58" yMin="-112" xMax="497" yMax="778">
      <contour>
        <pt x="489" y="721" on="1"/>
        <pt x="413" y="721" on="1"/>
        <pt x="356" y="721" on="0"/>
        <pt x="309" y="660" on="0"/>
        <pt x="309" y="606" on="1"/>
        <pt x="309" y="517" on="1"/>
        <pt x="309" y="431" on="0"/>
        <pt x="232" y="344" on="0"/>
        <pt x="167" y="333" on="1"/>
        <pt x="167" y="331" on="1"/>
        <pt x="212" y="321" on="0"/>
        <pt x="262" y="272" on="0"/>
        <pt x="262" y="224" on="1"/>
        <pt x="262" y="199" on="0"/>
        <pt x="249" y="141" on="0"/>
        <pt x="233" y="83" on="0"/>
        <pt x="220" y="29" on="0"/>
        <pt x="220" y="9" on="1"/>
        <pt x="220" y="-55" on="0"/>
        <pt x="300" y="-55" on="1"/>
        <pt x="375" y="-55" on="1"/>
        <pt x="366" y="-112" on="1"/>
        <pt x="287" y="-112" on="1"/>
        <pt x="219" y="-112" on="0"/>
        <pt x="149" y="-58" on="0"/>
        <pt x="149" y="-1" on="1"/>
        <pt x="149" y="24" on="0"/>
        <pt x="162" y="81" on="0"/>
        <pt x="179" y="139" on="0"/>
        <pt x="192" y="195" on="0"/>
        <pt x="192" y="219" on="1"/>
        <pt x="192" y="264" on="0"/>
        <pt x="138" y="305" on="0"/>
        <pt x="86" y="305" on="1"/>
        <pt x="58" y="305" on="1"/>
        <pt x="66" y="361" on="1"/>
        <pt x="96" y="361" on="1"/>
        <pt x="163" y="361" on="0"/>
        <pt x="238" y="435" on="0"/>
        <pt x="238" y="516" on="1"/>
        <pt x="238" y="599" on="1"/>
        <pt x="238" y="688" on="0"/>
        <pt x="324" y="778" on="0"/>
        <pt x="418" y="778" on="1"/>
        <pt x="497" y="778" on="1"/>
      </contour>
    </TTGlyph>
    <TTGlyph name="braceright" xMin="0" yMin="-112" xMax="435" yMax="779">
      <contour>
        <pt x="9" y="-54" on="1"/>
        <pt x="85" y="-54" on="1"/>
        <pt x="142" y="-54" on="0"/>
        <pt x="189" y="7" on="0"/>
        <pt x="189" y="61" on="1"/>
        <pt x="189" y="150" on="1"/>
        <pt x="189" y="236" on="0"/>
        <pt x="265" y="323" on="0"/>
        <pt x="330" y="334" on="1"/>
        <pt x="330" y="337" on="1"/>
        <pt x="286" y="346" on="0"/>
        <pt x="235" y="395" on="0"/>
        <pt x="235" y="443" on="1"/>
        <pt x="235" y="468" on="0"/>
        <pt x="248" y="527" on="0"/>
        <pt x="264" y="585" on="0"/>
        <pt x="277" y="638" on="0"/>
        <pt x="277" y="658" on="1"/>
        <pt x="277" y="689" on="0"/>
        <pt x="240" y="721" on="0"/>
        <pt x="198" y="721" on="1"/>
        <pt x="127" y="721" on="1"/>
        <pt x="127" y="779" on="1"/>
        <pt x="211" y="779" on="1"/>
        <pt x="278" y="779" on="0"/>
        <pt x="348" y="726" on="0"/>
        <pt x="348" y="669" on="1"/>
        <pt x="348" y="643" on="0"/>
        <pt x="335" y="587" on="0"/>
        <pt x="318" y="529" on="0"/>
        <pt x="305" y="473" on="0"/>
        <pt x="305" y="448" on="1"/>
        <pt x="305" y="403" on="0"/>
        <pt x="360" y="362" on="0"/>
        <pt x="412" y="362" on="1"/>
        <pt x="435" y="362" on="1"/>
        <pt x="435" y="306" on="1"/>
        <pt x="402" y="306" on="1"/>
        <pt x="334" y="306" on="0"/>
        <pt x="260" y="232" on="0"/>
        <pt x="260" y="151" on="1"/>
        <pt x="260" y="68" on="1"/>
        <pt x="260" y="-21" on="0"/>
        <pt x="174" y="-112" on="0"/>
        <pt x="80" y="-112" on="1"/>
        <pt x="0" y="-112" on="1"/>
      </contour>
    </TTGlyph>
    <TTGlyph name="braceright.flat" xMin="0" yMin="-112" xMax="439" yMax="779">
      <contour>
        <pt x="9" y="-54" on="1"/>
        <pt x="85" y="-54" on="1"/>
        <pt x="142" y="-54" on="0"/>
        <pt x="189" y="7" on="0"/>
        <pt x="189" y="61" on="1"/>
        <pt x="189" y="150" on="1"/>
        <pt x="189" y="236" on="0"/>
        <pt x="265" y="323" on="0"/>
        <pt x="330" y="334" on="1"/>
        <pt x="330" y="337" on="1"/>
        <pt x="286" y="346" on="0"/>
        <pt x="235" y="395" on="0"/>
        <pt x="235" y="443" on="1"/>
        <pt x="235" y="468" on="0"/>
        <pt x="248" y="527" on="0"/>
        <pt x="264" y="585" on="0"/>
        <pt x="277" y="638" on="0"/>
        <pt x="277" y="658" on="1"/>
        <pt x="277" y="689" on="0"/>
        <pt x="240" y="721" on="0"/>
        <pt x="198" y="721" on="1"/>
        <pt x="122" y="721" on="1"/>
        <pt x="131" y="779" on="1"/>
        <pt x="211" y="779" on="1"/>
        <pt x="278" y="779" on="0"/>
        <pt x="348" y="726" on="0"/>
        <pt x="348" y="669" on="1"/>
        <pt x="348" y="643" on="0"/>
        <pt x="335" y="587" on="0"/>
        <pt x="318" y="529" on="0"/>
        <pt x="305" y="473" on="0"/>
        <pt x="305" y="448" on="1"/>
        <pt x="305" y="403" on="0"/>
        <pt x="360" y="362" on="0"/>
        <pt x="412" y="362" on="1"/>
        <pt x="439" y="362" on="1"/>
        <pt x="431" y="306" on="1"/>
        <pt x="402" y="306" on="1"/>
        <pt x="334" y="306" on="0"/>
        <pt x="260" y="232" on="0"/>
        <pt x="260" y="151" on="1"/>
        <pt x="260" y="68" on="1"/>
        <pt x="260" y="-21" on="0"/>
        <pt x="174" y="-112" on="0"/>
        <pt x="80" y="-112" on="1"/>
        <pt x="0" y="-112" on="1"/>
      </contour>
    </TTGlyph>
    <TTGlyph name="bracketleft" xMin="50" yMin="-112" xMax="437" yMax="778">
      <contour>
        <pt x="428" y="721" on="1"/>
        <pt x="245" y="721" on="1"/>
        <pt x="128" y="-54" on="1"/>
        <pt x="309" y="-54" on="1"/>
        <pt x="309" y="-112" on="1"/>
        <pt x="50" y="-112" on="1"/>
        <pt x="183" y="778" on="1"/>
        <pt x="437" y="778" on="1"/>
      </contour>
    </TTGlyph>
    <TTGlyph name="bracketleft.flat" xMin="50" yMin="-112" xMax="437" yMax="778">
      <contour>
        <pt x="428" y="721" on="1"/>
        <pt x="245" y="721" on="1"/>
        <pt x="128" y="-54" on="1"/>
        <pt x="312" y="-54" on="1"/>
        <pt x="303" y="-112" on="1"/>
        <pt x="50" y="-112" on="1"/>
        <pt x="183" y="778" on="1"/>
        <pt x="437" y="778" on="1"/>
      </contour>
    </TTGlyph>
    <TTGlyph name="bracketright" xMin="-12" yMin="-112" xMax="375" yMax="778">
      <contour>
        <pt x="242" y="-112" on="1"/>
        <pt x="-12" y="-112" on="1"/>
        <pt x="-4" y="-54" on="1"/>
        <pt x="181" y="-54" on="1"/>
        <pt x="297" y="721" on="1"/>
        <pt x="117" y="721" on="1"/>
        <pt x="116" y="778" on="1"/>
        <pt x="375" y="778" on="1"/>
      </contour>
    </TTGlyph>
    <TTGlyph name="bracketright.flat" xMin="-12" yMin="-112" xMax="375" yMax="778">
      <contour>
        <pt x="-4" y="-54" on="1"/>
        <pt x="181" y="-54" on="1"/>
        <pt x="297" y="721" on="1"/>
        <pt x="113" y="721" on="1"/>
        <pt x="122" y="778" on="1"/>
        <pt x="375" y="778" on="1"/>
        <pt x="242" y="-112" on="1"/>
        <pt x="-12" y="-112" on="1"/>
      </contour>
    </TTGlyph>
    <TTGlyph name="breve" xMin="178" yMin="606" xMax="439" yMax="740">
      <contour>
        <pt x="439" y="731" on="1"/>
        <pt x="425" y="671" on="0"/>
        <pt x="352" y="606" on="0"/>
        <pt x="295" y="606" on="1"/>
        <pt x="236" y="606" on="0"/>
        <pt x="178" y="673" on="0"/>
        <pt x="180" y="730" on="1"/>
        <pt x="233" y="740" on="1"/>
        <pt x="236" y="668" on="0"/>
        <pt x="300" y="668" on="1"/>
        <pt x="364" y="668" on="0"/>
        <pt x="389" y="740" on="1"/>
      </contour>
    </TTGlyph>
    <TTGlyph name="breve.cap" xMin="166" yMin="568" xMax="413" yMax="695">
      <contour>
        <pt x="413" y="686" on="1"/>
        <pt x="400" y="629" on="0"/>
        <pt x="330" y="568" on="0"/>
        <pt x="277" y="568" on="1"/>
        <pt x="222" y="568" on="0"/>
        <pt x="166" y="631" on="0"/>
        <pt x="168" y="685" on="1"/>
        <pt x="220" y="695" on="1"/>
        <pt x="223" y="628" on="0"/>
        <pt x="282" y="628" on="1"/>
        <pt x="342" y="628" on="0"/>
        <pt x="365" y="695" on="1"/>
      </contour>
    </TTGlyph>
    <TTGlyph name="bullet" xMin="106" yMin="230" xMax="344" yMax="498">
      <contour>
        <pt x="326" y="248" on="1"/>
        <pt x="225" y="230" on="1"/>
        <pt x="125" y="248" on="1"/>
        <pt x="106" y="365" on="1"/>
        <pt x="125" y="481" on="1"/>
        <pt x="225" y="498" on="1"/>
        <pt x="326" y="481" on="1"/>
        <pt x="344" y="365" on="1"/>
      </contour>
    </TTGlyph>
    <TTGlyph name="c" xMin="45" yMin="-10" xMax="427" yMax="544">
      <contour>
        <pt x="408" y="430" on="1"/>
        <pt x="382" y="453" on="0"/>
        <pt x="329" y="479" on="0"/>
        <pt x="298" y="479" on="1"/>
        <pt x="260" y="479" on="0"/>
        <pt x="194" y="434" on="0"/>
        <pt x="146" y="361" on="0"/>
        <pt x="119" y="266" on="0"/>
        <pt x="119" y="217" on="1"/>
        <pt x="119" y="136" on="0"/>
        <pt x="186" y="55" on="0"/>
        <pt x="238" y="55" on="1"/>
        <pt x="272" y="55" on="0"/>
        <pt x="335" y="83" on="0"/>
        <pt x="367" y="107" on="1"/>
        <pt x="367" y="35" on="1"/>
        <pt x="338" y="15" on="0"/>
        <pt x="270" y="-10" on="0"/>
        <pt x="231" y="-10" on="1"/>
        <pt x="149" y="-10" on="0"/>
        <pt x="46" y="104" on="0"/>
        <pt x="45" y="212" on="1"/>
        <pt x="45" y="278" on="0"/>
        <pt x="83" y="399" on="0"/>
        <pt x="152" y="490" on="0"/>
        <pt x="246" y="544" on="0"/>
        <pt x="301" y="544" on="1"/>
        <pt x="341" y="544" on="0"/>
        <pt x="403" y="519" on="0"/>
        <pt x="427" y="501" on="1"/>
      </contour>
    </TTGlyph>
    <TTGlyph name="cacute" xMin="45" yMin="-10" xMax="482" yMax="766">
      <component glyphName="acute" x="76" y="2" flags="0x4"/>
      <component glyphName="c" x="0" y="0" flags="0x4"/>
    </TTGlyph>
    <TTGlyph name="caron" xMin="179" yMin="605" xMax="445" yMax="759">
      <contour>
        <pt x="225" y="759" on="1"/>
        <pt x="296" y="671" on="1"/>
        <pt x="392" y="759" on="1"/>
        <pt x="445" y="759" on="1"/>
        <pt x="320" y="605" on="1"/>
        <pt x="256" y="605" on="1"/>
        <pt x="179" y="759" on="1"/>
      </contour>
    </TTGlyph>
    <TTGlyph name="caron.alt" xMin="221" yMin="600" xMax="344" yMax="803">
      <contour>
        <pt x="332" y="803" on="1"/>
        <pt x="344" y="774" on="0"/>
        <pt x="344" y="748" on="1"/>
        <pt x="344" y="706" on="0"/>
        <pt x="295" y="632" on="0"/>
        <pt x="257" y="600" on="1"/>
        <pt x="221" y="608" on="1"/>
        <pt x="250" y="642" on="0"/>
        <pt x="276" y="698" on="0"/>
        <pt x="276" y="727" on="1"/>
        <pt x="276" y="742" on="0"/>
        <pt x="268" y="773" on="0"/>
        <pt x="262" y="790" on="1"/>
      </contour>
    </TTGlyph>
    <TTGlyph name="caron.alt.cap" xMin="209" yMin="562" xMax="326" yMax="753">
      <contour>
        <pt x="315" y="753" on="1"/>
        <pt x="326" y="726" on="0"/>
        <pt x="326" y="701" on="1"/>
        <pt x="326" y="663" on="0"/>
        <pt x="281" y="592" on="0"/>
        <pt x="244" y="562" on="1"/>
        <pt x="209" y="571" on="1"/>
        <pt x="235" y="603" on="0"/>
        <pt x="260" y="654" on="0"/>
        <pt x="260" y="681" on="1"/>
        <pt x="260" y="695" on="0"/>
        <pt x="253" y="724" on="0"/>
        <pt x="247" y="741" on="1"/>
      </contour>
    </TTGlyph>
    <TTGlyph name="caron.cap" xMin="167" yMin="567" xMax="419" yMax="712">
      <contour>
        <pt x="212" y="712" on="1"/>
        <pt x="278" y="631" on="1"/>
        <pt x="368" y="712" on="1"/>
        <pt x="419" y="712" on="1"/>
        <pt x="302" y="567" on="1"/>
        <pt x="239" y="567" on="1"/>
        <pt x="167" y="712" on="1"/>
      </contour>
    </TTGlyph>
    <TTGlyph name="ccaron" xMin="45" yMin="-10" xMax="464" yMax="761">
      <component glyphName="caron" x="19" y="2" flags="0x4"/>
      <component glyphName="c" x="0" y="0" flags="0x4"/>
    </TTGlyph>
    <TTGlyph name="ccedilla" xMin="45" yMin="-209" xMax="427" yMax="544">
      <component glyphName="c" x="0" y="0" flags="0x204"/>
      <component glyphName="cedilla" x="2" y="0" flags="0x4"/>
    </TTGlyph>
    <TTGlyph name="cdotaccent" xMin="45" yMin="-10" xMax="427" yMax="712">
      <component glyphName="c" x="0" y="0" flags="0x204"/>
      <component glyphName="dotaccent" x="18" y="2" flags="0x4"/>
    </TTGlyph>
    <TTGlyph name="cedilla" xMin="62" yMin="-209" xMax="255" yMax="-64">
      <contour>
        <pt x="114" y="-209" on="1"/>
        <pt x="62" y="-209" on="1"/>
        <pt x="169" y="-64" on="1"/>
        <pt x="255" y="-88" on="1"/>
      </contour>
    </TTGlyph>
    <TTGlyph name="cedilla.cap" xMin="58" yMin="-197" xMax="241" yMax="-60">
      <contour>
        <pt x="108" y="-197" on="1"/>
        <pt x="58" y="-197" on="1"/>
        <pt x="157" y="-60" on="1"/>
        <pt x="241" y="-83" on="1"/>
      </contour>
    </TTGlyph>
    <TTGlyph name="cent" xMin="64" yMin="-12" xMax="443" yMax="727">
      <contour>
        <pt x="372" y="606" on="1"/>
        <pt x="394" y="599" on="0"/>
        <pt x="429" y="578" on="0"/>
        <pt x="443" y="566" on="1"/>
        <pt x="424" y="504" on="1"/>
        <pt x="391" y="534" on="0"/>
        <pt x="352" y="547" on="1"/>
        <pt x="235" y="161" on="1"/>
        <pt x="240" y="160" on="0"/>
        <pt x="250" y="160" on="0"/>
        <pt x="255" y="160" on="1"/>
        <pt x="291" y="160" on="0"/>
        <pt x="359" y="188" on="0"/>
        <pt x="390" y="210" on="1"/>
        <pt x="390" y="145" on="1"/>
        <pt x="363" y="127" on="0"/>
        <pt x="291" y="100" on="0"/>
        <pt x="248" y="100" on="1"/>
        <pt x="240" y="100" on="0"/>
        <pt x="226" y="101" on="0"/>
        <pt x="218" y="102" on="1"/>
        <pt x="183" y="-12" on="1"/>
        <pt x="132" y="0" on="1"/>
        <pt x="168" y="118" on="1"/>
        <pt x="121" y="140" on="0"/>
        <pt x="64" y="237" on="0"/>
        <pt x="64" y="309" on="1"/>
        <pt x="64" y="371" on="0"/>
        <pt x="99" y="482" on="0"/>
        <pt x="162" y="566" on="0"/>
        <pt x="250" y="616" on="0"/>
        <pt x="303" y="616" on="1"/>
        <pt x="308" y="616" on="0"/>
        <pt x="316" y="616" on="0"/>
        <pt x="321" y="615" on="1"/>
        <pt x="354" y="727" on="1"/>
        <pt x="405" y="716" on="1"/>
      </contour>
      <contour>
        <pt x="133" y="312" on="1"/>
        <pt x="133" y="262" on="0"/>
        <pt x="163" y="197" on="0"/>
        <pt x="188" y="180" on="1"/>
        <pt x="304" y="556" on="1"/>
        <pt x="298" y="556" on="1"/>
        <pt x="261" y="556" on="0"/>
        <pt x="200" y="515" on="0"/>
        <pt x="157" y="447" on="0"/>
        <pt x="133" y="359" on="0"/>
      </contour>
    </TTGlyph>
    <TTGlyph name="cent.tab" xMin="93" yMin="-12" xMax="489" yMax="727">
      <contour>
        <pt x="406" y="607" on="1"/>
        <pt x="432" y="600" on="0"/>
        <pt x="472" y="579" on="0"/>
        <pt x="489" y="566" on="1"/>
        <pt x="470" y="504" on="1"/>
        <pt x="433" y="536" on="0"/>
        <pt x="388" y="548" on="1"/>
        <pt x="272" y="162" on="1"/>
        <pt x="277" y="161" on="0"/>
        <pt x="288" y="161" on="0"/>
        <pt x="294" y="161" on="1"/>
        <pt x="332" y="161" on="0"/>
        <pt x="399" y="186" on="0"/>
        <pt x="432" y="207" on="1"/>
        <pt x="433" y="144" on="1"/>
        <pt x="405" y="127" on="0"/>
        <pt x="332" y="101" on="0"/>
        <pt x="286" y="101" on="1"/>
        <pt x="278" y="101" on="0"/>
        <pt x="263" y="102" on="0"/>
        <pt x="256" y="103" on="1"/>
        <pt x="221" y="-12" on="1"/>
        <pt x="169" y="0" on="1"/>
        <pt x="204" y="117" on="1"/>
        <pt x="154" y="139" on="0"/>
        <pt x="93" y="235" on="0"/>
        <pt x="93" y="309" on="1"/>
        <pt x="93" y="371" on="0"/>
        <pt x="130" y="482" on="0"/>
        <pt x="196" y="566" on="0"/>
        <pt x="288" y="615" on="0"/>
        <pt x="343" y="615" on="1"/>
        <pt x="356" y="615" on="1"/>
        <pt x="388" y="727" on="1"/>
        <pt x="440" y="716" on="1"/>
      </contour>
      <contour>
        <pt x="161" y="315" on="1"/>
        <pt x="161" y="262" on="0"/>
        <pt x="195" y="195" on="0"/>
        <pt x="224" y="178" on="1"/>
        <pt x="339" y="555" on="1"/>
        <pt x="335" y="555" on="1"/>
        <pt x="295" y="555" on="0"/>
        <pt x="230" y="514" on="0"/>
        <pt x="185" y="447" on="0"/>
        <pt x="161" y="361" on="0"/>
      </contour>
    </TTGlyph>
    <TTGlyph name="circumflex" xMin="155" yMin="605" xMax="421" yMax="760">
      <contour>
        <pt x="374" y="605" on="1"/>
        <pt x="304" y="693" on="1"/>
        <pt x="207" y="605" on="1"/>
        <pt x="155" y="605" on="1"/>
        <pt x="280" y="760" on="1"/>
        <pt x="344" y="760" on="1"/>
        <pt x="421" y="605" on="1"/>
      </contour>
    </TTGlyph>
    <TTGlyph name="circumflex.cap" xMin="144" yMin="567" xMax="396" yMax="713">
      <contour>
        <pt x="351" y="567" on="1"/>
        <pt x="286" y="649" on="1"/>
        <pt x="195" y="567" on="1"/>
        <pt x="144" y="567" on="1"/>
        <pt x="262" y="713" on="1"/>
        <pt x="324" y="713" on="1"/>
        <pt x="396" y="567" on="1"/>
      </contour>
    </TTGlyph>
    <TTGlyph name="colon" xMin="30" yMin="0" xMax="194" yMax="533">
      <contour>
        <pt x="178" y="422" on="1"/>
        <pt x="92" y="422" on="1"/>
        <pt x="108" y="533" on="1"/>
        <pt x="194" y="533" on="1"/>
      </contour>
      <contour>
        <pt x="116" y="0" on="1"/>
        <pt x="30" y="0" on="1"/>
        <pt x="47" y="112" on="1"/>
        <pt x="133" y="112" on="1"/>
      </contour>
    </TTGlyph>
    <TTGlyph name="colon.tab" xMin="50" yMin="0" xMax="216" yMax="533">
      <contour>
        <pt x="113" y="421" on="1"/>
        <pt x="129" y="533" on="1"/>
        <pt x="216" y="533" on="1"/>
        <pt x="199" y="421" on="1"/>
      </contour>
      <contour>
        <pt x="50" y="0" on="1"/>
        <pt x="67" y="112" on="1"/>
        <pt x="153" y="112" on="1"/>
        <pt x="137" y="0" on="1"/>
      </contour>
    </TTGlyph>
    <TTGlyph name="colonmonetary" xMin="58" yMin="-123" xMax="573" yMax="803">
      <contour>
        <pt x="410" y="717" on="1"/>
        <pt x="453" y="711" on="0"/>
        <pt x="488" y="692" on="1"/>
        <pt x="522" y="802" on="1"/>
        <pt x="573" y="788" on="1"/>
        <pt x="357" y="63" on="1"/>
        <pt x="383" y="70" on="0"/>
        <pt x="431" y="94" on="0"/>
        <pt x="454" y="111" on="1"/>
        <pt x="454" y="43" on="1"/>
        <pt x="428" y="28" on="0"/>
        <pt x="371" y="4" on="0"/>
        <pt x="337" y="-1" on="1"/>
        <pt x="301" y="-123" on="1"/>
        <pt x="250" y="-108" on="1"/>
        <pt x="281" y="-5" on="1"/>
        <pt x="238" y="-4" on="0"/>
        <pt x="199" y="12" on="1"/>
        <pt x="159" y="-121" on="1"/>
        <pt x="108" y="-107" on="1"/>
        <pt x="152" y="40" on="1"/>
        <pt x="108" y="74" on="0"/>
        <pt x="58" y="193" on="0"/>
        <pt x="58" y="280" on="1"/>
        <pt x="58" y="358" on="0"/>
        <pt x="96" y="506" on="0"/>
        <pt x="167" y="626" on="0"/>
        <pt x="270" y="707" on="0"/>
        <pt x="335" y="717" on="1"/>
        <pt x="340" y="718" on="0"/>
        <pt x="349" y="719" on="0"/>
        <pt x="354" y="719" on="1"/>
        <pt x="380" y="803" on="1"/>
        <pt x="431" y="789" on="1"/>
      </contour>
      <contour>
        <pt x="126" y="275" on="1"/>
        <pt x="126" y="216" on="0"/>
        <pt x="150" y="134" on="0"/>
        <pt x="173" y="107" on="1"/>
        <pt x="338" y="658" on="1"/>
        <pt x="288" y="649" on="0"/>
        <pt x="210" y="580" on="0"/>
        <pt x="155" y="476" on="0"/>
        <pt x="126" y="345" on="0"/>
      </contour>
      <contour>
        <pt x="303" y="55" on="1"/>
        <pt x="474" y="629" on="1"/>
        <pt x="456" y="640" on="0"/>
        <pt x="413" y="657" on="0"/>
        <pt x="389" y="660" on="1"/>
        <pt x="213" y="74" on="1"/>
        <pt x="248" y="55" on="0"/>
        <pt x="295" y="55" on="1"/>
      </contour>
    </TTGlyph>
    <TTGlyph name="comma" xMin="-23" yMin="-144" xMax="147" yMax="112">
      <contour>
        <pt x="17" y="-144" on="1"/>
        <pt x="-23" y="-134" on="1"/>
        <pt x="56" y="112" on="1"/>
        <pt x="147" y="112" on="1"/>
      </contour>
    </TTGlyph>
    <TTGlyph name="comma.alt" xMin="-29" yMin="-146" xMax="130" yMax="112">
      <contour>
        <pt x="128" y="112" on="1"/>
        <pt x="130" y="104" on="0"/>
        <pt x="130" y="89" on="0"/>
        <pt x="130" y="81" on="1"/>
        <pt x="129" y="21" on="0"/>
        <pt x="69" y="-90" on="0"/>
        <pt x="9" y="-146" on="1"/>
        <pt x="-29" y="-127" on="1"/>
        <pt x="16" y="-69" on="0"/>
        <pt x="50" y="36" on="0"/>
        <pt x="51" y="84" on="1"/>
        <pt x="51" y="92" on="0"/>
        <pt x="50" y="103" on="0"/>
        <pt x="49" y="112" on="1"/>
      </contour>
    </TTGlyph>
    <TTGlyph name="comma.tab" xMin="9" yMin="-156" xMax="170" yMax="112">
      <contour>
        <pt x="50" y="-156" on="1"/>
        <pt x="9" y="-146" on="1"/>
        <pt x="81" y="112" on="1"/>
        <pt x="170" y="112" on="1"/>
      </contour>
    </TTGlyph>
    <TTGlyph name="comma.tab_alt" xMin="-11" yMin="-155" xMax="152" yMax="112">
      <contour>
        <pt x="150" y="112" on="1"/>
        <pt x="151" y="104" on="0"/>
        <pt x="152" y="90" on="0"/>
        <pt x="152" y="84" on="1"/>
        <pt x="151" y="20" on="0"/>
        <pt x="89" y="-95" on="0"/>
        <pt x="26" y="-155" on="1"/>
        <pt x="-11" y="-136" on="1"/>
        <pt x="36" y="-75" on="0"/>
        <pt x="73" y="34" on="0"/>
        <pt x="73" y="85" on="1"/>
        <pt x="73" y="93" on="0"/>
        <pt x="73" y="104" on="0"/>
        <pt x="72" y="112" on="1"/>
      </contour>
    </TTGlyph>
    <TTGlyph name="commaaccent" xMin="112" yMin="-256" xMax="248" yMax="-66">
      <contour>
        <pt x="219" y="-66" on="1"/>
        <pt x="248" y="-98" on="0"/>
        <pt x="248" y="-130" on="1"/>
        <pt x="248" y="-162" on="0"/>
        <pt x="205" y="-221" on="0"/>
        <pt x="157" y="-256" on="1"/>
        <pt x="112" y="-246" on="1"/>
        <pt x="146" y="-213" on="0"/>
        <pt x="175" y="-164" on="0"/>
        <pt x="175" y="-143" on="1"/>
        <pt x="175" y="-129" on="0"/>
        <pt x="162" y="-103" on="0"/>
        <pt x="148" y="-87" on="1"/>
      </contour>
    </TTGlyph>
    <TTGlyph name="commaaccent.cap" xMin="106" yMin="-241" xMax="235" yMax="-61">
      <contour>
        <pt x="208" y="-61" on="1"/>
        <pt x="235" y="-93" on="0"/>
        <pt x="235" y="-122" on="1"/>
        <pt x="235" y="-152" on="0"/>
        <pt x="195" y="-208" on="0"/>
        <pt x="150" y="-241" on="1"/>
        <pt x="106" y="-231" on="1"/>
        <pt x="137" y="-200" on="0"/>
        <pt x="164" y="-155" on="0"/>
        <pt x="164" y="-135" on="1"/>
        <pt x="164" y="-121" on="0"/>
        <pt x="152" y="-97" on="0"/>
        <pt x="139" y="-82" on="1"/>
      </contour>
    </TTGlyph>
    <TTGlyph name="commaaccent.rot" xMin="282" yMin="608" xMax="418" yMax="798">
      <contour>
        <pt x="311" y="608" on="1"/>
        <pt x="282" y="640" on="0"/>
        <pt x="282" y="673" on="1"/>
        <pt x="282" y="705" on="0"/>
        <pt x="326" y="764" on="0"/>
        <pt x="373" y="798" on="1"/>
        <pt x="418" y="789" on="1"/>
        <pt x="385" y="755" on="0"/>
        <pt x="355" y="708" on="0"/>
        <pt x="355" y="686" on="1"/>
        <pt x="355" y="672" on="0"/>
        <pt x="369" y="646" on="0"/>
        <pt x="383" y="629" on="1"/>
      </contour>
    </TTGlyph>
    <TTGlyph name="copyright" xMin="81" yMin="-18" xMax="733" yMax="742">
      <contour>
        <pt x="733" y="363" on="1"/>
        <pt x="733" y="279" on="0"/>
        <pt x="686" y="139" on="0"/>
        <pt x="600" y="38" on="0"/>
        <pt x="480" y="-18" on="0"/>
        <pt x="407" y="-18" on="1"/>
        <pt x="334" y="-18" on="0"/>
        <pt x="214" y="38" on="0"/>
        <pt x="128" y="139" on="0"/>
        <pt x="81" y="278" on="0"/>
        <pt x="81" y="362" on="1"/>
        <pt x="81" y="446" on="0"/>
        <pt x="128" y="585" on="0"/>
        <pt x="214" y="686" on="0"/>
        <pt x="334" y="742" on="0"/>
        <pt x="407" y="742" on="1"/>
        <pt x="480" y="742" on="0"/>
        <pt x="600" y="686" on="0"/>
        <pt x="686" y="586" on="0"/>
        <pt x="733" y="447" on="0"/>
      </contour>
      <contour>
        <pt x="694" y="362" on="1"/>
        <pt x="694" y="442" on="0"/>
        <pt x="651" y="571" on="0"/>
        <pt x="574" y="661" on="0"/>
        <pt x="469" y="710" on="0"/>
        <pt x="407" y="710" on="1"/>
        <pt x="344" y="710" on="0"/>
        <pt x="239" y="661" on="0"/>
        <pt x="162" y="570" on="0"/>
        <pt x="120" y="441" on="0"/>
        <pt x="120" y="362" on="1"/>
        <pt x="120" y="282" on="0"/>
        <pt x="163" y="154" on="0"/>
        <pt x="240" y="64" on="0"/>
        <pt x="345" y="16" on="0"/>
        <pt x="408" y="16" on="1"/>
        <pt x="471" y="16" on="0"/>
        <pt x="576" y="65" on="0"/>
        <pt x="652" y="155" on="0"/>
        <pt x="694" y="283" on="0"/>
      </contour>
      <contour>
        <pt x="528" y="190" on="1"/>
        <pt x="505" y="172" on="0"/>
        <pt x="449" y="151" on="0"/>
        <pt x="415" y="151" on="1"/>
        <pt x="377" y="151" on="0"/>
        <pt x="316" y="181" on="0"/>
        <pt x="273" y="237" on="0"/>
        <pt x="249" y="316" on="0"/>
        <pt x="249" y="365" on="1"/>
        <pt x="249" y="413" on="0"/>
        <pt x="273" y="493" on="0"/>
        <pt x="318" y="550" on="0"/>
        <pt x="380" y="581" on="0"/>
        <pt x="419" y="581" on="1"/>
        <pt x="450" y="581" on="0"/>
        <pt x="499" y="564" on="0"/>
        <pt x="522" y="549" on="1"/>
        <pt x="513" y="491" on="1"/>
        <pt x="488" y="510" on="0"/>
        <pt x="444" y="527" on="0"/>
        <pt x="418" y="527" on="1"/>
        <pt x="392" y="527" on="0"/>
        <pt x="351" y="503" on="0"/>
        <pt x="323" y="461" on="0"/>
        <pt x="307" y="402" on="0"/>
        <pt x="307" y="366" on="1"/>
        <pt x="307" y="293" on="0"/>
        <pt x="367" y="204" on="0"/>
        <pt x="418" y="204" on="1"/>
        <pt x="447" y="204" on="0"/>
        <pt x="495" y="225" on="0"/>
        <pt x="521" y="245" on="1"/>
      </contour>
    </TTGlyph>
    <TTGlyph name="d" xMin="44" yMin="-11" xMax="516" yMax="805">
      <contour>
        <pt x="417" y="140" on="1"/>
        <pt x="417" y="0" on="1"/>
        <pt x="352" y="0" on="1"/>
        <pt x="347" y="91" on="1"/>
        <pt x="308" y="46" on="0"/>
        <pt x="230" y="-11" on="0"/>
        <pt x="185" y="-11" on="1"/>
        <pt x="122" y="-11" on="0"/>
        <pt x="44" y="88" on="0"/>
        <pt x="44" y="182" on="1"/>
        <pt x="44" y="260" on="0"/>
        <pt x="86" y="391" on="0"/>
        <pt x="159" y="486" on="0"/>
        <pt x="257" y="540" on="0"/>
        <pt x="313" y="540" on="1"/>
        <pt x="338" y="540" on="0"/>
        <pt x="382" y="531" on="0"/>
        <pt x="402" y="524" on="1"/>
        <pt x="441" y="791" on="1"/>
        <pt x="516" y="805" on="1"/>
      </contour>
      <contour>
        <pt x="391" y="459" on="1"/>
        <pt x="371" y="469" on="0"/>
        <pt x="334" y="477" on="0"/>
        <pt x="310" y="477" on="1"/>
        <pt x="271" y="477" on="0"/>
        <pt x="201" y="435" on="0"/>
        <pt x="148" y="358" on="0"/>
        <pt x="117" y="251" on="0"/>
        <pt x="117" y="186" on="1"/>
        <pt x="117" y="124" on="0"/>
        <pt x="159" y="54" on="0"/>
        <pt x="198" y="54" on="1"/>
        <pt x="233" y="54" on="0"/>
        <pt x="302" y="112" on="0"/>
        <pt x="347" y="160" on="1"/>
      </contour>
    </TTGlyph>
    <TTGlyph name="dagger" xMin="90" yMin="-102" xMax="484" yMax="725">
      <contour>
        <pt x="304" y="518" on="1"/>
        <pt x="280" y="518" on="1"/>
        <pt x="279" y="639" on="1"/>
        <pt x="292" y="725" on="1"/>
        <pt x="354" y="725" on="1"/>
        <pt x="341" y="640" on="1"/>
      </contour>
      <contour>
        <pt x="428" y="455" on="1"/>
        <pt x="316" y="474" on="1"/>
        <pt x="319" y="497" on="1"/>
        <pt x="437" y="517" on="1"/>
        <pt x="484" y="517" on="1"/>
        <pt x="474" y="455" on="1"/>
      </contour>
      <contour>
        <pt x="137" y="455" on="1"/>
        <pt x="90" y="455" on="1"/>
        <pt x="100" y="517" on="1"/>
        <pt x="146" y="517" on="1"/>
        <pt x="257" y="497" on="1"/>
        <pt x="254" y="474" on="1"/>
      </contour>
      <contour>
        <pt x="210" y="-102" on="1"/>
        <pt x="189" y="-102" on="1"/>
        <pt x="190" y="26" on="1"/>
        <pt x="237" y="336" on="1"/>
        <pt x="270" y="454" on="1"/>
        <pt x="294" y="454" on="1"/>
        <pt x="293" y="336" on="1"/>
        <pt x="247" y="26" on="1"/>
      </contour>
    </TTGlyph>
    <TTGlyph name="daggerdbl" xMin="33" yMin="-173" xMax="488" yMax="725">
      <contour>
        <pt x="309" y="518" on="1"/>
        <pt x="285" y="518" on="1"/>
        <pt x="284" y="639" on="1"/>
        <pt x="297" y="725" on="1"/>
        <pt x="359" y="725" on="1"/>
        <pt x="346" y="640" on="1"/>
      </contour>
      <contour>
        <pt x="433" y="455" on="1"/>
        <pt x="322" y="474" on="1"/>
        <pt x="325" y="497" on="1"/>
        <pt x="442" y="517" on="1"/>
        <pt x="488" y="517" on="1"/>
        <pt x="479" y="455" on="1"/>
      </contour>
      <contour>
        <pt x="142" y="455" on="1"/>
        <pt x="95" y="455" on="1"/>
        <pt x="104" y="517" on="1"/>
        <pt x="151" y="517" on="1"/>
        <pt x="263" y="497" on="1"/>
        <pt x="259" y="474" on="1"/>
      </contour>
      <contour>
        <pt x="247" y="99" on="1"/>
        <pt x="222" y="99" on="1"/>
        <pt x="224" y="216" on="1"/>
        <pt x="241" y="336" on="1"/>
        <pt x="275" y="454" on="1"/>
        <pt x="300" y="454" on="1"/>
        <pt x="298" y="337" on="1"/>
        <pt x="281" y="217" on="1"/>
      </contour>
      <contour>
        <pt x="371" y="36" on="1"/>
        <pt x="259" y="55" on="1"/>
        <pt x="262" y="79" on="1"/>
        <pt x="380" y="98" on="1"/>
        <pt x="427" y="98" on="1"/>
        <pt x="417" y="36" on="1"/>
      </contour>
      <contour>
        <pt x="80" y="36" on="1"/>
        <pt x="33" y="36" on="1"/>
        <pt x="43" y="98" on="1"/>
        <pt x="89" y="98" on="1"/>
        <pt x="200" y="79" on="1"/>
        <pt x="197" y="55" on="1"/>
      </contour>
      <contour>
        <pt x="163" y="-173" on="1"/>
        <pt x="175" y="-88" on="1"/>
        <pt x="212" y="35" on="1"/>
        <pt x="236" y="35" on="1"/>
        <pt x="237" y="-86" on="1"/>
        <pt x="225" y="-173" on="1"/>
      </contour>
    </TTGlyph>
    <TTGlyph name="dcaron" xMin="44" yMin="-11" xMax="653" yMax="808">
      <component glyphName="caron.alt" x="309" y="5" flags="0x4"/>
      <component glyphName="d" x="0" y="0" flags="0x4"/>
    </TTGlyph>
    <TTGlyph name="dcroat" xMin="44" yMin="-11" xMax="577" yMax="805">
      <contour>
        <pt x="501" y="706" on="1"/>
        <pt x="577" y="706" on="1"/>
        <pt x="568" y="646" on="1"/>
        <pt x="492" y="646" on="1"/>
        <pt x="417" y="140" on="1"/>
        <pt x="417" y="0" on="1"/>
        <pt x="352" y="0" on="1"/>
        <pt x="347" y="91" on="1"/>
        <pt x="308" y="46" on="0"/>
        <pt x="230" y="-11" on="0"/>
        <pt x="185" y="-11" on="1"/>
        <pt x="122" y="-11" on="0"/>
        <pt x="44" y="88" on="0"/>
        <pt x="44" y="182" on="1"/>
        <pt x="44" y="260" on="0"/>
        <pt x="86" y="391" on="0"/>
        <pt x="159" y="486" on="0"/>
        <pt x="257" y="540" on="0"/>
        <pt x="313" y="540" on="1"/>
        <pt x="338" y="540" on="0"/>
        <pt x="382" y="531" on="0"/>
        <pt x="402" y="524" on="1"/>
        <pt x="420" y="646" on="1"/>
        <pt x="295" y="646" on="1"/>
        <pt x="295" y="706" on="1"/>
        <pt x="429" y="706" on="1"/>
        <pt x="441" y="791" on="1"/>
        <pt x="516" y="805" on="1"/>
      </contour>
      <contour>
        <pt x="391" y="459" on="1"/>
        <pt x="371" y="469" on="0"/>
        <pt x="334" y="477" on="0"/>
        <pt x="310" y="477" on="1"/>
        <pt x="271" y="477" on="0"/>
        <pt x="201" y="435" on="0"/>
        <pt x="148" y="358" on="0"/>
        <pt x="117" y="251" on="0"/>
        <pt x="117" y="186" on="1"/>
        <pt x="117" y="124" on="0"/>
        <pt x="159" y="54" on="0"/>
        <pt x="198" y="54" on="1"/>
        <pt x="233" y="54" on="0"/>
        <pt x="302" y="112" on="0"/>
        <pt x="347" y="160" on="1"/>
      </contour>
    </TTGlyph>
    <TTGlyph name="dcroat.flat" xMin="44" yMin="-11" xMax="577" yMax="805">
      <contour>
        <pt x="501" y="706" on="1"/>
        <pt x="577" y="706" on="1"/>
        <pt x="568" y="646" on="1"/>
        <pt x="492" y="646" on="1"/>
        <pt x="417" y="140" on="1"/>
        <pt x="417" y="0" on="1"/>
        <pt x="352" y="0" on="1"/>
        <pt x="347" y="91" on="1"/>
        <pt x="308" y="46" on="0"/>
        <pt x="230" y="-11" on="0"/>
        <pt x="185" y="-11" on="1"/>
        <pt x="122" y="-11" on="0"/>
        <pt x="44" y="88" on="0"/>
        <pt x="44" y="182" on="1"/>
        <pt x="44" y="260" on="0"/>
        <pt x="86" y="391" on="0"/>
        <pt x="159" y="486" on="0"/>
        <pt x="257" y="540" on="0"/>
        <pt x="313" y="540" on="1"/>
        <pt x="338" y="540" on="0"/>
        <pt x="382" y="531" on="0"/>
        <pt x="402" y="524" on="1"/>
        <pt x="420" y="646" on="1"/>
        <pt x="289" y="646" on="1"/>
        <pt x="299" y="706" on="1"/>
        <pt x="429" y="706" on="1"/>
        <pt x="441" y="791" on="1"/>
        <pt x="516" y="805" on="1"/>
      </contour>
      <contour>
        <pt x="391" y="459" on="1"/>
        <pt x="371" y="469" on="0"/>
        <pt x="334" y="477" on="0"/>
        <pt x="310" y="477" on="1"/>
        <pt x="271" y="477" on="0"/>
        <pt x="201" y="435" on="0"/>
        <pt x="148" y="358" on="0"/>
        <pt x="117" y="251" on="0"/>
        <pt x="117" y="186" on="1"/>
        <pt x="117" y="124" on="0"/>
        <pt x="159" y="54" on="0"/>
        <pt x="198" y="54" on="1"/>
        <pt x="233" y="54" on="0"/>
        <pt x="302" y="112" on="0"/>
        <pt x="347" y="160" on="1"/>
      </contour>
    </TTGlyph>
    <TTGlyph name="degree" xMin="106" yMin="424" xMax="406" yMax="724">
      <contour>
        <pt x="406" y="573" on="1"/>
        <pt x="406" y="541" on="0"/>
        <pt x="383" y="487" on="0"/>
        <pt x="343" y="447" on="0"/>
        <pt x="288" y="424" on="0"/>
        <pt x="256" y="424" on="1"/>
        <pt x="224" y="424" on="0"/>
        <pt x="169" y="447" on="0"/>
        <pt x="129" y="487" on="0"/>
        <pt x="106" y="541" on="0"/>
        <pt x="106" y="573" on="1"/>
        <pt x="106" y="605" on="0"/>
        <pt x="129" y="660" on="0"/>
        <pt x="169" y="701" on="0"/>
        <pt x="224" y="724" on="0"/>
        <pt x="256" y="724" on="1"/>
        <pt x="288" y="724" on="0"/>
        <pt x="343" y="701" on="0"/>
        <pt x="383" y="660" on="0"/>
        <pt x="406" y="605" on="0"/>
      </contour>
      <contour>
        <pt x="350" y="573" on="1"/>
        <pt x="350" y="615" on="0"/>
        <pt x="298" y="673" on="0"/>
        <pt x="256" y="673" on="1"/>
        <pt x="214" y="673" on="0"/>
        <pt x="162" y="615" on="0"/>
        <pt x="162" y="573" on="1"/>
        <pt x="162" y="531" on="0"/>
        <pt x="214" y="475" on="0"/>
        <pt x="256" y="475" on="1"/>
        <pt x="298" y="475" on="0"/>
        <pt x="350" y="531" on="0"/>
      </contour>
    </TTGlyph>
    <TTGlyph name="degree.tab" xMin="133" yMin="384" xMax="477" yMax="726">
      <contour>
        <pt x="305" y="384" on="1"/>
        <pt x="268" y="384" on="0"/>
        <pt x="205" y="409" on="0"/>
        <pt x="159" y="454" on="0"/>
        <pt x="133" y="517" on="0"/>
        <pt x="133" y="554" on="1"/>
        <pt x="133" y="591" on="0"/>
        <pt x="159" y="654" on="0"/>
        <pt x="205" y="700" on="0"/>
        <pt x="268" y="726" on="0"/>
        <pt x="305" y="726" on="1"/>
        <pt x="342" y="726" on="0"/>
        <pt x="406" y="700" on="0"/>
        <pt x="451" y="654" on="0"/>
        <pt x="477" y="591" on="0"/>
        <pt x="477" y="554" on="1"/>
        <pt x="477" y="517" on="0"/>
        <pt x="451" y="454" on="0"/>
        <pt x="405" y="409" on="0"/>
        <pt x="342" y="384" on="0"/>
      </contour>
      <contour>
        <pt x="305" y="673" on="1"/>
        <pt x="254" y="673" on="0"/>
        <pt x="190" y="605" on="0"/>
        <pt x="190" y="554" on="1"/>
        <pt x="190" y="528" on="0"/>
        <pt x="207" y="485" on="0"/>
        <pt x="238" y="454" on="0"/>
        <pt x="281" y="436" on="0"/>
        <pt x="306" y="436" on="1"/>
        <pt x="330" y="436" on="0"/>
        <pt x="372" y="454" on="0"/>
        <pt x="403" y="485" on="0"/>
        <pt x="420" y="528" on="0"/>
        <pt x="420" y="554" on="1"/>
        <pt x="420" y="579" on="0"/>
        <pt x="403" y="623" on="0"/>
        <pt x="372" y="655" on="0"/>
        <pt x="330" y="673" on="0"/>
      </contour>
    </TTGlyph>
    <TTGlyph name="dieresis" xMin="162" yMin="612" xMax="432" yMax="710">
      <contour>
        <pt x="333" y="612" on="1"/>
        <pt x="347" y="710" on="1"/>
        <pt x="432" y="710" on="1"/>
        <pt x="418" y="612" on="1"/>
      </contour>
      <contour>
        <pt x="162" y="612" on="1"/>
        <pt x="178" y="710" on="1"/>
        <pt x="262" y="710" on="1"/>
        <pt x="247" y="612" on="1"/>
      </contour>
    </TTGlyph>
    <TTGlyph name="dieresis.cap" xMin="151" yMin="574" xMax="408" yMax="667">
      <contour>
        <pt x="312" y="574" on="1"/>
        <pt x="326" y="667" on="1"/>
        <pt x="408" y="667" on="1"/>
        <pt x="394" y="574" on="1"/>
      </contour>
      <contour>
        <pt x="151" y="574" on="1"/>
        <pt x="166" y="667" on="1"/>
        <pt x="246" y="667" on="1"/>
        <pt x="232" y="574" on="1"/>
      </contour>
    </TTGlyph>
    <TTGlyph name="divide" xMin="72" yMin="138" xMax="499" yMax="580">
      <contour>
        <pt x="266" y="487" on="1"/>
        <pt x="280" y="580" on="1"/>
        <pt x="357" y="580" on="1"/>
        <pt x="343" y="487" on="1"/>
      </contour>
      <contour>
        <pt x="72" y="329" on="1"/>
        <pt x="81" y="388" on="1"/>
        <pt x="499" y="388" on="1"/>
        <pt x="490" y="329" on="1"/>
      </contour>
      <contour>
        <pt x="214" y="138" on="1"/>
        <pt x="228" y="231" on="1"/>
        <pt x="305" y="231" on="1"/>
        <pt x="291" y="138" on="1"/>
      </contour>
    </TTGlyph>
    <TTGlyph name="divide.tab" xMin="63" yMin="133" xMax="498" yMax="585">
      <contour>
        <pt x="262" y="491" on="1"/>
        <pt x="276" y="585" on="1"/>
        <pt x="354" y="585" on="1"/>
        <pt x="340" y="491" on="1"/>
      </contour>
      <contour>
        <pt x="63" y="329" on="1"/>
        <pt x="72" y="389" on="1"/>
        <pt x="498" y="389" on="1"/>
        <pt x="489" y="329" on="1"/>
      </contour>
      <contour>
        <pt x="208" y="133" on="1"/>
        <pt x="222" y="227" on="1"/>
        <pt x="301" y="227" on="1"/>
        <pt x="286" y="133" on="1"/>
      </contour>
    </TTGlyph>
    <TTGlyph name="dollar" xMin="14" yMin="-131" xMax="498" yMax="803">
      <contour>
        <pt x="406" y="709" on="1"/>
        <pt x="433" y="702" on="0"/>
        <pt x="480" y="683" on="0"/>
        <pt x="498" y="672" on="1"/>
        <pt x="480" y="606" on="1"/>
        <pt x="460" y="620" on="0"/>
        <pt x="412" y="642" on="0"/>
        <pt x="386" y="650" on="1"/>
        <pt x="310" y="394" on="1"/>
        <pt x="380" y="347" on="0"/>
        <pt x="448" y="256" on="0"/>
        <pt x="448" y="196" on="1"/>
        <pt x="448" y="151" on="0"/>
        <pt x="414" y="77" on="0"/>
        <pt x="355" y="24" on="0"/>
        <pt x="273" y="-4" on="0"/>
        <pt x="225" y="-4" on="1"/>
        <pt x="217" y="-4" on="0"/>
        <pt x="201" y="-3" on="0"/>
        <pt x="193" y="-2" on="1"/>
        <pt x="154" y="-131" on="1"/>
        <pt x="103" y="-119" on="1"/>
        <pt x="141" y="6" on="1"/>
        <pt x="103" y="15" on="0"/>
        <pt x="38" y="45" on="0"/>
        <pt x="14" y="60" on="1"/>
        <pt x="32" y="126" on="1"/>
        <pt x="61" y="106" on="0"/>
        <pt x="125" y="74" on="0"/>
        <pt x="160" y="65" on="1"/>
        <pt x="246" y="353" on="1"/>
        <pt x="216" y="373" on="0"/>
        <pt x="166" y="414" on="0"/>
        <pt x="131" y="460" on="0"/>
        <pt x="112" y="511" on="0"/>
        <pt x="112" y="542" on="1"/>
        <pt x="112" y="580" on="0"/>
        <pt x="140" y="645" on="0"/>
        <pt x="193" y="693" on="0"/>
        <pt x="268" y="721" on="0"/>
        <pt x="315" y="721" on="1"/>
        <pt x="326" y="721" on="0"/>
        <pt x="345" y="720" on="0"/>
        <pt x="354" y="719" on="1"/>
        <pt x="379" y="803" on="1"/>
        <pt x="431" y="791" on="1"/>
      </contour>
      <contour>
        <pt x="380" y="191" on="1"/>
        <pt x="380" y="230" on="0"/>
        <pt x="338" y="290" on="0"/>
        <pt x="289" y="325" on="1"/>
        <pt x="210" y="57" on="1"/>
        <pt x="215" y="56" on="0"/>
        <pt x="226" y="56" on="0"/>
        <pt x="231" y="56" on="1"/>
        <pt x="263" y="56" on="0"/>
        <pt x="318" y="76" on="0"/>
        <pt x="358" y="111" on="0"/>
        <pt x="380" y="161" on="0"/>
      </contour>
      <contour>
        <pt x="179" y="547" on="1"/>
        <pt x="179" y="512" on="0"/>
        <pt x="219" y="456" on="0"/>
        <pt x="267" y="423" on="1"/>
        <pt x="337" y="660" on="1"/>
        <pt x="330" y="660" on="0"/>
        <pt x="318" y="661" on="0"/>
        <pt x="311" y="661" on="1"/>
        <pt x="251" y="661" on="0"/>
        <pt x="179" y="597" on="0"/>
      </contour>
    </TTGlyph>
    <TTGlyph name="dollar.tab" xMin="14" yMin="-128" xMax="516" yMax="801">
      <contour>
        <pt x="418" y="709" on="1"/>
        <pt x="447" y="701" on="0"/>
        <pt x="496" y="678" on="0"/>
        <pt x="516" y="666" on="1"/>
        <pt x="496" y="602" on="1"/>
        <pt x="476" y="616" on="0"/>
        <pt x="426" y="641" on="0"/>
        <pt x="398" y="649" on="1"/>
        <pt x="321" y="393" on="1"/>
        <pt x="355" y="371" on="0"/>
        <pt x="409" y="329" on="0"/>
        <pt x="445" y="282" on="0"/>
        <pt x="464" y="230" on="0"/>
        <pt x="464" y="198" on="1"/>
        <pt x="464" y="152" on="0"/>
        <pt x="430" y="77" on="0"/>
        <pt x="369" y="25" on="0"/>
        <pt x="286" y="-4" on="0"/>
        <pt x="238" y="-4" on="1"/>
        <pt x="229" y="-4" on="0"/>
        <pt x="212" y="-3" on="0"/>
        <pt x="204" y="-2" on="1"/>
        <pt x="165" y="-128" on="1"/>
        <pt x="114" y="-117" on="1"/>
        <pt x="151" y="7" on="1"/>
        <pt x="109" y="17" on="0"/>
        <pt x="39" y="49" on="0"/>
        <pt x="14" y="66" on="1"/>
        <pt x="35" y="130" on="1"/>
        <pt x="64" y="110" on="0"/>
        <pt x="131" y="75" on="0"/>
        <pt x="170" y="66" on="1"/>
        <pt x="257" y="354" on="1"/>
        <pt x="227" y="373" on="0"/>
        <pt x="175" y="413" on="0"/>
        <pt x="138" y="457" on="0"/>
        <pt x="116" y="509" on="0"/>
        <pt x="116" y="541" on="1"/>
        <pt x="116" y="580" on="0"/>
        <pt x="145" y="646" on="0"/>
        <pt x="199" y="694" on="0"/>
        <pt x="276" y="721" on="0"/>
        <pt x="325" y="721" on="1"/>
        <pt x="336" y="721" on="0"/>
        <pt x="356" y="720" on="0"/>
        <pt x="366" y="719" on="1"/>
        <pt x="391" y="801" on="1"/>
        <pt x="442" y="788" on="1"/>
      </contour>
      <contour>
        <pt x="396" y="192" on="1"/>
        <pt x="396" y="234" on="0"/>
        <pt x="349" y="293" on="0"/>
        <pt x="301" y="325" on="1"/>
        <pt x="221" y="58" on="1"/>
        <pt x="226" y="57" on="0"/>
        <pt x="237" y="57" on="0"/>
        <pt x="242" y="57" on="1"/>
        <pt x="310" y="57" on="0"/>
        <pt x="396" y="129" on="0"/>
      </contour>
      <contour>
        <pt x="184" y="547" on="1"/>
        <pt x="184" y="509" on="0"/>
        <pt x="230" y="452" on="0"/>
        <pt x="277" y="421" on="1"/>
        <pt x="348" y="660" on="1"/>
        <pt x="341" y="660" on="0"/>
        <pt x="329" y="661" on="0"/>
        <pt x="322" y="661" on="1"/>
        <pt x="258" y="661" on="0"/>
        <pt x="184" y="599" on="0"/>
      </contour>
    </TTGlyph>
    <TTGlyph name="dotaccent" xMin="245" yMin="610" xMax="349" yMax="710">
      <contour>
        <pt x="245" y="610" on="1"/>
        <pt x="260" y="710" on="1"/>
        <pt x="349" y="710" on="1"/>
        <pt x="334" y="610" on="1"/>
      </contour>
    </TTGlyph>
    <TTGlyph name="dotaccent.cap" xMin="230" yMin="573" xMax="329" yMax="667">
      <contour>
        <pt x="230" y="573" on="1"/>
        <pt x="244" y="667" on="1"/>
        <pt x="329" y="667" on="1"/>
        <pt x="314" y="573" on="1"/>
      </contour>
    </TTGlyph>
    <TTGlyph name="dotlessi" xMin="44" yMin="0" xMax="197" yMax="533">
      <contour>
        <pt x="118" y="0" on="1"/>
        <pt x="44" y="0" on="1"/>
        <pt x="124" y="533" on="1"/>
        <pt x="197" y="533" on="1"/>
      </contour>
    </TTGlyph>
    <TTGlyph name="e" xMin="45" yMin="-11" xMax="436" yMax="544">
      <contour>
        <pt x="235" y="54" on="1"/>
        <pt x="275" y="54" on="0"/>
        <pt x="351" y="87" on="0"/>
        <pt x="389" y="116" on="1"/>
        <pt x="389" y="44" on="1"/>
        <pt x="353" y="19" on="0"/>
        <pt x="275" y="-11" on="0"/>
        <pt x="227" y="-11" on="1"/>
        <pt x="142" y="-11" on="0"/>
        <pt x="45" y="106" on="0"/>
        <pt x="45" y="209" on="1"/>
        <pt x="45" y="277" on="0"/>
        <pt x="82" y="399" on="0"/>
        <pt x="146" y="490" on="0"/>
        <pt x="233" y="544" on="0"/>
        <pt x="283" y="544" on="1"/>
        <pt x="322" y="544" on="0"/>
        <pt x="379" y="516" on="0"/>
        <pt x="417" y="465" on="0"/>
        <pt x="436" y="396" on="0"/>
        <pt x="436" y="356" on="1"/>
        <pt x="436" y="329" on="0"/>
        <pt x="430" y="278" on="0"/>
        <pt x="426" y="256" on="1"/>
        <pt x="122" y="256" on="1"/>
        <pt x="121" y="250" on="0"/>
        <pt x="118" y="216" on="0"/>
        <pt x="118" y="210" on="1"/>
        <pt x="118" y="135" on="0"/>
        <pt x="181" y="54" on="0"/>
      </contour>
      <contour>
        <pt x="278" y="484" on="1"/>
        <pt x="254" y="484" on="0"/>
        <pt x="209" y="459" on="0"/>
        <pt x="171" y="414" on="0"/>
        <pt x="140" y="351" on="0"/>
        <pt x="131" y="314" on="1"/>
        <pt x="361" y="314" on="1"/>
        <pt x="363" y="325" on="0"/>
        <pt x="363" y="347" on="0"/>
        <pt x="363" y="357" on="1"/>
        <pt x="363" y="417" on="0"/>
        <pt x="322" y="484" on="0"/>
      </contour>
    </TTGlyph>
    <TTGlyph name="eacute" xMin="45" yMin="-11" xMax="472" yMax="766">
      <component glyphName="acute" x="66" y="2" flags="0x4"/>
      <component glyphName="e" x="0" y="0" flags="0x4"/>
    </TTGlyph>
    <TTGlyph name="ebreve" xMin="45" yMin="-11" xMax="445" yMax="742">
      <component glyphName="e" x="0" y="0" flags="0x204"/>
      <component glyphName="breve" x="6" y="2" flags="0x4"/>
    </TTGlyph>
    <TTGlyph name="ecaron" xMin="45" yMin="-11" xMax="455" yMax="761">
      <component glyphName="caron" x="10" y="2" flags="0x4"/>
      <component glyphName="e" x="0" y="0" flags="0x4"/>
    </TTGlyph>
    <TTGlyph name="ecircumflex" xMin="45" yMin="-11" xMax="436" yMax="762">
      <component glyphName="circumflex" x="9" y="2" flags="0x4"/>
      <component glyphName="e" x="0" y="0" flags="0x4"/>
    </TTGlyph>
    <TTGlyph name="edieresis" xMin="45" yMin="-11" xMax="442" yMax="712">
      <component glyphName="dieresis" x="10" y="2" flags="0x4"/>
      <component glyphName="e" x="0" y="0" flags="0x4"/>
    </TTGlyph>
    <TTGlyph name="edotaccent" xMin="45" yMin="-11" xMax="436" yMax="712">
      <component glyphName="e" x="0" y="0" flags="0x204"/>
      <component glyphName="dotaccent" x="10" y="2" flags="0x4"/>
    </TTGlyph>
    <TTGlyph name="egrave" xMin="45" yMin="-11" xMax="436" yMax="767">
      <component glyphName="e" x="0" y="0" flags="0x204"/>
      <component glyphName="grave" x="-53" y="2" flags="0x4"/>
    </TTGlyph>
</ttFont>
